<?xml version="1.0" encoding="UTF-8" standalone="no"?>
<svg width="34px" height="34px" viewBox="0 0 34 34" version="1.1" xmlns="http://www.w3.org/2000/svg" xmlns:xlink="http://www.w3.org/1999/xlink" xmlns:sketch="http://www.bohemiancoding.com/sketch/ns">
    <!-- Generator: Sketch 3.0 (7574) - http://www.bohemiancoding.com/sketch -->
    <title>ikony-sketch</title>
    <description>Created with Sketch.</description>
    <defs></defs>
    <g id="Page-1" stroke="none" stroke-width="1" fill="none" fill-rule="evenodd" sketch:type="MSPage">
        <g id="Line-+-Line" sketch:type="MSLayerGroup" transform="translate(-518.000000, -35.000000)"></g>
        <g id="icons" sketch:type="MSLayerGroup" transform="translate(-453.000000, -2.000000)" fill="#FF3878">
            <g id="Oval-16-+-icon_16569" transform="translate(453.000000, 2.000000)" sketch:type="MSShapeGroup">
                <path d="M17,34 C26.3888407,34 34,26.3888407 34,17 C34,7.61115925 26.3888407,0 17,0 C7.61115925,0 0,7.61115925 0,17 C0,26.3888407 7.61115925,34 17,34 Z M22.2376926,11.268842 C22.2376926,14.1926299 19.9478318,18.2280844 17.122604,18.2280844 C14.2973761,18.2280844 12.0072749,14.1928788 12.0072749,11.268842 C12.0072749,8.34480519 14.2973761,5.97461039 17.122604,5.97461039 C19.9478318,5.97461039 22.2376926,8.34505411 22.2376926,11.268842 Z M20.9897052,17 C19.9574521,18.3476222 18.604604,19.3002222 17.122604,19.3002222 C15.6403635,19.3002222 14.2877559,18.3476222 13.2555027,17 C9.95551537,18.3701111 7.65531284,21.2232667 7.65531284,23.1673333 C7.65531284,25.8070889 11.8939964,27.9472 17.122604,27.9472 C22.3512116,27.9472 26.5898951,25.8073333 26.5898951,23.1673333 C26.5898951,21.2232667 24.2899331,18.3698667 20.9897052,17 Z" id="Oval-16"></path>
            </g>
        </g>
    </g>
</svg>