<?xml version="1.0" encoding="UTF-8" standalone="no"?>
<svg width="34px" height="34px" viewBox="0 0 34 34" version="1.1" xmlns="http://www.w3.org/2000/svg" xmlns:xlink="http://www.w3.org/1999/xlink" xmlns:sketch="http://www.bohemiancoding.com/sketch/ns">
    <!-- Generator: Sketch 3.0 (7574) - http://www.bohemiancoding.com/sketch -->
    <title>ikony-sketch</title>
    <description>Created with Sketch.</description>
    <defs></defs>
    <g id="Page-1" stroke="none" stroke-width="1" fill="none" fill-rule="evenodd" sketch:type="MSPage">
        <g id="Line-+-Line" sketch:type="MSLayerGroup" transform="translate(-65.000000, -33.000000)"></g>
        <g id="icons" sketch:type="MSLayerGroup" fill="#FF3878">
            <g id="Oval-20-+-icon_35149" sketch:type="MSShapeGroup">
                <path d="M17,34 C26.3888407,34 34,26.3888407 34,17 C34,7.61115925 26.3888407,0 17,0 C7.61115925,0 0,7.61115925 0,17 C0,26.3888407 7.61115925,34 17,34 Z M13.6995299,14.4763243 C11.1072479,14.4763243 9.00597314,13.9357838 9.00597314,13.268973 L9.00597314,14.8006486 C9.00597314,15.4674595 11.1072479,16.008 13.6995299,16.008 C16.291812,16.008 18.3930867,15.4674595 18.3930867,14.8006486 L18.3930867,13.268973 C18.3930867,13.9357838 16.2914176,14.4763243 13.6995299,14.4763243 Z M13.6995299,17.5396757 C11.1072479,17.5396757 9.00597314,16.9991351 9.00597314,16.3323243 L9.00597314,17.864 C9.00597314,18.5308108 11.1072479,19.0713514 13.6995299,19.0713514 C16.291812,19.0713514 18.3930867,18.5308108 18.3930867,17.864 L18.3930867,16.3323243 C18.3930867,16.9991351 16.2914176,17.5396757 13.6995299,17.5396757 Z M13.6995299,20.6025946 C11.1072479,20.6025946 9.00597314,20.0620541 9.00597314,19.3952432 L9.00597314,20.9269189 C9.00597314,21.5937297 11.1072479,22.1342703 13.6995299,22.1342703 C16.291812,22.1342703 18.3930867,21.5937297 18.3930867,20.9269189 L18.3930867,19.3952432 C18.3930867,20.0620541 16.2914176,20.6025946 13.6995299,20.6025946 Z M13.6995299,23.6659459 C11.1072479,23.6659459 9.00597314,23.1254054 9.00597314,22.4585946 L9.00597314,23.9902703 C9.00597314,24.6570811 11.1072479,25.1976216 13.6995299,25.1976216 C16.291812,25.1976216 18.3930867,24.6570811 18.3930867,23.9902703 L18.3930867,22.4585946 C18.3930867,23.1254054 16.2914176,23.6659459 13.6995299,23.6659459 Z M13.6995299,8.9987027 C11.1072479,8.9987027 9.00597314,9.53924324 9.00597314,10.2060541 L9.00597314,11.7377297 C9.00597314,12.4045405 11.1072479,12.9450811 13.6995299,12.9450811 C16.291812,12.9450811 18.3930867,12.4045405 18.3930867,11.7377297 L18.3930867,10.2060541 C18.3930867,9.53924324 16.2914176,8.9987027 13.6995299,8.9987027 Z M24.0879829,18.2397838 C21.8798303,18.2397838 20.0897241,17.7792432 20.0897241,17.2114595 L20.0897241,18.5161081 C20.0897241,19.0838919 21.8798303,19.5444324 24.0879829,19.5444324 C26.2961355,19.5444324 28.0862418,19.0838919 28.0862418,18.5161081 L28.0862418,17.2114595 C28.0862418,17.7796757 26.2961355,18.2397838 24.0879829,18.2397838 Z M24.0879829,20.8490811 C21.8798303,20.8490811 20.0897241,20.3885405 20.0897241,19.8207568 L20.0897241,21.1254054 C20.0897241,21.6931892 21.8798303,22.1537297 24.0879829,22.1537297 C26.2961355,22.1537297 28.0862418,21.6931892 28.0862418,21.1254054 L28.0862418,19.8207568 C28.0862418,20.3885405 26.2961355,20.8490811 24.0879829,20.8490811 Z M24.0879829,13.5738378 C21.8798303,13.5738378 20.0897241,14.0343784 20.0897241,14.6021622 L20.0897241,15.9068108 C20.0897241,16.4745946 21.8798303,16.9351351 24.0879829,16.9351351 C26.2961355,16.9351351 28.0862418,16.4745946 28.0862418,15.9068108 L28.0862418,14.6021622 C28.0862418,14.0343784 26.2961355,13.5738378 24.0879829,13.5738378 Z" id="Oval-20"></path>
            </g>
        </g>
    </g>
</svg>