<?xml version="1.0" encoding="utf-8"?>
<!-- Generator: Adobe Illustrator 16.0.0, SVG Export Plug-In . SVG Version: 6.00 Build 0)  -->
<!DOCTYPE svg PUBLIC "-//W3C//DTD SVG 1.1//EN" "http://www.w3.org/Graphics/SVG/1.1/DTD/svg11.dtd">
<svg version="1.1" id="Layer_1" xmlns:sketch="http://www.bohemiancoding.com/sketch/ns"
	 xmlns="http://www.w3.org/2000/svg" xmlns:xlink="http://www.w3.org/1999/xlink" x="0px" y="0px" width="226px" height="222px"
	 viewBox="0 0 226 222" enable-background="new 0 0 226 222" xml:space="preserve">
<title>Slice 1</title>
<description>Created with Sketch.</description>
<g id="Page-1" sketch:type="MSPage">
	<g id="Shape-3-_x2B_-Fill-486" transform="translate(0.931034, -7.000000)" sketch:type="MSLayerGroup">
		<g id="Group" transform="translate(123.000000, 0.000000)" sketch:type="MSShapeGroup">
			<path fill="#FF3878" d="M66.656,105.683c1.968,7.57,3.017,15.506,3.017,23.685c0,51.903-42.189,94.133-94.051,94.133
				c-51.861,0-94.052-42.229-94.052-94.133c0-51.905,42.192-94.133,94.052-94.133c9.975,0,19.59,1.568,28.618,4.461
				c0.594-1.575,1.266-3.11,2.006-4.605c-9.648-3.147-19.94-4.855-30.624-4.855c-54.617,0-99.052,44.471-99.052,99.133
				S-78.996,228.5-24.379,228.5c54.617,0,99.051-44.471,99.051-99.133c0-8.788-1.153-17.31-3.309-25.429
				C69.833,104.594,68.26,105.178,66.656,105.683z"/>
			<path id="Shape_1_" fill="#FF3878" d="M-14.996,177.684h-13.657v6.338l-13.657,2.029v4.057H-1.62v-3.806l-13.375-2.28
				L-14.996,177.684L-14.996,177.684L-14.996,177.684z M27.471,86.572H-74.162c-4.883,0-8.838,3.878-8.838,8.667v60.663
				c0,4.785,3.955,8.666,8.838,8.666H27.471c4.885,0,8.839-3.881,8.839-8.666V95.239C36.31,90.451,32.356,86.572,27.471,86.572
				L27.471,86.572L27.471,86.572z M-23.345,156.977c-2.094,0-3.793-1.701-3.793-3.797c0-2.099,1.699-3.796,3.793-3.796
				c2.097,0,3.793,1.697,3.793,3.796C-19.552,155.275-21.251,156.977-23.345,156.977L-23.345,156.977L-23.345,156.977z
				 M25.965,142.48H-75.414V94.165H25.965V142.48L25.965,142.48z"/>
			<path id="Shape_2_" fill="#FF3878" d="M79.827,30.638c-1.393-21.089-18.158-9.724-18.158-9.724
				C77.598,22.612,79.827,30.638,79.827,30.638L79.827,30.638z"/>
			<path id="Shape_3_" fill="#FF3878" d="M85.851,21.858c-2.32,3.739-4.779,7.127-6.03,8.809
				c1.258,10.193-6.238,38.518-6.238,38.518s-24.195,2.928-36.764,24.252c0,0-1.562,0.264-3.557-0.029l18.238-33.831
				c1.605,0.088,3.312-0.205,4.939-0.967c4.541-2.109,6.758-6.854,4.953-10.603c-1.809-3.779-6.955-5.126-11.493-3.046
				c-4.542,2.109-6.755,6.854-4.95,10.633c0.492,1.025,1.236,1.845,2.148,2.489L28.467,91.328c-1.493-1.23-2.09-2.49-2.09-2.49
				s10.523-19.332,4.582-41.3c0,0,22.588-26.625,30.396-26.625h0.312c1.031-2.308,2.989-6.57,5.174-10.662
				c-5.135-1.742-10.629-2.7-16.353-2.7c-28.132,0-50.938,22.824-50.938,50.979c0,28.155,22.808,50.979,50.938,50.979
				s50.937-22.824,50.937-50.979C101.424,44.128,95.447,31.129,85.851,21.858L85.851,21.858z"/>
		</g>
	</g>
</g>
</svg>
