<?xml version="1.0" encoding="utf-8"?>
<!-- Generator: Adobe Illustrator 16.0.0, SVG Export Plug-In . SVG Version: 6.00 Build 0)  -->
<!DOCTYPE svg PUBLIC "-//W3C//DTD SVG 1.1//EN" "http://www.w3.org/Graphics/SVG/1.1/DTD/svg11.dtd">
<svg version="1.1" id="Layer_1" xmlns:sketch="http://www.bohemiancoding.com/sketch/ns"
	 xmlns="http://www.w3.org/2000/svg" xmlns:xlink="http://www.w3.org/1999/xlink" x="0px" y="0px" width="226px" height="222px"
	 viewBox="0 0 226 222" enable-background="new 0 0 226 222" xml:space="preserve">
<title>Slice 1</title>
<description>Created with Sketch.</description>
<g id="Page-1" sketch:type="MSPage">
	<g id="Shape-3-_x2B_-Fill-486" transform="translate(0.931034, -7.000000)" sketch:type="MSLayerGroup">
		<g id="Group" transform="translate(123.000000, 0.000000)" sketch:type="MSShapeGroup">
			<path fill="#FF3878" d="M66.656,105.683c1.968,7.57,3.017,15.506,3.017,23.685c0,51.903-42.189,94.133-94.051,94.133
				c-51.861,0-94.052-42.229-94.052-94.133c0-51.905,42.192-94.133,94.052-94.133c9.975,0,19.59,1.568,28.618,4.461
				c0.594-1.575,1.266-3.11,2.006-4.605c-9.648-3.147-19.94-4.855-30.624-4.855c-54.617,0-99.052,44.471-99.052,99.133
				S-78.996,228.5-24.379,228.5c54.617,0,99.051-44.471,99.051-99.133c0-8.788-1.153-17.31-3.309-25.429
				C69.833,104.594,68.26,105.178,66.656,105.683z"/>
			<g>
				<defs>
					<path id="SVGID_1_" d="M-64.668,134.997H7.787v4.841h-72.455V134.997z M-64.668,125.312H7.787v4.841h-72.455V125.312z
						 M-64.668,110.784h57.965v9.687h-57.965V110.784z M21.828,160.765l-58.399,1l-25.478,16.554v-17.554h-8.296
						c-2.989,0-5.421-2.299-5.421-5.115V99.373c0-2.82,2.436-5.115,5.421-5.115h92.174c2.989,0,5.421,2.299,5.421,5.115v56.276
						C27.249,158.47,24.813,160.765,21.828,160.765z M-68.438,86.572c-8.572,0-15.55,6.519-15.55,14.526v58.107
						c0,8.008,10.368,9.686,15.55,9.686v21.495l34.337-21.495h53.78c8.572,0,15.551-6.52,15.551-14.527v-53.266
						c0-8.008-6.979-14.526-15.551-14.526H-68.438z"/>
				</defs>
				<use xlink:href="#SVGID_1_"  overflow="visible" fill-rule="evenodd" clip-rule="evenodd" fill="#FF3878"/>
				<clipPath id="SVGID_2_">
					<use xlink:href="#SVGID_1_"  overflow="visible"/>
				</clipPath>
			</g>
			<path id="Shape_2_" fill="#FF3878" d="M79.827,30.638c-1.393-21.089-18.158-9.724-18.158-9.724
				C77.598,22.612,79.827,30.638,79.827,30.638L79.827,30.638z"/>
			<path id="Shape_3_" fill="#FF3878" d="M85.851,21.858c-2.32,3.739-4.779,7.127-6.03,8.809
				c1.258,10.193-6.238,38.518-6.238,38.518s-24.195,2.928-36.764,24.252c0,0-1.562,0.264-3.557-0.029l18.238-33.831
				c1.605,0.088,3.312-0.205,4.939-0.967c4.541-2.109,6.758-6.854,4.953-10.603c-1.809-3.779-6.955-5.126-11.493-3.046
				c-4.542,2.109-6.755,6.854-4.95,10.633c0.492,1.025,1.236,1.845,2.148,2.489L28.467,91.328c-1.493-1.23-2.09-2.49-2.09-2.49
				s10.523-19.332,4.582-41.3c0,0,22.588-26.625,30.396-26.625h0.312c1.031-2.308,2.989-6.57,5.174-10.662
				c-5.135-1.742-10.629-2.7-16.353-2.7c-28.132,0-50.938,22.824-50.938,50.979c0,28.155,22.808,50.979,50.938,50.979
				s50.937-22.824,50.937-50.979C101.424,44.128,95.447,31.129,85.851,21.858L85.851,21.858z"/>
		</g>
	</g>
</g>
</svg>
