<?xml version="1.0" encoding="UTF-8" standalone="no"?>
<svg width="40px" height="33px" viewBox="0 0 40 33" version="1.1" xmlns="http://www.w3.org/2000/svg" xmlns:xlink="http://www.w3.org/1999/xlink" xmlns:sketch="http://www.bohemiancoding.com/sketch/ns">
    <!-- Generator: Sketch 3.0 (7574) - http://www.bohemiancoding.com/sketch -->
    <title>Slice 1</title>
    <description>Created with Sketch.</description>
    <defs></defs>
    <g id="Page-1" stroke="none" stroke-width="1" fill="none" fill-rule="evenodd" sketch:type="MSPage">
        <g id="Group" sketch:type="MSLayerGroup" fill="#000000">
            <g id="icon-list-ul-link" sketch:type="MSShapeGroup">
                <g id="icon-list-ul">
                    <path d="M8.57125,28.34304 C8.57125,29.5624533 8.15458333,30.5988267 7.32125,31.45216 C6.48791667,32.3054933 5.47583333,32.73216 4.285,32.73216 C3.09416667,32.73216 2.08208333,32.3054933 1.24875,31.45216 C0.415416667,30.5988267 -0.00125,29.5624533 -0.00125,28.34304 C-0.00125,27.1236267 0.415416667,26.0872533 1.24875,25.23392 C2.08208333,24.3805867 3.09416667,23.95392 4.285,23.95392 C5.47583333,23.95392 6.48791667,24.3805867 7.32125,25.23392 C8.15458333,26.0872533 8.57125,27.1236267 8.57125,28.34304 L8.57125,28.34304 Z M8.57125,16.64 C8.57125,17.8594133 8.15458333,18.8957867 7.32125,19.74912 C6.48791667,20.6024533 5.47583333,21.02912 4.285,21.02912 C3.09416667,21.02912 2.08208333,20.6024533 1.24875,19.74912 C0.415416667,18.8957867 -0.00125,17.8594133 -0.00125,16.64 C-0.00125,15.4205867 0.415416667,14.3842133 1.24875,13.53088 C2.08208333,12.6775467 3.09416667,12.25088 4.285,12.25088 C5.47583333,12.25088 6.48791667,12.6775467 7.32125,13.53088 C8.15458333,14.3842133 8.57125,15.4205867 8.57125,16.64 L8.57125,16.64 Z M40,26.14912 L40,30.53824 C40,30.7362133 39.9291667,30.9077333 39.7875,31.0528 C39.6458333,31.1978667 39.4783333,31.2704 39.285,31.2704 L12.1425,31.2704 C11.9491667,31.2704 11.7816667,31.1978667 11.64,31.0528 C11.4983333,30.9077333 11.4275,30.7362133 11.4275,30.53824 L11.4275,26.14912 C11.4275,25.9511467 11.4983333,25.7796267 11.64,25.63456 C11.7816667,25.4894933 11.9491667,25.41696 12.1425,25.41696 L39.285,25.41696 C39.4783333,25.41696 39.6458333,25.4894933 39.7875,25.63456 C39.9291667,25.7796267 40,25.9511467 40,26.14912 L40,26.14912 Z M8.57125,4.93696 C8.57125,6.15637333 8.15458333,7.19274667 7.32125,8.04608 C6.48791667,8.89941333 5.47583333,9.32608 4.285,9.32608 C3.09416667,9.32608 2.08208333,8.89941333 1.24875,8.04608 C0.415416667,7.19274667 -0.00125,6.15637333 -0.00125,4.93696 C-0.00125,3.71754667 0.415416667,2.68117333 1.24875,1.82784 C2.08208333,0.974506667 3.09416667,0.54784 4.285,0.54784 C5.47583333,0.54784 6.48791667,0.974506667 7.32125,1.82784 C8.15458333,2.68117333 8.57125,3.71754667 8.57125,4.93696 L8.57125,4.93696 Z M40,14.44608 L40,18.8352 C40,19.0331733 39.9291667,19.2046933 39.7875,19.34976 C39.6458333,19.4948267 39.4783333,19.56736 39.285,19.56736 L12.1425,19.56736 C11.9491667,19.56736 11.7816667,19.4948267 11.64,19.34976 C11.4983333,19.2046933 11.4275,19.0331733 11.4275,18.8352 L11.4275,14.44608 C11.4275,14.2481067 11.4983333,14.0765867 11.64,13.93152 C11.7816667,13.7864533 11.9491667,13.71392 12.1425,13.71392 L39.285,13.71392 C39.4783333,13.71392 39.6458333,13.7864533 39.7875,13.93152 C39.9291667,14.0765867 40,14.2481067 40,14.44608 L40,14.44608 Z M40,2.74304 L40,7.13216 C40,7.33013333 39.9291667,7.50165333 39.7875,7.64672 C39.6458333,7.79178667 39.4783333,7.86432 39.285,7.86432 L12.1425,7.86432 C11.9491667,7.86432 11.7816667,7.79178667 11.64,7.64672 C11.4983333,7.50165333 11.4275,7.33013333 11.4275,7.13216 L11.4275,2.74304 C11.4275,2.54506667 11.4983333,2.37354667 11.64,2.22848 C11.7816667,2.08341333 11.9491667,2.01088 12.1425,2.01088 L39.285,2.01088 C39.4783333,2.01088 39.6458333,2.08341333 39.7875,2.22848 C39.9291667,2.37354667 40,2.54506667 40,2.74304 L40,2.74304 Z" id="Shape"></path>
                </g>
            </g>
        </g>
    </g>
</svg>