<?xml version="1.0" encoding="UTF-8" standalone="no"?>
<svg width="150px" height="150px" viewBox="0 0 150 150" version="1.1" xmlns="http://www.w3.org/2000/svg" xmlns:xlink="http://www.w3.org/1999/xlink" xmlns:sketch="http://www.bohemiancoding.com/sketch/ns">
    <!-- Generator: Sketch 3.0 (7574) - http://www.bohemiancoding.com/sketch -->
    <title>Slice 1</title>
    <description>Created with Sketch.</description>
    <defs></defs>
    <g id="Page-1" stroke="none" stroke-width="1" fill="none" fill-rule="evenodd" sketch:type="MSPage">
        <g id="Oval-1-+-icon-phone" sketch:type="MSLayerGroup">
            <path d="M75,150 C116.421356,150 150,116.421356 150,75 C150,33.5786438 116.421356,0 75,0 C33.5786438,0 0,33.5786438 0,75 C0,116.421356 33.5786438,150 75,150 Z" id="Oval-1" stroke="#E3E3E3" stroke-width="2" stroke-linecap="square" sketch:type="MSShapeGroup"></path>
            <g id="icon-phone" transform="translate(28.552476, 29.097877)" fill="#FEFEFE" sketch:type="MSShapeGroup">
                <path d="M59.134136,62.0548697 C57.7833432,64.0832622 56.9238887,64.6855346 55.2107901,64.6855346 C51.2344855,64.6855346 47.5294783,61.9037575 39.2466253,53.6118976 C34.9236024,49.2841739 33.131858,47.3709016 31.3872677,45.0422518 C29.2399928,42.1761052 28.1839623,39.7596964 28.1839623,37.6267689 C28.1839623,35.9093562 28.7861389,35.0481684 30.8125913,33.6957311 C34.4243927,31.5393899 36.8524416,29.9189304 39.2466253,27.5221433 C43.162226,23.6022846 40.7836592,17.1731705 34.9631832,10.3752311 C30.0076307,4.58746637 23.736864,0 19.9660967,0 C17.3289063,0 14.4936458,1.89222904 11.1284403,5.26109398 C9.85004429,6.54088009 8.5189435,8.02148925 7.15080974,9.66503503 C5.5065357,11.6403095 3.8914052,13.7492923 2.37045723,15.8575103 C1.83840548,16.5949984 1.35567006,17.2803494 0.930688747,17.8965089 C0.78122885,18.1132034 0.649427732,18.3061306 0.536347424,18.4731518 C0.467335138,18.5750839 0,19.2762706 0,19.2762706 L0,19.9852594 C0,32.3320508 12.2422956,56.7329471 24.1820304,68.6856653 C36.1222613,80.6388801 60.4977645,92.8950472 72.8331368,92.8950472 L73.5434091,92.8950472 L74.1341936,92.5007625 C74.5138341,92.2440195 74.7065583,92.1120706 74.9230241,91.9624436 C75.538529,91.5369899 76.2231503,91.0537192 76.9598521,90.5210783 C79.0658168,88.9984498 81.172544,87.3815359 83.1457046,85.7354474 C84.7874866,84.365808 86.2665051,83.0332439 87.5449088,81.75345 C90.9093483,78.385352 92.7992335,75.5474416 92.7992335,72.9097877 C92.7992335,69.1374581 88.2170624,62.8603003 82.4362935,57.8999674 C75.6443005,52.0719286 69.2189099,49.6895665 65.3008394,53.6118976 C62.9067372,56.0086031 61.2881647,58.4391019 59.134136,62.0548697 Z M79.3837979,61.4573439 C84.1850754,65.5771997 88.1117335,70.9563643 88.1117335,72.9097877 C88.1117335,73.8657747 86.7382212,75.9282835 84.2285451,78.4406887 C83.0594006,79.6111045 81.6829463,80.8512605 80.1429157,82.1360148 C78.2611879,83.7058265 76.2376776,85.2588713 74.2134049,86.7224359 C73.5045235,87.2349625 72.8468176,87.6992338 72.2576699,88.1064686 C71.9070946,88.3487957 71.6594592,88.51682 71.53208,88.6018318 L72.8331368,88.2075472 C61.8835518,88.2075472 38.6277731,76.5143851 27.4983941,65.3729039 C16.3685191,54.2309261 4.6875,30.9487456 4.6875,19.9852594 L4.29451963,21.2843599 C4.37944755,21.1568294 4.54729793,20.9089121 4.78937063,20.5579428 C5.19617326,19.9681397 5.65995061,19.3097039 6.17193111,18.6000369 C7.63393245,16.5735261 9.18531737,14.5477801 10.7534503,12.6639744 C12.036827,11.1222476 13.2756518,9.74427889 14.444804,8.57385536 C16.953714,6.06221715 19.0135498,4.6875 19.9660967,4.6875 C21.9148629,4.6875 27.2877572,8.61811539 31.4025303,13.4239041 C35.7340584,18.4828487 37.3331167,22.8050012 35.9302615,24.2093819 C33.9188586,26.2229721 31.9413207,27.5427642 28.2104777,29.7968004 C25.0052959,31.9359118 23.4964623,34.0937323 23.4964623,37.6267689 C23.4964623,40.9543086 24.9369309,44.2503885 27.6358013,47.8527954 C29.5625332,50.4245649 31.442111,52.431628 35.9302615,56.924659 C40.4184492,61.4177272 42.4233309,63.2993476 44.9923886,65.2282362 C48.5915833,67.9305675 51.8850696,69.3730346 55.2107901,69.3730346 C58.7424375,69.3730346 60.898712,67.8620011 63.0356753,64.6530706 C65.2872333,60.9182094 66.6057185,58.9383308 68.6172031,56.924659 C70.0175885,55.5227508 74.3317862,57.1223393 79.3837979,61.4573439 Z" id="Shape"></path>
            </g>
        </g>
    </g>
</svg>