<svg xmlns="http://www.w3.org/2000/svg" xmlns:xlink="http://www.w3.org/1999/xlink" version="1.1" id="Calque_2" x="0px" y="0px" width="90px" height="90px" viewBox="0 0 90 90" enable-background="new 0 0 90 90" xml:space="preserve">
<g>
	<path fill="#000000" d="M43.305,41.664c-6.573,0-11.901-1.25-11.901-2.792v3.542c0,1.542,5.328,2.792,11.901,2.792   c6.573,0,11.901-1.25,11.901-2.792v-3.542C55.206,40.414,49.877,41.664,43.305,41.664z"/>
	<path fill="#000000" d="M43.305,48.748c-6.573,0-11.901-1.25-11.901-2.792v3.542c0,1.542,5.328,2.792,11.901,2.792   c6.573,0,11.901-1.25,11.901-2.792v-3.542C55.206,47.498,49.877,48.748,43.305,48.748z"/>
	<path fill="#000000" d="M43.305,55.831c-6.573,0-11.901-1.25-11.901-2.792v3.542c0,1.542,5.328,2.792,11.901,2.792   c6.573,0,11.901-1.25,11.901-2.792v-3.542C55.206,54.581,49.877,55.831,43.305,55.831z"/>
	<path fill="#000000" d="M43.305,62.915c-6.573,0-11.901-1.25-11.901-2.792v3.542c0,1.542,5.328,2.792,11.901,2.792   c6.573,0,11.901-1.25,11.901-2.792v-3.542C55.206,61.665,49.877,62.915,43.305,62.915z"/>
	<path fill="#000000" d="M43.305,28.997c-6.573,0-11.901,1.25-11.901,2.792v3.542c0,1.542,5.328,2.792,11.901,2.792   c6.573,0,11.901-1.25,11.901-2.792v-3.542C55.206,30.247,49.877,28.997,43.305,28.997z"/>
	<path fill="#000000" d="M69.646,50.367c-5.599,0-10.138-1.065-10.138-2.378v3.017c0,1.313,4.539,2.378,10.138,2.378   c5.599,0,10.138-1.065,10.138-2.378v-3.017C79.784,49.303,75.245,50.367,69.646,50.367z"/>
	<path fill="#000000" d="M69.646,56.401c-5.599,0-10.138-1.065-10.138-2.378v3.017c0,1.313,4.539,2.378,10.138,2.378   c5.599,0,10.138-1.065,10.138-2.378v-3.017C79.784,55.336,75.245,56.401,69.646,56.401z"/>
	<path fill="#000000" d="M69.646,39.577c-5.599,0-10.138,1.065-10.138,2.378v3.017c0,1.313,4.539,2.378,10.138,2.378   c5.599,0,10.138-1.065,10.138-2.378v-3.017C79.784,40.642,75.245,39.577,69.646,39.577z"/>
	<path fill="#000000" d="M17.819,55.221c-5.599,0-10.138-1.065-10.138-2.378v3.017c0,1.313,4.539,2.378,10.138,2.378   c5.599,0,10.138-1.065,10.138-2.378v-3.017C27.956,54.156,23.417,55.221,17.819,55.221z"/>
	<path fill="#000000" d="M17.819,44.43c-5.599,0-10.138,1.065-10.138,2.378v3.017c0,1.313,4.539,2.378,10.138,2.378   c5.599,0,10.138-1.065,10.138-2.378v-3.017C27.956,45.495,23.417,44.43,17.819,44.43z"/>
</g>
</svg>