<svg xmlns:sketch="http://www.bohemiancoding.com/sketch/ns" xmlns="http://www.w3.org/2000/svg" xmlns:xlink="http://www.w3.org/1999/xlink" version="1.1" x="0px" y="0px" width="291px" height="37px" viewBox="0 0 291 37" enable-background="new 0 0 291 37" xml:space="preserve"><g sketch:type="MSPage"><g sketch:type="MSLayerGroup"><g sketch:type="MSShapeGroup"><g transform="translate(70.591837, 0.250000)"><g><g><path fill="#5D5D5D" d="M2.063 14.6c0 1.6 0 3.1-0.063 3.9c-0.097 0.5-0.2 0.9-0.5 1c-0.205 0-0.4 0-0.7 0 c-0.201 0-0.3 0.1-0.3 0.2c0.027 0.1 0.2 0.2 0.4 0.2c0.698 0 1.8-0.101 2.2-0.101c0.231 0 1.6 0.1 2.6 0.1 C5.92 19.9 6 19.8 6 19.7c0.045-0.101 0-0.2-0.2-0.2c-0.183 0-0.6 0-0.8 0c-0.58-0.1-0.7-0.5-0.7-1c-0.13-0.8-0.1-2.3-0.1-4 l-0.03-0.2c0-0.1 0.03-0.2 0.13-0.2l1.567 0.1c0.125 0 0.2 0 0.3 0.1c0.22 0.3 1 1.5 1.8 2.5c0.956 1.4 1.6 2.3 2.4 2.7 c0.466 0.3 0.9 0.4 1.9 0.4h1.709c0.214 0 0.291-0.101 0.291-0.2c0.048-0.101 0-0.2-0.2-0.2c-0.109 0-0.3 0-0.5 0 c-0.234-0.1-1-0.2-2-1.3c-1.019-1.1-2.3-2.7-3.8-4.8c1.763-1.5 2.3-2.7 2.3-4.1c0.016-1.2-0.7-2.1-1.2-2.5 C7.938 6.2 6.7 6.1 5.6 6.1c-0.537 0-1.9 0-2.5 0c-0.376 0-1.5 0-2.4 0c-0.315 0-0.4 0-0.4 0.1C0.26 6.4 0.4 6.4 0.6 6.4 c0.214 0 0.5 0 0.7 0.1C1.849 6.6 2 6.9 2 7.5c0.064 0.6 0.1 1.1 0.1 3.9c-0.036 0 0-2.8 0 0L2.063 14.6L2.063 14.6 L2.063 14.6L2.063 14.6z M4.171 7.3C4.171 7.1 4.2 7 4.3 7c0.21-0.1 0.5-0.1 1-0.1C6.332 6.9 8 7.7 8 10.3 c0.01 1.5-0.5 2.3-1 2.7c-0.365 0.2-0.6 0.3-1.3 0.3c-0.457 0-1 0-1.4-0.2c-0.093 0-0.1-0.1-0.1-0.3c-0.029 0 0 0.2 0 0 L4.171 7.3L4.171 7.3L4.171 7.3L4.171 7.3z M19.813 20.1c4.054 0 6.587-2.8 6.587-6.399c0.002-3.5-2.5-5.8-6.4-5.8 c-4.795 0-6.6 3.4-6.6 6.1c-0.015 2.7 1.8 6.1 6.4 6.1c0.013 0-4.6 0 0 0H19.813L19.813 20.1L19.813 20.1L19.813 20.1z M20.457 19.2c-2.964 0-4.757-2.5-4.757-5.7c0.007-3.8 2.1-4.8 3.8-4.8c2.546 0 4.6 2.1 4.6 5.6c-0.037 4.4-2.5 4.9-3.6 4.9 H20.457L20.457 19.2L20.457 19.2L20.457 19.2z M29.332 15.4c0 1.4-0.032 2.6-0.032 3.3c-0.093 0.399-0.2 0.7-0.5 0.8 c-0.147 0-0.3 0-0.6 0c-0.154 0-0.2 0.1-0.2 0.2c-0.008 0.1 0.1 0.2 0.3 0.2c0.317 0 0.7-0.101 1.1-0.101c0.36 0 0.7 0 0.9 0 c0.228 0 0.8 0 1.3 0c0.553 0.1 1.1 0.1 1.3 0.101c2.86 0 4.1-1.7 4.1-3.4c0.046-1.8-1.6-2.9-2.8-3.3 c0.846-0.6 1.7-1.6 1.7-2.8c0.021-0.8-0.5-2.3-3.3-2.3c-0.554 0-1.6 0.1-2.4 0.1c-0.278 0-1.3-0.1-2.1-0.1 c-0.232 0-0.4 0.1-0.4 0.2c0.043 0.1 0.2 0.1 0.3 0.1c0.243 0 0.5 0.1 0.6 0.1c0.536 0.1 0.7 0.3 0.7 0.8c0.033 0.5 0 1 0 3.3 c0.033 0 0-2.3 0 0L29.332 15.4L29.332 15.4L29.332 15.4L29.332 15.4z M31.367 9.1c0-0.1 0.033-0.2 0.133-0.2 c0.171-0.1 0.5-0.1 0.7-0.1c1.346 0 2 1.3 2 2.4c-0.047 0.7-0.4 1.3-0.8 1.6c-0.229 0.2-0.7 0.3-1.2 0.3 c-0.35 0-0.6 0-0.7-0.1c-0.078 0-0.1 0-0.1-0.1c-0.032 0 0 0.1 0 0L31.367 9.1L31.367 9.1L31.367 9.1L31.367 9.1z M31.367 13.9c0-0.1 0.033-0.1 0.133-0.1h0.634c0.607 0 1.1 0.2 1.4 0.4c1.17 0.8 1.5 2 1.5 2.8c-0.027 1.7-1.1 2.1-2 2.1 c-0.312 0-0.7 0-1.1-0.1c-0.48-0.2-0.5-0.5-0.5-1.6c-0.034 0 0 1.1 0 0L31.367 13.9L31.367 13.9L31.367 13.9L31.367 13.9z M40.046 15.4c0 1.4-0.046 2.6-0.046 3.3c-0.079 0.399-0.2 0.7-0.5 0.8c-0.133 0-0.3 0-0.5 0c-0.24 0-0.3 0.1-0.3 0.2 c0.007 0.1 0.1 0.2 0.3 0.2c0.332 0 0.7-0.101 1.1-0.101c0.374 0 0.7 0 0.9 0c0.456 0 1 0 1.8 0 c0.781 0.1 1.7 0.1 2.9 0.101c0.595 0 0.7 0 0.8-0.4c0.134-0.3 0.3-1.4 0.3-1.7c-0.041-0.2-0.1-0.4-0.2-0.4 c-0.091 0-0.1 0.1-0.2 0.3c-0.07 0.6-0.2 0.9-0.6 1.1C45.347 19 44.7 19 44.3 19c-1.631 0-2.1-0.2-2.1-1.3 c-0.067-0.5 0-1.8 0-2.3l-0.049-1.2c0-0.1 0.049-0.2 0.049-0.2c0.433 0 2.2 0 2.5 0.1c0.593 0 0.8 0.3 0.9 0.6 c0.015 0.2 0 0.4 0 0.5c0.032 0.1 0.1 0.2 0.2 0.2c0.118 0 0.1-0.2 0.1-0.4c0.036-0.1 0.1-0.7 0.1-1 c0.096-0.8 0.1-1.1 0.1-1.1c0.032-0.1 0-0.2-0.1-0.2c-0.064 0-0.1 0.1-0.2 0.2c-0.204 0.1-0.4 0.2-0.8 0.2 c-0.35 0.1-2.4 0.1-2.7 0.1c-0.132 0-0.2-0.1-0.2-0.2l0.05-3.8c0-0.1 0.05-0.2 0.15-0.2c0.279 0 2.2 0.1 2.4 0.1 c0.807 0.1 0.9 0.3 1.1 0.6c0.046 0.1 0.1 0.4 0.1 0.5c-0.036 0.2 0 0.2 0.1 0.2c0.114 0 0.1-0.2 0.2-0.2 c0.004-0.2 0-0.9 0.1-1c-0.007-0.8 0.1-0.9 0.1-1.1c-0.018 0 0-0.1-0.1-0.1c-0.096 0-0.2 0.1-0.3 0.1s-0.4 0-0.6 0.1 c-0.34 0-3.8 0-4.3 0c-0.469 0-1.5-0.1-2.3-0.1c-0.222 0-0.3 0.1-0.3 0.2c-0.047 0.1 0.1 0.1 0.2 0.1c0.253 0 0.5 0.1 0.6 0.1 C39.846 8.6 40 8.8 40 9.3c0.043 0.5 0 1 0 3.3c0.043 0 0-2.3 0 0l0.043 2.8H40.046L40.046 15.4L40.046 15.4L40.046 15.4 L40.046 15.4z M49.974 15.4c0 1.4 0 2.6-0.074 3.3c-0.051 0.399-0.1 0.7-0.5 0.8c-0.104 0-0.3 0-0.5 0 c-0.211 0-0.3 0.1-0.3 0.2c0.035 0.1 0.1 0.2 0.3 0.2c0.664 0 1.7-0.101 2-0.101c0.2 0 1.5 0.1 2.4 0.1 c0.21 0 0.3-0.101 0.3-0.2c0.035-0.101 0-0.2-0.2-0.2c-0.157 0-0.5 0-0.7 0c-0.511-0.1-0.6-0.4-0.6-0.8 C51.993 18 52 16.8 52 15.4l-0.025-0.3C51.975 15 52 15 52.1 15h1.411c0.107 0 0.2 0.1 0.3 0.2c0.193 0.2 0.9 1.2 1.5 2.1 c0.854 1.2 1.4 1.9 2.1 2.2c0.433 0.3 0.9 0.4 1.7 0.4h1.536c0.197 0 0.264-0.101 0.264-0.2c0.04-0.101 0-0.2-0.2-0.2 c-0.081 0-0.2 0-0.3 0c-0.281-0.1-0.8-0.1-1.7-1c-0.956-1-2.1-2.4-3.5-4.1c1.58-1.3 2.2-2.3 2.2-3.5c0.023-1-0.6-1.8-1.1-2.1 c-0.823-0.6-2-0.7-3-0.7c-0.448 0-1.9 0.1-2.4 0.1c-0.334 0-1.3-0.1-2.2-0.1c-0.188 0-0.3 0.1-0.3 0.2 c-0.013 0.1 0.1 0.1 0.3 0.1c0.187 0 0.5 0.1 0.6 0.1c0.48 0.1 0.6 0.3 0.7 0.8c-0.023 0.5 0 1 0 3.3c-0.023 0 0-2.3 0 0 l-0.023 2.8H49.974L49.974 15.4L49.974 15.4L49.974 15.4z M51.974 9.2C51.974 9.1 52 9 52.1 9c0.178-0.1 0.6-0.1 0.9-0.1 c0.974 0 2.4 0.6 2.4 2.8c0.039 1.3-0.5 1.9-1 2.3c-0.247 0.2-0.5 0.2-1.1 0.2c-0.379 0-0.8 0-1.2-0.1 C52.011 14 52 14 52 13.8c-0.025 0 0 0.2 0 0L51.974 9.2L51.974 9.2L51.974 9.2L51.974 9.2z M63.635 15.4 c0 1.4-0.035 2.6-0.035 3.3c-0.09 0.399-0.2 0.7-0.5 0.8c-0.125 0-0.3 0-0.6 0c-0.15 0-0.2 0.1-0.2 0.2 c-0.003 0.1 0.1 0.2 0.3 0.2c0.625 0 1.7-0.101 2.1-0.101c0.4 0 1.5 0.1 2.5 0.101c0.169 0 0.3-0.101 0.3-0.2 c-0.006-0.101-0.1-0.2-0.3-0.2c-0.188 0-0.5 0-0.8 0c-0.424-0.1-0.5-0.4-0.6-0.8c-0.039-0.7-0.1-1.9-0.1-3.3l0.044-6.3h1.982 c1.411 0 1.8 0.5 1.9 0.9l0.001 0.2c0.018 0.2 0.1 0.3 0.2 0.3c0.069 0 0.1-0.1 0.1-0.3C69.923 9.8 70 8.7 70 8.3 C69.959 8.1 69.9 8 69.8 8c-0.02 0-0.1 0.1-0.4 0.1c-0.227 0-0.6 0.1-1.1 0.1h-6.341c-0.518 0-1.059-0.1-1.559-0.1 c-0.406-0.1-0.6-0.2-0.7-0.2c-0.08 0-0.1 0.1-0.2 0.3c-0.006 0.1-0.3 1.6-0.3 1.9c-0.009 0.1 0 0.2 0.1 0.2 c0.141 0 0.2 0 0.2-0.2c0.048-0.1 0.1-0.3 0.3-0.5c0.212-0.3 0.6-0.5 1.5-0.5h2.337v6.3H63.635L63.635 15.4L63.635 15.4 L63.635 15.4z"/></g><g><path fill="#265955" d="M101.186 19.9c4.633 0 7.515-3.2 7.515-7.2c0.016-4.1-2.8-6.7-7.3-6.7c-5.48 0-7.601 4-7.601 7 c0.038 3.1 2.2 6.9 7.4 6.9c-0.015 0-5.2 0 0 0H101.186L101.186 19.9L101.186 19.9L101.186 19.9z M101.92 19 c-3.389 0-5.42-2.9-5.42-6.6C96.491 8.1 98.8 7 100.8 7c2.937 0 5.2 2.4 5.2 6.3c0.043 5.1-2.8 5.7-4.1 5.7H101.92L101.92 19 L101.92 19L101.92 19z M114.613 19.9c0.959 0 2.187-0.101 2.986-0.7c1.32-0.9 1.801-2 1.801-3.3c0.01-1.6-0.7-3-3.101-4.3 l-0.727-0.4c-1.612-0.9-1.873-1.6-1.873-2.4c-0.025-1.2 1.1-1.9 2.399-1.9c1.188 0 1.8 0.5 2 0.9c0.412 0.4 0.5 1 0.5 1.1 c-0.006 0.3 0.1 0.4 0.2 0.4c0.123 0 0.2-0.2 0.2-0.6c0.005-1.4 0.1-1.9 0.1-2.1c-0.033-0.2-0.1-0.2-0.3-0.3 C118.352 6.2 117.4 6 116.3 6c-2.518 0-4.6 1.4-4.6 3.6c0.041 1.6 0.7 2.8 2.9 4l0.998 0.7c1.592 0.9 1.8 1.7 1.8 2.5 c-0.029 1.2-1 2.2-2.5 2.2c-1.143 0-2.5-0.4-2.9-1.7c-0.078-0.4-0.1-0.7-0.1-1c-0.039-0.1-0.101-0.2-0.2-0.2 c-0.166 0-0.2 0.1-0.2 0.4c-0.068 0.3-0.2 1.4-0.2 2.4c0.05 0.4 0.1 0.4 0.4 0.6c0.771 0.3 1.9 0.4 2.9 0.4 c0.014 0-1 0 0 0H114.613L114.613 19.9L114.613 19.9L114.613 19.9z M123.287 14.5c0 1.7 0 3.1-0.087 3.8 c-0.056 0.5-0.2 0.9-0.5 1c-0.188 0-0.4 0-0.7 0c-0.182 0-0.2 0.101-0.2 0.2c-0.044 0.1 0.1 0.2 0.3 0.2 c0.717 0 1.9-0.101 2.301-0.101c0.44 0 1.7 0.1 2.9 0.101c0.193 0 0.3-0.101 0.3-0.2c0.034-0.1 0-0.2-0.3-0.2 c-0.218 0-0.6 0-0.899 0c-0.502-0.1-0.601-0.5-0.7-1c-0.043-0.7 0-2.1 0-3.8l-0.043-7c0-0.2 0.043-0.3 0.143-0.3 c0.163-0.1 0.5-0.1 0.8-0.1c0.381 0 1.1 0.1 1.8 0.7c0.972 0.8 1 2 1 2.6c0.033 1.8-1.4 2.9-2.4 2.9 c-0.363 0-0.6 0.1-0.6 0.2c0.033 0.1 0.2 0.2 0.3 0.2c0.041 0 0.4 0 0.5 0c2.541 0 4.5-1.8 4.5-4.3c0-0.9-0.5-1.7-0.9-2.1 c-0.282-0.3-1.1-1-3.3-1c-0.861 0-2.3 0-3 0c-0.538 0-1.7 0-2.6 0c-0.285 0-0.4 0-0.4 0.2c-0.025 0.1 0.1 0.1 0.3 0.1 c0.247 0 0.6 0.1 0.7 0.1c0.566 0.2 0.7 0.4 0.8 1c-0.009 0.5 0 1 0 3.7c-0.009 0 0-2.7 0 0l-0.009 3.1H123.287 L123.287 14.5L123.287 14.5L123.287 14.5z M140.838 19.9c4.633 0 7.562-3.2 7.562-7.2C148.369 8.6 145.6 6 141 6 c-5.428 0-7.5 4-7.5 7c-0.009 3.1 2.1 6.9 7.3 6.9c0.038 0-5.2 0 0 0H140.838L140.838 19.9L140.838 19.9L140.838 19.9z M141.572 19c-3.389 0-5.473-2.9-5.473-6.6c0.043-4.3 2.4-5.4 4.4-5.4c2.889 0 5.2 2.4 5.2 6.3c-0.005 5.1-2.9 5.7-4.101 5.7 H141.572L141.572 19L141.572 19L141.572 19z M151.716 14.5c0 1.7-0.016 3.1-0.116 3.8c-0.027 0.5-0.1 0.9-0.5 1 c-0.16 0-0.399 0-0.6 0c-0.254 0-0.3 0.101-0.3 0.2c-0.015 0.1 0.1 0.2 0.3 0.2c0.4 0 0.8 0 1.3 0c0.408 0 0.8-0.101 1-0.101 c0.448 0 1.1 0.1 1.8 0.101c0.73 0.1 1.5 0.1 2.2 0.1c3.267 0 5.2-1.2 6-2c1-1.1 1.9-2.8 1.9-5c0.038-2.1-0.8-3.6-1.7-4.5 c-1.914-2-4.9-2-7.2-2c-1.062 0-2.3 0-2.899 0c-0.508 0-1.7 0-2.601 0c-0.258 0-0.399 0-0.399 0.2c0.002 0.1 0.1 0.1 0.3 0.1 c0.274 0 0.6 0.1 0.7 0.1c0.594 0.2 0.8 0.4 0.8 1c0.019 0.5 0 1 0 3.7c0.019 0 0-2.7 0 0L151.716 14.5L151.716 14.5 L151.716 14.5L151.716 14.5z M154.123 11.1c0-1.3-0.023-2.8-0.023-3.4c0.045-0.2 0.101-0.3 0.301-0.4 c0.111 0 0.699-0.1 1.1-0.1c1.379 0 3.3 0.2 5 1.7c0.788 0.7 1.7 2.2 1.7 4.4c-0.035 1.9-0.4 3.4-1.601 4.4 c-1.047 0.9-2.3 1.2-3.899 1.2c-1.392 0-2.101-0.4-2.3-0.7c-0.176-0.2-0.2-0.8-0.2-1.2c-0.056-0.4-0.101-1.7-0.101-3.6 c0.024 0 0 1.9 0 0L154.123 11.1L154.123 11.1L154.123 11.1L154.123 11.1z M173.675 15.2c0.081 0 0.1 0 0.2 0.1 l1.349 3.601C175.331 19.1 175.2 19.3 175.1 19.3c-0.199 0-0.199 0.101-0.199 0.2c-0.041 0.1 0.2 0.1 0.5 0.2 c1.5 0 2.8 0 3.4 0c0.712 0 0.8 0 0.8-0.2c0.015-0.1-0.1-0.2-0.199-0.2c-0.234 0-0.4 0-0.7 0c-0.331-0.1-0.8-0.3-1.5-1.9 c-1.179-2.7-4.2-9.9-4.601-10.9c-0.189-0.4-0.3-0.5-0.5-0.5c-0.22 0-0.399 0.2-0.6 0.7l-4.658 11 c-0.365 0.9-0.642 1.5-1.441 1.6c-0.209 0-0.4 0-0.601 0c-0.118 0-0.2 0.101-0.2 0.2c0.021 0.2 0.1 0.2 0.3 0.2 c0.984 0 1.899-0.101 2.1-0.101c0.6 0 1.4 0.1 2 0.101c0.213 0 0.3 0 0.3-0.2c0.015-0.1 0-0.2-0.3-0.2h-0.223 c-0.551 0-0.678-0.2-0.678-0.5c-0.035-0.2 0-0.6 0.2-1.1l0.992-2.4c0.04-0.1 0.108-0.1 0.208-0.1c-0.046 0-0.2 0 0 0H173.675 L173.675 15.2L173.675 15.2L173.675 15.2z M169.816 14.2c-0.062 0-0.116 0-0.017-0.1l1.689-4.4c0.021-0.1 0.011-0.2 0.11-0.2 c0.031 0 0.1 0.1 0.1 0.2l1.665 4.4c0.021 0.1 0 0.1-0.065 0.1H169.816L169.816 14.2L169.816 14.2L169.816 14.2 L169.816 14.2z M181.572 14.5c0 1.7 0 3.1-0.072 3.8c-0.07 0.5-0.2 0.9-0.5 1c-0.202 0-0.4 0-0.7 0 c-0.196 0-0.3 0.101-0.3 0.2c0.042 0.1 0.2 0.2 0.4 0.2c0.703 0 1.8-0.101 2.199-0.101c0.26 0 1.7 0.1 2.8 0.1 c0.216 0 0.399-0.101 0.399-0.2c-0.044-0.1-0.1-0.2-0.3-0.2c-0.191 0-0.6 0-0.8 0c-0.597-0.1-0.7-0.5-0.7-1 c-0.121-0.7-0.1-2.1-0.1-3.8l-0.041-0.2c0-0.1 0.041-0.1 0.141-0.1h1.613c0.123 0 0.2 0 0.3 0.1 c0.264 0.3 1 1.5 1.7 2.4c1.031 1.4 1.7 2.2 2.5 2.6c0.453 0.3 0.9 0.4 1.9 0.4h1.753c0.228 0 0.3 0 0.347-0.2 c0.004-0.1-0.1-0.2-0.199-0.2c-0.17 0-0.301 0-0.5 0c-0.238-0.1-0.9-0.2-1.9-1.2c-1.052-1.1-2.3-2.7-3.9-4.7 c1.746-1.4 2.5-2.6 2.5-3.9c-0.02-1.2-0.8-2.1-1.3-2.5c-0.946-0.6-2.3-0.7-3.399-0.7c-0.547 0-2.2 0-2.801 0 c-0.357 0-1.5 0-2.399 0c-0.306 0-0.4 0-0.4 0.2c-0.047 0.1 0.1 0.1 0.3 0.1c0.228 0 0.5 0.1 0.7 0.1 c0.546 0.2 0.7 0.4 0.8 1c-0.028 0.5 0 1 0 3.7c-0.028 0 0-2.7 0 0L181.572 14.5L181.572 14.5L181.572 14.5L181.572 14.5 L181.572 14.5z M183.857 7.5c0-0.1 0.043-0.2 0.143-0.2c0.205-0.1 0.6-0.1 1.1-0.1c1.045 0 2.7 0.7 2.7 3.2 c0.017 1.4-0.6 2.2-1.1 2.6c-0.353 0.2-0.601 0.3-1.3 0.3c-0.461 0-1-0.1-1.4-0.2c-0.102-0.1-0.1-0.1-0.1-0.3 c-0.043 0 0 0.2 0 0L183.857 7.5L183.857 7.5L183.857 7.5L183.857 7.5L183.857 7.5z M90.042 15.3c0-1.3-0.042-2.3 0.058-3 c-0.011-0.9 0.2-1.3 0.9-1.4c0.291-0.1 0.5-0.1 0.7-0.1c0.13 0 0.3-0.1 0.3-0.2c-0.023-0.2-0.2-0.3-0.5-0.3 c-0.822 0-2.1 0.1-2.9 0.1c-0.711 0-2.3-0.1-3.5-0.1c-0.371 0-0.5 0.1-0.5 0.3c-0.045 0.1 0.1 0.2 0.3 0.2 c0.365 0 0.8 0 1 0.1c0.787 0.1 1 0.5 1 1.4C86.954 13 87 14 87 15.2l-0.046 2.4c0 0.4-0.054 0.7-0.454 0.9 c-0.602 0.3-1.5 0.3-2.1 0.3c-5.161 0-8.5-4-8.5-9.4c-0.014-3.1 0.899-5 2.199-6.2c1.754-1.4 3.5-1.5 4.9-1.5 c2.756 0 4.7 1.2 5.5 1.9c0.587 0.7 0.7 1.6 0.8 2.1c0.007 0.2 0.1 0.4 0.2 0.4c0.223 0 0.3-0.2 0.3-0.6 C89.797 2.4 90 1.7 90 1.4c-0.031-0.2-0.1-0.3-0.4-0.3c-0.537 0-1.399-0.2-1.899-0.3c-0.499-0.1-2.7-0.4-4.3-0.4 c-2.104 0-4.301 0.2-6.601 1.7c-2.262 1.4-4.3 4.2-4.3 8.2c0.004 6.9 5.3 9.8 11.3 9.8c1.927 0 4.3-0.3 5.9-1.199 C90.012 18.8 90 18.7 90 18c0.035 0 0 0.7 0 0L90.042 15.3L90.042 15.3L90.042 15.3L90.042 15.3z M197.512 16.5 c0 0.3-0.012 1.1-0.111 1.8c0.01 0.5-0.101 0.9-0.5 1c-0.164 0-0.4 0-0.601 0c-0.237 0-0.3 0.101-0.3 0.2 c-0.02 0.2 0.1 0.2 0.4 0.2c0.642 0 1.8-0.101 2.3-0.101c0.485 0 1.7 0.1 2.8 0.101c0.254 0 0.4-0.101 0.4-0.2 s-0.101-0.2-0.301-0.2c-0.25 0-0.6 0-0.899 0c-0.535-0.1-0.7-0.5-0.7-1c-0.08-0.7-0.1-1.5-0.1-1.8l0.02-1.4 c0-0.6-0.02-1.1 0.18-1.7c0.371-0.8 2.9-5 3.5-5.7c0.424-0.5 0.601-0.7 1-0.8c0.239-0.2 0.601-0.3 0.7-0.3 c0.253 0 0.4 0 0.4-0.2c-0.004-0.1-0.101-0.1-0.3-0.1c-0.379 0-1.601 0-1.9 0c-0.58 0-1.2 0-1.8 0c-0.208 0-0.3 0-0.3 0.2 c-0.012 0.1 0.2 0.1 0.3 0.2c0.321 0 0.4 0.2 0.4 0.4c0.004 0.2-0.1 0.5-0.3 0.9c-0.229 0.5-2.399 4.3-2.6 4.8 c-0.347-0.5-2.7-4.7-3-5.2C196.039 7.3 196 7.1 196 7c-0.043-0.2 0.1-0.3 0.2-0.3c0.288-0.1 0.399-0.1 0.399-0.2 c0.012-0.2-0.1-0.2-0.3-0.2c-0.772 0-1.6 0-2 0c-0.59 0-1.899 0-2.2 0c-0.268 0-0.399 0-0.399 0.2c0.01 0.1 0.1 0.1 0.3 0.1 c0.202 0 0.5 0.2 0.7 0.3c0.38 0.2 0.7 0.6 1.2 1.2c0.627 1 3.1 4.9 3.2 5.1c0.241 0.6 0.4 0.9 0.4 1.9c0.005 0 0-1 0 0 l0.005 1.4H197.512L197.512 16.5L197.512 16.5L197.512 16.5L197.512 16.5z M209.961 11.4c0-2.7 0.039-3.2 0.039-3.7 c0.021-0.7 0.2-0.9 0.7-1c0.182 0 0.3-0.1 0.5-0.1c0.112 0 0.2 0 0.2-0.1c0.012-0.2-0.101-0.2-0.4-0.2c-0.57 0-1.9 0-2.3 0 c-0.414 0-1.601 0-2.5 0c-0.261 0-0.4 0-0.4 0.2c-0.003 0.1 0.1 0.1 0.3 0.1c0.271 0 0.6 0.1 0.7 0.1 c0.589 0.2 0.8 0.4 0.8 1c0.014 0.5 0 1 0 3.7l0.014 3.1c0 1.7-0.014 3.1-0.113 3.8c-0.029 0.5-0.1 0.9-0.5 1 c-0.161 0-0.4 0-0.6 0c-0.256 0-0.301 0.101-0.301 0.2c-0.017 0.1 0.1 0.2 0.3 0.2c0.744 0 1.899-0.101 2.3-0.101 c0.444 0 1.7 0.1 2.7 0.101c0.233 0 0.399-0.101 0.399-0.2c-0.022-0.1-0.1-0.2-0.3-0.2c-0.191 0-0.6 0-0.8 0 c-0.492-0.1-0.7-0.5-0.7-1c-0.036-0.7 0-2.1 0-3.8l-0.036-1.6h0.081l0.186 0.3c0.389 0.5 3.9 4.6 4.6 5.3 c0.817 0.7 1.4 1.1 2.4 1.2c0.358 0 0.7 0 1.2 0h1.582c0.326 0 0.418-0.101 0.418-0.2c0.012-0.1-0.101-0.2-0.2-0.2 c-0.236 0-0.601 0-1.101-0.2c-0.994-0.399-1.699-1.2-2.5-1.899c-0.677-0.7-4.199-4.4-4.8-5.3c0.513-0.6 3.2-3.2 3.8-3.7 c0.713-0.8 1.301-1.1 1.9-1.3c0.277-0.2 0.7-0.3 1-0.3c0.157 0 0.3 0 0.3-0.1c-0.04-0.2-0.2-0.2-0.3-0.2c-0.6 0-1.6 0-2.2 0 c-0.44 0-1.399 0-1.8 0c-0.191 0-0.3 0-0.3 0.2c0.007 0.1 0.1 0.1 0.3 0.1c0.115 0.1 0.2 0.2 0.2 0.4 c-0.003 0.3-0.4 0.7-0.9 1.3c-0.528 0.6-3.1 3.2-3.8 3.9h-0.037L209.961 11.4L209.961 11.4L209.961 11.4L209.961 11.4z"/></g></g><g><g><path fill="#181818" d="M31.3 30.1h1.1l-2.7 3l3.4 3.4h-1.2l-3.2-3.2v3.2h-0.9v-6.4h0.9V33L31.3 30.1L31.3 30.1L31.3 30.1 L31.3 30.1z"/></g><g><path fill="#181818" d="M36.8 30h0.6l2.8 6.5h-0.9l-0.8-1.9h-2.7L35 36.5h-0.9L36.8 30L36.8 30L36.8 30L36.8 30z M38.1 33.8 l-1-2.399L36.2 33.8H38.1L38.1 33.8L38.1 33.8L38.1 33.8z"/></g><g><path fill="#181818" d="M46.9 30.1h0.9v6.4H47l-4.2-5v5H42v-6.4h0.7l4.2 4.9V30.1L46.9 30.1L46.9 30.1L46.9 30.1z"/></g><g><path fill="#181818" d="M55.5 35v1c-0.6 0.4-1.3 0.5-2.2 0.5c-0.8 0-1.3-0.1-1.8-0.4C51 35.8 50.6 35.4 50.4 34.9 c-0.4-0.5-0.5-1-0.5-1.601c0-0.899 0.4-1.7 1-2.399c0.6-0.601 1.5-0.9 2.4-0.9c0.6 0 1.4 0.2 2.2 0.5v1 c-0.8-0.4-1.4-0.6-2.1-0.6c-0.8 0-1.4 0.199-1.8 0.699c-0.6 0.4-0.7 1-0.7 1.7c-0.1 0.7 0.2 1.3 0.7 1.7 c0.4 0.5 1 0.7 1.8 0.7c0.7 0 1.4-0.2 2.2-0.7c-0.1 0-0.8 0.5 0 0H55.5L55.5 35L55.5 35L55.5 35z"/></g><g><path fill="#181818" d="M57.6 30.1h3.6V30.9h-2.7V32.8h2.6v0.9h-2.6V35.6h2.8v0.9h-3.7V30.1L57.6 30.1L57.6 30.1L57.6 30.1 L57.6 30.1z"/></g><g><path fill="#181818" d="M63.3 30.1h0.9v5.5H67v0.9h-3.7V30.1L63.3 30.1L63.3 30.1L63.3 30.1z"/></g><g><path fill="#181818" d="M70.8 30h0.6l2.8 6.5h-0.9l-0.8-1.9h-2.7L69 36.5h-0.9L70.8 30L70.8 30L70.8 30L70.8 30z M72.1 33.8 l-1-2.399l-1 2.399H72.1L72.1 33.8L72.1 33.8L72.1 33.8z"/></g><g><path fill="#181818" d="M76 36.5v-6.4h1.5c0.7 0 1.2 0.1 1.6 0.5c0.301 0.3 0.5 0.7 0.5 1.3 c0 0.3-0.1 0.699-0.199 0.899C79.1 33.1 78.9 33.3 78.6 33.4C78.7 33.6 79 33.7 79.2 34c0.1 0.2 0.4 0.6 0.8 1.2 c0.1 0.4 0.4 0.6 0.5 0.8l0.3 0.5h-1.1l-0.3-0.4c0-0.1 0.1-0.1 0-0.1l-0.2-0.3l-0.3-0.4L78.6 34.8 c-0.199-0.3-0.3-0.5-0.399-0.7C78 34 77.9 33.9 77.8 33.8c-0.2-0.1-0.399-0.1-0.7-0.1h-0.3v2.8H76L76 36.5L76 36.5L76 36.5 L76 36.5z M77.1 30.9h-0.3v2h0.4c0.399 0 0.8-0.101 1-0.101c0.1-0.1 0.3-0.2 0.399-0.399c0-0.2 0.101-0.301 0.101-0.601 c0-0.2 0-0.3-0.101-0.5C78.4 31.1 78.3 31 78.1 31c-0.199-0.1-0.5-0.1-0.899-0.1H77.1L77.1 30.9L77.1 30.9L77.1 30.9z"/></g><g><path fill="#181818" d="M82.5 30.1h0.9v6.4h-0.9V30.1L82.5 30.1L82.5 30.1L82.5 30.1z"/></g><g><path fill="#181818" d="M87.8 30H88.4l2.8 6.5h-0.9l-0.8-1.9h-2.7L86 36.5h-0.9L87.8 30L87.8 30L87.8 30L87.8 30z M89.1 33.8 l-1-2.399L87.2 33.8H89.1L89.1 33.8L89.1 33.8L89.1 33.8z"/></g><g><path fill="#181818" d="M96.5 36.5v-6.4h1.6c0.7 0 1.2 0.1 1.6 0.5c0.3 0.3 0.5 0.7 0.5 1.3 c0 0.3-0.101 0.699-0.2 0.899c-0.3 0.3-0.5 0.5-0.8 0.601c0.1 0.2 0.4 0.3 0.6 0.6c0.101 0.2 0.4 0.6 0.8 1.2 c0.101 0.4 0.4 0.6 0.5 0.8l0.301 0.5H100.3l-0.3-0.4c0-0.1 0.1-0.1 0-0.1l-0.2-0.3l-0.3-0.4l-0.3-0.5 c-0.2-0.3-0.3-0.5-0.4-0.7C98.6 34 98.5 33.9 98.4 33.8c-0.2-0.1-0.4-0.1-0.7-0.1h-0.3v2.8H96.5L96.5 36.5L96.5 36.5 L96.5 36.5L96.5 36.5z M97.7 30.9h-0.3v2H97.8c0.4 0 0.8-0.101 1-0.101c0.101-0.1 0.3-0.2 0.4-0.399 c0-0.2 0.1-0.301 0.1-0.601c0-0.2 0-0.3-0.1-0.5C99 31.1 98.9 31 98.7 31c-0.2-0.1-0.5-0.1-0.9-0.1H97.7L97.7 30.9L97.7 30.9 L97.7 30.9z"/></g><g><path fill="#181818" d="M105.1 30h0.601l2.8 6.5h-0.9l-0.8-1.9h-2.7l-0.8 1.9H102.4L105.1 30L105.1 30L105.1 30L105.1 30z M106.4 33.8l-1-2.399l-0.9 2.399H106.4L106.4 33.8L106.4 33.8L106.4 33.8z"/></g><g><path fill="#181818" d="M110.2 36.5v-6.4h2.2c0.8 0 1.5 0.1 2 0.4c0.5 0.2 0.9 0.6 1.2 1.1c0.301 0.5 0.4 1.1 0.4 1.7 c0 0.4 0 0.8-0.2 1.2s-0.399 0.7-0.7 1c-0.3 0.3-0.6 0.6-1 0.7c-0.3 0.1-0.5 0.2-0.699 0.2c-0.2 0-0.601 0.1-1.101 0.1H110.2 L110.2 36.5L110.2 36.5L110.2 36.5L110.2 36.5z M112.3 30.9h-1.2v4.8h1.2c0.4 0 0.8-0.101 1.101-0.101 c0.199-0.1 0.399-0.199 0.6-0.3c0.1-0.1 0.3-0.2 0.5-0.3c0.4-0.5 0.6-1.1 0.6-1.8S114.9 32 114.4 31.5 c-0.2-0.1-0.301-0.2-0.5-0.4c-0.301-0.1-0.5-0.1-0.7-0.199C113 30.9 112.7 30.9 112.3 30.9L112.3 30.9L112.3 30.9L112.3 30.9 L112.3 30.9z"/></g><g><path fill="#181818" d="M123.5 35v1c-0.6 0.4-1.3 0.5-2.2 0.5c-0.7 0-1.3-0.1-1.8-0.4c-0.5-0.3-0.8-0.699-1.1-1.199 c-0.4-0.5-0.5-1-0.5-1.601c0-0.899 0.399-1.7 1-2.399c0.6-0.601 1.5-0.9 2.399-0.9c0.601 0 1.4 0.2 2.2 0.5v1 c-0.8-0.4-1.4-0.6-2.1-0.6c-0.801 0-1.301 0.199-1.801 0.699c-0.5 0.4-0.699 1-0.699 1.7C118.8 34 119.1 34.6 119.6 35 c0.4 0.5 1 0.7 1.8 0.7c0.699 0 1.5-0.2 2.199-0.7c-0.1 0-0.699 0.5 0 0H123.5L123.5 35L123.5 35L123.5 35z"/></g><g><path fill="#181818" d="M129.4 30.1h1.1l-2.3 3v3.4h-0.9v-3.4l-2.3-3h1.1l1.601 2.2L129.4 30.1L129.4 30.1L129.4 30.1 L129.4 30.1z"/></g><g><path fill="#181818" d="M135.7 36.5v-6.4h2c0.6 0 1.2 0.1 1.5 0.5c0.3 0.3 0.6 0.7 0.6 1.301c-0.1 0.399-0.1 0.699-0.3 1 c-0.3 0.3-0.5 0.5-0.8 0.6s-0.7 0.2-1.3 0.2h-0.7v2.8h-0.9H135.7L135.7 36.5L135.7 36.5L135.7 36.5z M137.6 30.9H136.7v2 h0.899c0.4 0 0.7-0.101 0.9-0.301c0.2-0.199 0.3-0.399 0.3-0.699C138.8 31.2 138.4 30.9 137.6 30.9L137.6 30.9L137.6 30.9 L137.6 30.9L137.6 30.9z"/></g><g><path fill="#181818" d="M141.5 36.5v-6.4h1.6c0.601 0 1.2 0.1 1.6 0.5c0.3 0.3 0.5 0.7 0.5 1.3 c0 0.3-0.101 0.699-0.3 0.899c-0.2 0.3-0.4 0.5-0.7 0.601c0.1 0.2 0.4 0.3 0.5 0.6c0.2 0.2 0.5 0.6 0.9 1.2 c0.101 0.4 0.3 0.6 0.5 0.8l0.301 0.5H145.3l-0.3-0.4c0-0.1 0-0.1 0-0.1l-0.2-0.3l-0.3-0.4l-0.3-0.5 c-0.2-0.3-0.3-0.5-0.4-0.7c-0.3-0.1-0.3-0.199-0.5-0.3c-0.1-0.1-0.3-0.1-0.6-0.1h-0.3v2.8H141.5L141.5 36.5L141.5 36.5 L141.5 36.5L141.5 36.5L141.5 36.5L141.5 36.5z M142.7 30.9h-0.3v2h0.399c0.4 0 0.8-0.101 0.9-0.101 c0.2-0.1 0.399-0.2 0.399-0.399c0.101-0.2 0.2-0.301 0.2-0.601c-0.1-0.2-0.1-0.3-0.2-0.5C144 31.1 143.9 31 143.7 31 C143.4 30.9 143.2 30.9 142.7 30.9L142.7 30.9L142.7 30.9L142.7 30.9L142.7 30.9z"/></g><g><path fill="#181818" d="M150.1 30h0.601l2.8 6.5h-0.9l-0.8-1.9h-2.7l-0.8 1.9H147.4L150.1 30L150.1 30L150.1 30L150.1 30z M151.4 33.8l-1-2.399l-1 2.399H151.4L151.4 33.8L151.4 33.8L151.4 33.8z"/></g><g><path fill="#181818" d="M162.5 30.1h0.9l-2.601 6.4h-0.2l-2-5.2l-2.1 5.2h-0.2l-2.5-6.4h0.9l1.7 4.4l1.8-4.4h0.8l1.8 4.4 L162.5 30.1L162.5 30.1L162.5 30.1L162.5 30.1z"/></g><g><path fill="#181818" d="M170 30.1h0.9v6.4H170.1l-4.199-5v5H165.1v-6.4h0.7L170 35V30.1L170 30.1L170 30.1L170 30.1L170 30.1 L170 30.1z"/></g><g><path fill="#181818" d="M173.3 30.1h3.5V30.9h-2.6V32.8h2.5v0.9h-2.5V35.6h2.7v0.9H173.3V30.1L173.3 30.1L173.3 30.1 L173.3 30.1z"/></g><g><path fill="#181818" d="M182.3 33.3h2.101V36c-0.801 0.4-1.5 0.5-2.301 0.5c-1.1 0-1.899-0.3-2.5-0.9 C179 35 178.7 34.2 178.7 33.3c-0.101-0.899 0.3-1.7 1-2.399C180.3 30.3 181.1 30 182.1 30c0.301 0 0.7 0 1 0.1 c0.2 0.1 0.7 0.2 1.2 0.4l-0.1 1c-0.7-0.5-1.4-0.7-2.101-0.7c-0.8 0-1.3 0.2-1.8 0.7s-0.7 1.1-0.7 1.8s0.301 1.3 0.7 1.8 c0.4 0.4 1.1 0.7 1.8 0.7c0.301 0 0.801-0.1 1.301-0.3h0.1v-1.4h-1.2V33.3L182.3 33.3L182.3 33.3L182.3 33.3z"/></g><g><path fill="#181818" d="M189.8 30c0.9 0 1.8 0.3 2.4 0.9c0.6 0.6 1 1.4 1 2.399c-0.101 0.9-0.3 1.7-1 2.3 c-0.7 0.601-1.5 0.9-2.4 0.9c-1 0-1.8-0.3-2.399-0.9c-0.7-0.6-0.9-1.399-0.9-2.3c-0.1-1 0.3-1.8 0.9-2.399 C188 30.3 188.8 30 189.8 30C189.8 30 188.8 30 189.8 30L189.8 30L189.8 30L189.8 30L189.8 30z M189.8 30.9 c-0.7 0-1.3 0.199-1.7 0.6c-0.5 0.5-0.699 1.1-0.699 1.8C187.3 34 187.6 34.6 188.1 35c0.4 0.5 1 0.7 1.7 0.7s1.3-0.2 1.8-0.7 c0.4-0.5 0.7-1 0.7-1.7c-0.1-0.7-0.3-1.3-0.7-1.7C191 31.1 190.5 30.9 189.8 30.9L189.8 30.9L189.8 30.9L189.8 30.9 L189.8 30.9z"/></g></g><g><rect x="19.7" y="25.7" fill="#424242" width="181.6" height="0.2"/></g></g><path fill="#0D5955" d="M61.225 3.125H61.2V3h-61v31h61v-0.125h0.025V3.125z M40.776 11.119c2.198-1.332 4.202-1.435 6.15-1.435 c1.506 0 3.5 0.2 3.9 0.308c0.52 0.1 1.3 0.2 1.8 0.308c0.253 0 0.3 0.1 0.3 0.2 c-0.01 0.308-0.205 0.922-0.205 3.689c0.038 0.4 0 0.513-0.206 0.513c-0.163 0-0.205-0.103-0.205-0.308 c-0.094-0.513-0.205-1.229-0.82-1.845c-0.648-0.718-2.46-1.742-5.022-1.742c-1.219 0-2.87 0.103-4.407 1.3 c-1.299 1.128-2.152 2.768-2.152 5.535c0.042 4.9 3.2 8.5 7.9 8.508c0.583 0 1.3 0 1.947-0.205 c0.304-0.205 0.41-0.513 0.41-0.922l-0.016-2.05c0-1.129 0.016-2.051 0.016-2.666c-0.061-0.819-0.308-1.127-1.025-1.332 c-0.163 0-0.512 0-0.82 0c-0.245 0-0.41-0.103-0.41-0.206c0.03-0.204 0.205-0.204 0.513-0.204c1.164 0 2.6 0 3.3 0 c0.68 0 1.8 0 2.7 0c0.247 0 0.4 0 0.4 0.204c-0.005 0.104-0.103 0.206-0.307 0.206c-0.176 0-0.313 0-0.615 0 c-0.594 0.102-0.82 0.513-0.82 1.332c-0.044 0.6 0 1.5 0 2.666l-0.044 2.459c0 0.615-0.058 0.718-0.263 0.8 c-1.496 0.82-3.69 1.024-5.433 1.024c-5.557 0-10.455-2.562-10.455-8.814C36.886 14.9 38.7 12.3 40.8 11.119z M0.7 3.5 h29.775v30H0.7V3.5z"/><g><g><path fill="#D8D8D8" d="M14.8 11.5c-0.5 0-0.9 0-1.1 0.1c-0.2 0-0.2 0.1-0.2 0.3v6.7c0 0.2 0 0.3 0.2 0.3 c0.4 0.2 1.1 0.3 1.6 0.3c0.9 0 1.2-0.101 1.6-0.4c0.6-0.5 1.3-1.5 1.3-3.3C18.2 12.4 16.1 11.5 14.8 11.5L14.8 11.5L14.8 11.5 L14.8 11.5z"/></g><g><path fill="#D8D8D8" d="M0.8 3.5v30h30v-30H0.8L0.8 3.5L0.8 3.5L0.8 3.5z M25.6 27.1h-2.1c-1.2 0-1.8-0.1-2.4-0.5 c-0.9-0.5-1.7-1.5-3-3.199c-0.9-1.2-1.9-2.7-2.2-3c-0.1-0.2-0.2-0.2-0.4-0.2h-1.9c-0.1 0-0.1 0-0.1 0.2v0.3c0 2 0 3.7 0.1 4.7 c0 0.6 0.2 1.1 0.8 1.199c0.4 0 0.8 0.1 1.1 0.101c0.2 0 0.3 0 0.3 0.1c0 0.2-0.2 0.3-0.5 0.3c-1.3 0-2.9-0.1-3.2-0.1 c-0.4 0-1.8 0.1-2.7 0.1C9.1 27.1 9 27 9 26.8c0-0.1 0.1-0.1 0.3-0.1c0.3 0 0.6-0.101 0.8-0.101c0.5-0.1 0.6-0.6 0.6-1.199 c0.2-1 0.2-2.7 0.2-4.7v-3.9v-0.6c0-2.8 0-3.4-0.1-4.1c0-0.7-0.2-1.1-0.9-1.2c-0.2-0.1-0.6-0.1-0.9-0.1c-0.2 0-0.4 0-0.4-0.2 c0-0.1 0.2-0.2 0.5-0.2c1.2 0 2.6 0.1 3 0.1c0.8 0 2.5-0.1 3.1-0.1c1.4 0 2.9 0.2 4.1 1c0.6 0.4 1.5 1.5 1.5 3 c0 1.6-0.7 3.1-2.9 4.9c1.9 2.5 3.5 4.4 4.7 5.8c1.3 1.3 2.2 1.4 2.5 1.5c0.3 0 0.5 0.1 0.6 0.101c0.2 0 0.3 0 0.3 0.1 C26 27 25.8 27.1 25.6 27.1L25.6 27.1L25.6 27.1L25.6 27.1z"/></g><g><path fill="#0D5955" d="M25.7 26.7c-0.1 0-0.3-0.101-0.6-0.101c-0.3-0.1-1.2-0.199-2.5-1.5c-1.2-1.399-2.8-3.3-4.7-5.8 c2.2-1.8 2.9-3.3 2.9-4.9c0-1.5-0.9-2.6-1.5-3c-1.2-0.8-2.7-1-4.1-1c-0.6 0-2.3 0.1-3.1 0.1c-0.4 0-1.8-0.1-3-0.1 c-0.3 0-0.5 0.1-0.5 0.2c0 0.2 0.2 0.2 0.4 0.2c0.3 0 0.7 0.1 0.9 0.1c0.7 0.2 0.9 0.5 0.9 1.3c0.1 0.6 0.1 1.2 0.1 4v-0.9 c0 0 0 0.5 0 0.9v0.6v3.9c0 2 0 3.7-0.2 4.7c0 0.6-0.1 1.1-0.6 1.199c-0.2 0-0.5 0.101-0.8 0.101c-0.2 0-0.3 0-0.3 0.1 c0 0.2 0.1 0.3 0.4 0.3c0.9 0 2.3-0.1 2.7-0.1c0.3 0 1.9 0.1 3.2 0.1c0.3 0 0.5-0.1 0.5-0.3c0-0.1-0.1-0.1-0.3-0.1 c-0.3 0-0.7-0.101-1.1-0.101c-0.6-0.1-0.8-0.6-0.8-1.199c-0.1-1-0.1-2.7-0.1-4.7v-0.3c0-0.2 0-0.2 0.1-0.2h1.9 c0.2 0 0.3 0 0.4 0.2c0.3 0.3 1.3 1.8 2.2 3c1.3 1.7 2.1 2.7 3 3.199c0.6 0.4 1.2 0.5 2.4 0.5h2.1c0.2 0 0.4-0.1 0.4-0.3 C26 26.7 25.9 26.7 25.7 26.7L25.7 26.7L25.7 26.7L25.7 26.7z M16.9 18.8c-0.4 0.3-0.7 0.4-1.6 0.4c-0.5 0-1.2-0.101-1.6-0.3 c-0.2 0-0.2-0.1-0.2-0.3v0.1v-0.1v-6.7c0-0.2 0-0.3 0.2-0.3c0.2-0.1 0.6-0.1 1.1-0.1c1.3 0 3.4 0.9 3.4 4 C18.2 17.3 17.5 18.3 16.9 18.8C16.9 18.8 17.5 18.3 16.9 18.8L16.9 18.8L16.9 18.8z"/></g></g></g></g></g></svg>