<?xml version="1.0" encoding="utf-8"?>
<!-- Generated by IcoMoon.io -->
<!DOCTYPE svg PUBLIC "-//W3C//DTD SVG 1.1//EN" "http://www.w3.org/Graphics/SVG/1.1/DTD/svg11.dtd">
<svg version="1.1" xmlns="http://www.w3.org/2000/svg" xmlns:xlink="http://www.w3.org/1999/xlink" width="32" height="32" viewBox="0 0 32 32">
<g>
</g>
	<path d="M29.091 27.636h-26.182c-1.606 0-2.909-1.303-2.909-2.909v-17.455c0-1.606 1.303-2.909 2.909-2.909h26.182c1.606 0 2.909 1.303 2.909 2.909v17.455c0 1.606-1.303 2.909-2.909 2.909zM27.636 24.727l-8.337-7.296-3.299 2.932-3.299-2.932-8.337 7.296h23.273zM2.909 23.273l8.182-7.273-8.182-7.273v14.545zM4.364 7.273l11.636 10.182 11.636-10.182h-23.273zM29.091 8.727l-8.182 7.273 8.182 7.273v-14.545z" fill="#000000" />
</svg>
