<?xml version="1.0" encoding="UTF-8" standalone="no"?>
<svg width="25px" height="23px" viewBox="0 0 25 23" version="1.1" xmlns="http://www.w3.org/2000/svg" xmlns:xlink="http://www.w3.org/1999/xlink" xmlns:sketch="http://www.bohemiancoding.com/sketch/ns">
    <!-- Generator: Sketch 3.0 (7574) - http://www.bohemiancoding.com/sketch -->
    <title>Slice 1</title>
    <description>Created with Sketch.</description>
    <defs></defs>
    <g id="Page-1" stroke="none" stroke-width="1" fill="none" fill-rule="evenodd" sketch:type="MSPage">
        <g id="icon-angle-double-down-link" sketch:type="MSLayerGroup" fill="#FF3878">
            <g id="icon-angle-double-down" sketch:type="MSShapeGroup">
                <path d="M24.2613333,11.4039412 C24.2613333,11.6131961 24.1817778,11.798549 24.0226667,11.96 L12.928,23.2178235 C12.7688889,23.3792745 12.5862222,23.46 12.38,23.46 C12.1737778,23.46 11.9911111,23.3792745 11.832,23.2178235 L0.737333333,11.96 C0.578222222,11.798549 0.498666667,11.6131961 0.498666667,11.4039412 C0.498666667,11.1946863 0.578222222,11.0093333 0.737333333,10.8478824 L1.928,9.63970588 C2.08711111,9.4782549 2.26977778,9.39752941 2.476,9.39752941 C2.68222222,9.39752941 2.86488889,9.4782549 3.024,9.63970588 L12.3813333,19.1346471 L21.7386667,9.63970588 C21.8977778,9.4782549 22.0804444,9.39752941 22.2866667,9.39752941 C22.4928889,9.39752941 22.6755556,9.4782549 22.8346667,9.63970588 L24.0253333,10.8478824 C24.1844444,11.0093333 24.264,11.1946863 24.264,11.4039412 L24.2613333,11.4039412 Z M24.2613333,2.12547059 C24.2613333,2.33472549 24.1817778,2.52007843 24.0226667,2.68152941 L12.928,13.9393529 C12.7688889,14.1008039 12.5862222,14.1815294 12.38,14.1815294 C12.1737778,14.1815294 11.9911111,14.1008039 11.832,13.9393529 L0.737333333,2.68152941 C0.578222222,2.52007843 0.498666667,2.33472549 0.498666667,2.12547059 C0.498666667,1.91621569 0.578222222,1.73086275 0.737333333,1.56941176 L1.928,0.361235294 C2.08711111,0.199784314 2.26977778,0.119058824 2.476,0.119058824 C2.68222222,0.119058824 2.86488889,0.199784314 3.024,0.361235294 L12.3813333,9.85617647 L21.7386667,0.361235294 C21.8977778,0.199784314 22.0804444,0.119058824 22.2866667,0.119058824 C22.4928889,0.119058824 22.6755556,0.199784314 22.8346667,0.361235294 L24.0253333,1.56941176 C24.1844444,1.73086275 24.264,1.91621569 24.264,2.12547059 L24.2613333,2.12547059 Z" id="Shape"></path>
            </g>
        </g>
    </g>
</svg>