<?xml version="1.0" encoding="UTF-8" standalone="no"?>
<svg width="50px" height="50px" viewBox="0 0 50 50" version="1.1" xmlns="http://www.w3.org/2000/svg" xmlns:xlink="http://www.w3.org/1999/xlink" xmlns:sketch="http://www.bohemiancoding.com/sketch/ns">
    <!-- Generator: Sketch 3.0 (7574) - http://www.bohemiancoding.com/sketch -->
    <title>Slice 1</title>
    <description>Created with Sketch.</description>
    <defs></defs>
    <g id="Page-1" stroke="none" stroke-width="1" fill="none" fill-rule="evenodd" sketch:type="MSPage">
        <g id="logo-dearty-2" sketch:type="MSLayerGroup">
            <g id="Page-1" sketch:type="MSShapeGroup">
                <g id="logo-dearty">
                    <g id="Group" transform="translate(-0.105634, -0.127119)">
                        <rect id="Rectangle-53" fill="#1A1E3D" transform="translate(25.061543, 24.993682) rotate(45.000000) translate(-25.061543, -24.993682) " x="7.42265442" y="7.2159043" width="35.26806" height="35.5004931"></rect>
                        <path d="M24.2288278,11.8992493 C24.2161517,12.0262279 24.2049069,12.1389034 24.1956043,12.1874721 C19.8484325,12.2819343 17.0060314,14.532254 15.4720241,16.3195238 C13.4857678,18.6338472 12.4488869,21.6551964 12.4488869,24.7885008 C12.4488869,28.2834986 13.4742163,31.5172333 15.7071445,33.8939142 C18.0230804,36.3589861 21.4995911,37.7234397 25.1247387,37.7357878 L25.208871,37.7359936 C29.0423558,37.7359936 32.2703544,36.4075547 34.5444797,33.8942231 C36.6445139,31.5734167 37.8009994,28.3395789 37.8009994,24.7885008 L37.8009994,0.564096253 C37.6807814,0.562964353 37.6113697,0.562655653 37.5425717,0.562655653 C29.6852567,0.562655653 24.9569855,4.58872025 24.2288278,11.8992493 L24.2288278,11.8992493 L24.2288278,11.8992493 Z" id="Shape" fill="#1A1E3D"></path>
                        <path d="M36.1142661,25.7660506 L25.8916402,25.7660506 L25.8916402,36.0560486 C31.5374944,36.0560486 36.1142661,31.4491136 36.1142661,25.7660506 L36.1142661,25.7660506 L36.1142661,25.7660506 Z M24.3582463,24.2225509 L24.3582463,13.9325529 C18.7123921,13.9325529 14.1356202,18.5394879 14.1356202,24.2225509 L24.3582463,24.2225509 L24.3582463,24.2225509 Z M25.8916402,12.3890532 L36.1142661,12.3890532 L36.1142661,2.09905524 C30.4684122,2.09905524 25.8916402,6.70599025 25.8916402,12.3890532 L25.8916402,12.3890532 L25.8916402,12.3890532 Z M25.8333333,13.8888889 L25.8333333,24.1788869 L36.0559594,24.1788869 L36.0559594,13.8888889 L25.8333333,13.8888889 L25.8333333,13.8888889 Z" id="Shape" fill="#FFFFFF"></path>
                        <path d="M14.1356202,25.7660506 C14.1356202,31.4491136 18.7123921,36.0560486 24.3582462,36.0560486 L24.3582462,25.7660506 L14.1356202,25.7660506 L14.1356202,25.7660506 Z" id="Shape" fill="#F38433"></path>
                    </g>
                </g>
            </g>
        </g>
    </g>
</svg>