<?xml version="1.0" encoding="UTF-8" standalone="no"?>
<svg width="226px" height="230px" viewBox="0 0 226 230" version="1.1" xmlns="http://www.w3.org/2000/svg" xmlns:xlink="http://www.w3.org/1999/xlink" xmlns:sketch="http://www.bohemiancoding.com/sketch/ns">
    <!-- Generator: Sketch 3.0 (7574) - http://www.bohemiancoding.com/sketch -->
    <title>ikony-sketch</title>
    <description>Created with Sketch.</description>
    <defs></defs>
    <g id="Page-1" stroke="none" stroke-width="1" fill="none" fill-rule="evenodd" sketch:type="MSPage">
        <g id="icon-strony3" sketch:type="MSLayerGroup" transform="translate(0.000000, 1.000000)">
            <g id="Oval-7" transform="translate(0.000000, 30.000000)" sketch:type="MSShapeGroup">
                <path d="M99.552,196 C152.876,196 196.104,152.736 196.104,99.367 C196.104,45.998 152.876,2.734 99.552,2.734 C46.228,2.734 3,45.998 3,99.367 C3,152.736 46.228,196 99.552,196 L99.552,196 Z" id="Shape" fill="#491332"></path>
                <path d="M99.552,198.5 C44.935,198.5 0.5,154.029 0.5,99.367 C0.5,44.705 44.935,0.234 99.552,0.234 C154.169,0.234 198.604,44.705 198.604,99.367 C198.604,154.029 154.169,198.5 99.552,198.5 L99.552,198.5 Z M99.552,5.234 C47.692,5.234 5.5,47.462 5.5,99.367 C5.5,151.272 47.691,193.5 99.552,193.5 C151.413,193.5 193.604,151.272 193.604,99.367 C193.604,47.462 151.412,5.234 99.552,5.234 L99.552,5.234 Z" id="Shape" fill="#F72C8C"></path>
            </g>
            <path d="M54.75,90 C46.6043125,90 40,96.656 40,104.857143 L40,153.142857 C40,161.347714 46.6043125,168 54.75,168 L143.25,168 C151.395688,168 158,161.347714 158,153.142857 L158,104.857143 C158,96.656 151.395688,90 143.25,90 L54.75,90 Z M47,110 L74,130 L47,150 L47,110 L47,110 Z M149,153.634921 C149,157.700444 145.728714,161 141.714286,161 L54.2857143,161 C50.2676429,161 47,157.700444 47,153.634921 L75.5308571,132 L91.4428571,144.067683 C93.3845,145.533333 95.6904286,146.277206 98,146.277206 C100.305929,146.277206 102.611857,145.537016 104.5535,144.067683 L120.469143,132 L149,153.634921 L149,153.634921 Z M152,150 L125,130 L152,110 L152,150 L152,150 Z M102.367786,140.50025 C101.096429,141.482586 99.5882857,142 98,142 C96.4117143,142 94.8999286,141.478837 93.6285714,140.50025 L47,104.49875 C47,100.363189 50.2676429,97 54.2857143,97 L141.714286,97 C145.728714,97 149,100.363189 149,104.49875 L102.367786,140.50025 L102.367786,140.50025 Z" id="Shape-7" fill="#FFFFFF" sketch:type="MSShapeGroup"></path>
            <g id="Group" transform="translate(123.931034, 0.000000)" sketch:type="MSShapeGroup">
                <path d="M79.827,30.638 C78.434,9.549 61.668,20.914 61.668,20.914 C77.598,22.612 79.827,30.638 79.827,30.638 L79.827,30.638 Z" id="Shape" fill="#F72C8C"></path>
                <path d="M85.851,21.858 C83.531,25.597 81.072,28.985 79.821,30.667 C81.079,40.86 73.583,69.185 73.583,69.185 C73.583,69.185 49.388,72.113 36.819,93.437 C36.819,93.437 35.257,93.701 33.263,93.408 L51.5,59.577 C53.107,59.665 54.812,59.372 56.441,58.61 C60.982,56.501 63.199,51.756 61.394,48.007 C59.587,44.228 54.439,42.881 49.901,44.961 C45.359,47.07 43.146,51.815 44.951,55.594 C45.443,56.619 46.187,57.439 47.099,58.083 L28.468,91.328 C26.974,90.098 26.377,88.838 26.377,88.838 C26.377,88.838 36.902,69.506 30.959,47.538 C30.959,47.538 53.547,20.913 61.355,20.913 L61.667,20.913 C62.698,18.605 64.656,14.343 66.841,10.251 C61.706,8.509 56.211,7.551 50.488,7.551 C22.356,7.551 -0.45,30.375 -0.45,58.53 C-0.45,86.685 22.356,109.509 50.488,109.509 C78.619,109.509 101.424,86.685 101.424,58.53 C101.424,44.128 95.447,31.129 85.851,21.858 L85.851,21.858 Z" id="Shape" fill="#F72C8C"></path>
                <path d="M79.827,30.638 C79.827,30.638 77.598,22.613 61.668,20.914 L61.356,20.914 C53.547,20.914 30.96,47.539 30.96,47.539 C36.903,69.507 26.378,88.839 26.378,88.839 C26.378,88.839 26.975,90.098 28.469,91.329 L47.1,58.083 C46.188,57.439 45.444,56.619 44.952,55.594 C43.147,51.815 45.36,47.07 49.902,44.961 C54.44,42.881 59.589,44.229 61.395,48.007 C63.2,51.756 60.983,56.501 56.442,58.61 C54.813,59.372 53.108,59.665 51.501,59.577 L33.263,93.408 C35.256,93.701 36.819,93.437 36.819,93.437 C49.388,72.113 73.583,69.185 73.583,69.185 C73.583,69.185 81.079,40.861 79.821,30.667 C81.072,28.985 83.53,25.597 85.851,21.858 C89.105,16.614 92.088,10.681 91.081,7.791 C90.959,7.44 90.648,7.03 90.218,6.59 C90.224,6.59 86.861,0.205 77.843,0.146 C76.73,-0.118 75.71,-0.235 74.904,-0.176 C72.831,0.022 69.65,4.997 66.843,10.252 C64.657,14.344 62.699,18.606 61.669,20.914 C61.668,20.914 78.434,9.549 79.827,30.638 L79.827,30.638 Z" id="Shape" fill="#FFFFFF"></path>
            </g>
        </g>
    </g>
</svg>