<?xml version="1.0" encoding="UTF-8" standalone="no"?>
<svg width="150px" height="19px" viewBox="0 0 150 19" version="1.1" xmlns="http://www.w3.org/2000/svg" xmlns:xlink="http://www.w3.org/1999/xlink" xmlns:sketch="http://www.bohemiancoding.com/sketch/ns">
    <!-- Generator: Sketch 3.0 (7574) - http://www.bohemiancoding.com/sketch -->
    <title>Slice 1</title>
    <description>Created with Sketch.</description>
    <defs></defs>
    <g id="Page-1" stroke="none" stroke-width="1" fill="none" fill-rule="evenodd" sketch:type="MSPage">
        <g sketch:type="MSLayerGroup" id="MILUSH" fill="#949494">
            <path d="M3.96117712,0.235043941 C2.66265541,0.235043941 2.26745315,0.120623471 0.968931437,0.0634132442 C0.912473969,0.120623471 0.856016508,0.892961604 0.968931437,1.00738207 C1.3641337,1.00738207 2.71911287,1.26482811 2.88848527,1.6080895 C3.02962894,1.86553554 3.0014002,2.23740206 3.0014002,2.52345321 C2.97317147,3.43881693 2.80379907,10.3326499 2.57796921,15.4243605 C2.54974048,15.9392526 2.40859681,17.0548521 2.23922441,17.3981135 C1.95693709,17.9702158 0.234984383,18.1990567 -0.103760412,18.1990567 C-0.216675343,18.4565028 -0.18844661,19 -0.103760412,19.1144205 C1.1947613,19.0572103 2.01339455,18.9141847 3.31191627,18.9141847 C4.55398051,18.9141847 5.42907123,19.0572103 6.55822054,19.1144205 C6.61467801,18.9427897 6.61467801,18.3134772 6.50176307,18.1418466 C6.27593321,18.1418466 4.32815065,17.9702158 4.15877825,17.4553237 C4.10232078,17.2264828 4.04586332,16.4827498 4.04586332,16.025068 C4.13054952,13.6222382 4.24346445,9.24565547 4.41283684,3.15276577 L11.0183603,19 C11.1030466,19.0286051 11.1877327,19.0572103 11.2724189,19.0572103 C11.6676212,19.0286051 12.2886533,17.998821 12.4015682,17.7413749 C13.4742601,14.9952838 16.7205644,6.29932852 17.8779424,3.35300157 C17.9343998,3.20997599 17.9626286,3.15276577 18.0190861,3.15276577 C18.2166872,3.15276577 18.2449159,3.72486809 18.2449159,3.81068343 C18.3296021,6.12769782 18.4989745,12.8785052 18.555432,14.9380735 C18.555432,15.3957554 18.6118895,16.282514 18.6118895,16.6257754 C18.6118895,16.9690368 18.5272033,17.5697442 18.3578309,17.7413749 C18.0755435,18.027426 16.8052505,18.1418466 16.4665058,18.1418466 C16.3535909,18.3706875 16.4100483,19.0286051 16.4947345,19.1144205 C17.7932562,19.0572103 19.0917779,18.9141847 20.3902996,18.9141847 C21.6323639,18.9141847 22.8744281,19.0572103 24.0035774,19.1144205 C24.0600349,18.9427897 24.0600349,18.3992926 23.94712,18.1418466 C23.7212901,18.1418466 22.2251673,18.0560312 22.0557948,17.6555595 C21.7735076,16.9404317 21.7735076,15.9392526 21.7170501,14.8236531 C21.6041352,11.1335931 21.4347627,4.58302156 21.3783053,2.58066344 C21.3783053,2.00856112 21.4347627,1.66529974 21.6323639,1.4364588 C21.8581937,1.20761788 23.0438005,1.03598718 23.3543166,1.03598718 C23.4107741,0.921566722 23.3260878,0.177833706 23.2696304,0.0634132442 C22.3663109,0.120623471 20.983103,0.235043941 20.0233261,0.235043941 C19.4869802,0.235043941 17.9626286,0.177833706 17.398054,0.120623471 C17.398054,0.120623471 16.7770218,2.18019182 16.2971334,3.43881693 C14.857468,7.27190246 13.3331164,11.2480136 12.4862545,13.4220024 C12.4862545,13.4792126 12.3733395,13.565028 12.3451108,13.565028 C12.316882,13.565028 12.2321959,13.5364229 12.2321959,13.5078177 C10.1714984,8.53052753 7.26393883,1.89414066 6.58644927,0.0634132442 C5.71135855,0.120623471 4.92095403,0.235043941 3.96117712,0.235043941 L3.96117712,0.235043941 L3.96117712,0.235043941 Z M38.739009,0.235043941 C37.6098597,0.235043941 36.198423,0.149228589 35.0692738,0.0634132442 C34.9563588,0.235043941 34.9563588,0.835751369 35.0692738,1.00738207 C35.4080185,1.00738207 36.8194552,1.15040765 36.9323701,1.49366904 C37.1017425,2.00856112 37.1299713,2.8667146 37.1299713,3.89649878 L37.1299713,15.281335 C37.1299713,16.3111191 37.1017425,17.1692726 36.9323701,17.6841647 C36.8194552,18.027426 35.4080185,18.1704516 35.0692738,18.1704516 C34.9563588,18.3420823 34.9563588,18.9427897 35.0692738,19.1144205 C36.198423,19.0286051 37.5816309,18.9427897 38.7107803,18.9427897 C39.8399296,18.9427897 41.2513663,19.0286051 42.3805155,19.1144205 C42.4934305,18.9427897 42.4934305,18.3420823 42.3805155,18.1704516 C42.0417708,18.1704516 40.6303341,18.027426 40.5174192,17.6841647 C40.3480468,17.1692726 40.3480468,16.3111191 40.3480468,15.281335 L40.3480468,3.89649878 C40.3480468,2.8667146 40.3480468,2.00856112 40.5174192,1.49366904 C40.6303341,1.15040765 42.0417708,1.00738207 42.3805155,1.00738207 C42.4934305,0.835751369 42.4934305,0.235043941 42.3805155,0.0634132442 C41.2513663,0.149228589 39.8681584,0.235043941 38.739009,0.235043941 L38.739009,0.235043941 L38.739009,0.235043941 Z M59.0919433,15.281335 L59.0919433,3.89649878 C59.0919433,2.8667146 59.0919433,2.00856112 59.2613157,1.49366904 C59.3742306,1.15040765 60.7856673,1.00738207 61.124412,1.00738207 C61.237327,0.835751369 61.237327,0.235043941 61.124412,0.0634132442 C59.9952627,0.149228589 58.6120548,0.235043941 57.4829055,0.235043941 C56.3537562,0.235043941 54.9423195,0.149228589 53.8131702,0.0634132442 C53.7002553,0.235043941 53.7002553,0.835751369 53.8131702,1.00738207 C54.151915,1.00738207 55.5633516,1.15040765 55.6762666,1.49366904 C55.845639,2.00856112 55.8738677,2.8667146 55.8738677,3.89649878 L55.8738677,15.281335 C55.8738677,16.3111191 55.845639,17.1692726 55.6762666,17.6841647 C55.5633516,18.027426 54.151915,18.1418466 53.8131702,18.1418466 C53.7002553,18.3134772 53.7002553,18.9141847 53.8131702,19.0858153 C54.5471173,19.0858153 55.845639,19.0286051 57.5111342,19.0286051 C61.2937845,19.0286051 65.2740358,19.0858153 67.1935896,19.0858153 C67.3911907,17.8271902 68.1815952,15.796227 68.7179412,14.2515507 C68.633255,14.1657354 68.209824,14.0799201 67.9275366,14.0799201 C67.7299355,14.0799201 67.5605631,14.1371303 67.5323344,14.2515507 C67.0806747,15.6532015 66.5443288,16.5113549 65.8950679,17.0548521 C65.1611209,17.6555595 64.0037428,17.8557954 62.9310509,17.8557954 L61.1808695,17.8557954 C60.2210926,17.8557954 59.543603,17.7985851 59.2613157,17.4553237 C59.0637145,17.1120623 59.0919433,15.5673861 59.0919433,15.281335 L59.0919433,15.281335 L59.0919433,15.281335 Z M81.9007828,0.235043941 C80.7716336,0.235043941 79.3319688,0.149228589 78.2028188,0.0634132442 C78.0899039,0.235043941 78.0899039,0.835751369 78.2028188,1.00738207 C78.5415641,1.00738207 79.9812289,1.15040765 80.0941445,1.49366904 C80.2917453,2.00856112 80.2635164,2.8667146 80.2635164,3.89649878 L80.2635164,11.104988 C80.2635164,13.7366586 80.8845484,15.6532015 82.0983844,16.9976419 C83.3969063,18.4565028 85.4011461,19.1716307 87.6029875,19.1716307 C91.8372969,19.1716307 95.1682875,16.7401958 95.1682875,10.9619624 L95.1682875,4.32557551 C95.1682875,3.18137088 95.2812023,2.12298159 95.507032,1.6080895 C95.7328625,1.15040765 97.3701289,0.978776949 97.7088734,0.978776949 C97.8500172,0.721330907 97.8217883,0.235043941 97.7088734,0.0634132442 C96.4668094,0.120623471 95.7893195,0.235043941 94.5190266,0.235043941 C93.2487336,0.235043941 92.4301008,0.149228589 91.1880359,0.0634132442 C91.10335,0.235043941 91.0751211,0.778541142 91.2162648,0.978776949 C91.6114672,0.978776949 93.0793609,1.20761788 93.2769625,1.6080895 C93.5310211,2.12298159 93.615707,3.20997599 93.615707,4.35418063 L93.615707,10.6473061 C93.55925,15.6245963 91.1880359,17.3122982 88.590993,17.3122982 C87.2077852,17.3122982 85.5140609,16.9404317 84.5260555,15.1097042 C83.7356508,13.7938689 83.4815922,12.2205875 83.4815922,10.0465987 L83.4815922,3.89649878 C83.4815922,2.8667146 83.4815922,2.00856112 83.6509648,1.49366904 C83.7638797,1.15040765 85.2035445,1.00738207 85.5422898,1.00738207 C85.6552047,0.835751369 85.6552047,0.235043941 85.5422898,0.0634132442 C84.4131406,0.149228589 83.029932,0.235043941 81.9007828,0.235043941 L81.9007828,0.235043941 L81.9007828,0.235043941 Z M114.448541,-0.108217454 C111.569209,-0.108217454 108.689879,2.00856112 108.689879,4.98349318 C108.689879,7.901215 111.089321,9.33147079 113.206476,10.6759113 C114.9002,11.7343006 117.158498,12.8499001 117.158498,15.052494 C117.158498,17.1692726 115.690605,18.1418466 114.109795,18.1418466 C110.976406,18.1418466 109.706113,15.052494 109.480284,13.7366586 C109.452055,13.565028 109.310911,13.4792126 109.141538,13.4792126 C108.972166,13.4792126 108.43582,13.7080536 108.351134,13.8510792 C108.379362,14.4231814 108.66165,16.9976419 108.972166,18.4851079 C110.496518,18.8283693 112.416072,19.2860512 114.22271,19.2860512 C117.271413,19.2860512 120.23543,17.1692726 120.23543,14.0227098 C120.23543,10.9047522 117.553701,9.53170665 115.690605,8.30168662 C113.883966,7.10027176 111.682124,5.84164666 111.682124,3.81068343 C111.682124,2.1515867 112.613673,1.03598718 114.420312,1.03598718 C116.622152,1.03598718 117.977132,3.52463227 118.174733,5.04070342 C118.231191,5.29814946 118.852223,5.29814946 118.965137,5.29814946 C119.078052,5.29814946 119.247425,5.24093923 119.275654,5.09791365 C119.219196,3.83928855 119.13451,2.18019182 118.965137,0.69272579 C117.158498,0.292254168 116.142264,-0.108217454 114.448541,-0.108217454 L114.448541,-0.108217454 L114.448541,-0.108217454 Z M131.66809,0.0634132442 C131.555175,0.235043941 131.555175,0.864356487 131.66809,1.03598718 C132.006834,1.03598718 133.418271,1.20761788 133.531186,1.55087927 C133.700559,2.06577136 133.728788,2.92392484 133.728788,3.95370901 L133.728788,15.2241247 C133.728788,16.2539089 133.700559,17.1120623 133.531186,17.6269545 C133.418271,17.9702158 132.006834,18.1418466 131.66809,18.1418466 C131.555175,18.3134772 131.555175,18.9427897 131.66809,19.1144205 C132.797239,19.0286051 134.180447,18.9427897 135.309596,18.9427897 C136.438745,18.9427897 137.850182,19.0286051 138.979331,19.1144205 C139.092246,18.9427897 139.092246,18.3134772 138.979331,18.1418466 C138.640587,18.1418466 137.22915,17.9702158 137.116235,17.6269545 C136.946863,17.1120623 136.946863,16.2539089 136.946863,15.2241247 L136.946863,10.0465987 C136.946863,10.0465987 136.918634,9.98938846 136.946863,9.96078333 C137.059777,9.90357314 137.370294,9.81775774 140.898885,9.81775774 C142.197407,9.81775774 143.524158,9.87496801 144.709764,9.90357314 C144.709764,9.90357314 144.766222,9.96078333 144.766222,10.0179936 L144.766222,15.2241247 C144.766222,16.2539089 144.737993,17.1120623 144.56862,17.6269545 C144.455705,17.9702158 143.044269,18.1418466 142.705524,18.1418466 C142.592609,18.3134772 142.592609,18.9427897 142.705524,19.1144205 C143.834673,19.0286051 145.217881,18.9427897 146.34703,18.9427897 C147.47618,18.9427897 148.887616,19.0286051 150.016766,19.1144205 C150.129681,18.9427897 150.129681,18.3134772 150.016766,18.1418466 C149.678021,18.1418466 148.266584,17.9702158 148.15367,17.6269545 C147.984297,17.1120623 147.984297,16.2539089 147.984297,15.2241247 L147.984297,3.95370901 C147.984297,2.92392484 147.984297,2.06577136 148.15367,1.55087927 C148.266584,1.20761788 149.678021,1.03598718 150.016766,1.03598718 C150.129681,0.864356487 150.129681,0.235043941 150.016766,0.0634132442 C148.887616,0.149228589 147.504409,0.235043941 146.375259,0.235043941 C145.24611,0.235043941 143.834673,0.149228589 142.705524,0.0634132442 C142.592609,0.235043941 142.592609,0.864356487 142.705524,1.03598718 C143.044269,1.03598718 144.455705,1.20761788 144.56862,1.55087927 C144.737993,2.06577136 144.766222,2.92392484 144.766222,3.95370901 L144.766222,8.44471221 C144.766222,8.50192248 144.709764,8.55913267 144.709764,8.55913267 C143.580615,8.5877378 142.084492,8.64494799 140.898885,8.64494799 C139.487448,8.64494799 138.217155,8.5877378 136.975091,8.55913267 C136.975091,8.55913267 136.946863,8.53052753 136.946863,8.47331735 L136.946863,3.95370901 C136.946863,2.92392484 136.946863,2.06577136 137.116235,1.55087927 C137.22915,1.20761788 138.640587,1.03598718 138.979331,1.03598718 C139.092246,0.864356487 139.092246,0.235043941 138.979331,0.0634132442 C137.850182,0.149228589 136.466974,0.235043941 135.337825,0.235043941 C134.208676,0.235043941 132.797239,0.149228589 131.66809,0.0634132442 L131.66809,0.0634132442 L131.66809,0.0634132442 Z" sketch:type="MSShapeGroup"></path>
        </g>
    </g>
</svg>