<?xml version="1.0" encoding="UTF-8" standalone="no"?>
<svg width="201px" height="49px" viewBox="0 0 201 49" version="1.1" xmlns="http://www.w3.org/2000/svg" xmlns:xlink="http://www.w3.org/1999/xlink" xmlns:sketch="http://www.bohemiancoding.com/sketch/ns">
    <!-- Generator: Sketch 3.0 (7574) - http://www.bohemiancoding.com/sketch -->
    <title>Slice 1</title>
    <description>Created with Sketch.</description>
    <defs></defs>
    <g id="Page-1" stroke="none" stroke-width="1" fill="none" fill-rule="evenodd" sketch:type="MSPage">
        <g id="logo4" sketch:type="MSLayerGroup" transform="translate(1.000000, 0.000000)">
            <g id="Page-1" sketch:type="MSShapeGroup">
                <g id="logo3-2-+-WEB-COPYWRITING-2">
                    <g id="logo3-2" fill="#F72C8C">
                        <g id="Page-1">
                            <path d="M5.81116542,0.234234234 C3.98821955,0.234234234 3.43340994,0.078078078 1.61046407,0 C1.53120555,0.078078078 1.45194703,1.13213214 1.61046407,1.28828829 C2.16527368,1.28828829 4.06747806,1.63963964 4.30525361,2.1081081 C4.50339991,2.45945946 4.46377065,2.96696697 4.46377065,3.35735735 C4.42414139,4.60660661 4.18636584,14.015015 3.86933178,20.963964 C3.82970252,21.6666666 3.63155623,23.1891892 3.39378068,23.6576577 C2.9974881,24.4384384 0.580103354,24.7507508 0.104552257,24.7507508 C-0.0539647761,25.1021021 -0.014335518,25.8438438 0.104552257,26 C1.92749813,25.9219219 3.07674662,25.7267267 4.89969249,25.7267267 C6.64337985,25.7267267 7.87188681,25.9219219 9.45705717,26 C9.53631568,25.7657658 9.53631568,24.9069069 9.37779865,24.6726727 C9.0607646,24.6726727 6.32634578,24.4384384 6.08857023,23.7357357 C6.00931172,23.4234234 5.9300532,22.4084084 5.9300532,21.7837838 C6.04894097,18.5045045 6.20745801,12.5315316 6.44523356,4.21621622 L15.71848,25.8438438 C15.8373678,25.8828829 15.9562555,25.9219219 16.0751433,25.9219219 C16.6299529,25.8828829 17.5017966,24.4774774 17.6603136,24.1261261 C19.1662254,20.3783784 23.7235901,8.51051051 25.3483896,4.48948949 C25.4276482,4.29429429 25.4672774,4.21621622 25.5465359,4.21621622 C25.8239408,4.21621622 25.8635701,4.996997 25.8635701,5.11411412 C25.9824578,8.27627628 26.2202334,17.4894895 26.2994919,20.3003003 C26.2994919,20.9249249 26.3787504,22.1351352 26.3787504,22.6036036 C26.3787504,23.0720721 26.2598626,23.8918919 26.0220871,24.1261261 C25.6257944,24.5165165 23.8424779,24.6726727 23.3669268,24.6726727 C23.2084098,24.984985 23.2876683,25.8828829 23.4065561,26 C25.2295019,25.9219219 27.0524478,25.7267267 28.8753937,25.7267267 C30.619081,25.7267267 32.3627684,25.9219219 33.9479387,26 C34.0271972,25.7657658 34.0271972,25.0240241 33.8686802,24.6726727 C33.5516461,24.6726727 31.4512954,24.5555555 31.2135199,24.009009 C30.8172273,23.033033 30.8172273,21.6666666 30.7379688,20.1441442 C30.5794517,15.1081081 30.3416762,6.16816817 30.2624177,3.43543544 C30.2624177,2.65465466 30.3416762,2.18618619 30.619081,1.87387388 C30.9361151,1.56156156 32.6005439,1.32732732 33.0364657,1.32732732 C33.1157242,1.17117117 32.9968365,0.156156156 32.917578,0 C31.6494417,0.078078078 29.7076081,0.234234234 28.3602133,0.234234234 C27.6072574,0.234234234 25.4672774,0.156156156 24.6746923,0.078078078 C24.6746923,0.078078078 23.8028486,2.88888889 23.1291513,4.60660661 C21.1080591,9.83783787 18.9680791,15.2642643 17.7792013,18.2312312 C17.7792013,18.3093093 17.6206843,18.4264264 17.5810551,18.4264264 C17.5414258,18.4264264 17.422538,18.3873874 17.422538,18.3483484 C14.5296022,11.5555555 10.4477886,2.4984985 9.49668642,0 C8.26817946,0.078078078 7.1585602,0.234234234 5.81116542,0.234234234 L5.81116542,0.234234234 L5.81116542,0.234234234 Z M52.0188679,0.234234234 C50.509434,0.234234234 48.6226415,0.117117117 47.1132075,0 C46.9622642,0.234234234 46.9622642,1.05405405 47.1132075,1.28828829 C47.5660377,1.28828829 49.4528302,1.48348348 49.6037736,1.95195195 C49.8301887,2.65465466 49.8679245,3.82582582 49.8679245,5.23123123 L49.8679245,20.7687688 C49.8679245,22.1741742 49.8301887,23.3453454 49.6037736,24.048048 C49.4528302,24.5165165 47.5660377,24.7117118 47.1132075,24.7117118 C46.9622642,24.945946 46.9622642,25.7657658 47.1132075,26 C48.6226415,25.8828829 50.4716982,25.7657658 51.9811321,25.7657658 C53.4905661,25.7657658 55.3773585,25.8828829 56.8867925,26 C57.0377358,25.7657658 57.0377358,24.945946 56.8867925,24.7117118 C56.4339623,24.7117118 54.5471698,24.5165165 54.3962264,24.048048 C54.1698113,23.3453454 54.1698113,22.1741742 54.1698113,20.7687688 L54.1698113,5.23123123 C54.1698113,3.82582582 54.1698113,2.65465466 54.3962264,1.95195195 C54.5471698,1.48348348 56.4339623,1.28828829 56.8867925,1.28828829 C57.0377358,1.05405405 57.0377358,0.234234234 56.8867925,0 C55.3773585,0.117117117 53.5283019,0.234234234 52.0188679,0.234234234 L52.0188679,0.234234234 L52.0188679,0.234234234 Z M78.5141242,20.8 L78.5141242,5.23909774 C78.5141242,3.83157894 78.5141242,2.65864662 78.7514121,1.95488722 C78.9096044,1.48571429 80.8870054,1.29022556 81.3615822,1.29022556 C81.5197736,1.0556391 81.5197736,0.234586466 81.3615822,0 C79.7796613,0.117293233 77.8418081,0.234586466 76.259887,0.234586466 C74.6779661,0.234586466 72.700565,0.117293233 71.1186441,0 C70.960452,0.234586466 70.960452,1.0556391 71.1186441,1.29022556 C71.5932203,1.29022556 73.5706215,1.48571429 73.7288135,1.95488722 C73.9661017,2.65864662 74.0056497,3.83157894 74.0056497,5.23909774 L74.0056497,20.8 C74.0056497,22.2075188 73.9661017,23.3804511 73.7288135,24.0842105 C73.5706215,24.5533834 71.5932203,24.7097745 71.1186441,24.7097745 C70.960452,24.9443609 70.960452,25.7654135 71.1186441,26 C72.1468927,26 73.9661017,25.9218045 76.299435,25.9218045 C81.5988701,25.9218045 87.175141,26 89.8644067,26 C90.1412425,24.2796992 91.2485874,21.5037594 92,19.3924812 C91.8813556,19.2751879 91.2881353,19.1578947 90.8926551,19.1578947 C90.6158193,19.1578947 90.3785313,19.2360902 90.3389826,19.3924812 C89.7062145,21.3082707 88.9548019,22.481203 88.0451979,23.2240602 C87.0169487,24.0451128 85.39548,24.318797 83.8926557,24.318797 L81.4406779,24.318797 C80.096045,24.318797 79.1468924,24.2406015 78.7514121,23.7714286 C78.4745763,23.3022556 78.5141242,21.1909774 78.5141242,20.8 L78.5141242,20.8 L78.5141242,20.8 Z M109.18795,0.233532934 C107.639308,0.233532934 105.66479,0.116766467 104.116148,0 C103.961284,0.233532934 103.961284,1.0508982 104.116148,1.28443114 C104.580741,1.28443114 106.555259,1.47904192 106.710123,1.94610779 C106.981135,2.64670659 106.942419,3.81437126 106.942419,5.21556886 L106.942419,15.0239521 C106.942419,18.6047904 107.794172,21.2125748 109.458962,23.0419162 C111.2399,25.0269461 113.988739,26 117.00859,26 C122.815997,26 127.384489,22.6916168 127.384489,14.8293414 L127.384489,5.7994012 C127.384489,4.24251497 127.539353,2.80239521 127.849082,2.1017964 C128.15881,1.47904192 130.40434,1.24550898 130.868932,1.24550898 C131.062513,0.895209584 131.023797,0.233532934 130.868932,0 C129.165427,0.0778443113 128.236242,0.233532934 126.49402,0.233532934 C124.751799,0.233532934 123.629033,0.116766467 121.925527,0 C121.809379,0.233532934 121.770663,0.973053893 121.964243,1.24550898 C122.506268,1.24550898 124.519502,1.55688623 124.790515,2.1017964 C125.138959,2.80239521 125.255107,4.28143712 125.255107,5.83832336 L125.255107,14.4011976 C125.177675,21.1736527 121.925527,23.4700599 118.363651,23.4700599 C116.466565,23.4700599 114.143603,22.9640719 112.788541,20.4730539 C111.704493,18.6826347 111.356048,16.5419162 111.356048,13.5838323 L111.356048,5.21556886 C111.356048,3.81437126 111.356048,2.64670659 111.588344,1.94610779 C111.743209,1.47904192 113.717726,1.28443114 114.182319,1.28443114 C114.337183,1.0508982 114.337183,0.233532934 114.182319,0 C112.633678,0.116766467 110.736592,0.233532934 109.18795,0.233532934 L109.18795,0.233532934 L109.18795,0.233532934 Z M152.722091,0 C148.603325,0 144.484561,2.83775812 144.484561,6.82595871 C144.484561,10.7374631 147.916865,12.6548673 150.945368,14.4572271 C153.368171,15.8761062 156.598575,17.3716815 156.598575,20.3244838 C156.598575,23.1622419 154.498813,24.4660767 152.23753,24.4660767 C147.755345,24.4660767 145.938243,20.3244838 145.615202,18.560472 C145.574822,18.3303835 145.372922,18.2153392 145.130642,18.2153392 C144.888361,18.2153392 144.12114,18.5221239 144,18.7138643 C144.04038,19.4808259 144.44418,22.9321534 144.888361,24.9262537 C147.068883,25.3864307 149.814727,26 152.39905,26 C156.760095,26 161,23.1622419 161,18.9439528 C161,14.7640118 157.163896,12.9233039 154.498813,11.2743363 C151.91449,9.66371678 148.764846,7.9764012 148.764846,5.25368732 C148.764846,3.02949852 150.097388,1.5339233 152.681711,1.5339233 C155.831354,1.5339233 157.769596,4.87020649 158.052256,6.90265487 C158.133017,7.24778762 159.021378,7.24778762 159.182898,7.24778762 C159.344418,7.24778762 159.586698,7.17109145 159.627078,6.97935104 C159.546319,5.2920354 159.425178,3.06784661 159.182898,1.07374631 C156.598575,0.536873156 155.144893,0 152.722091,0 L152.722091,0 L152.722091,0 Z M174.118903,0 C173.960366,0.234234234 173.960366,1.09309309 174.118903,1.32732732 C174.594512,1.32732732 176.576219,1.56156156 176.734756,2.03003003 C176.972561,2.73273273 177.012195,3.90390391 177.012195,5.30930931 L177.012195,20.6906907 C177.012195,22.0960961 176.972561,23.2672673 176.734756,23.96997 C176.576219,24.4384384 174.594512,24.6726727 174.118903,24.6726727 C173.960366,24.9069069 173.960366,25.7657658 174.118903,26 C175.704268,25.8828829 177.646342,25.7657658 179.231707,25.7657658 C180.817073,25.7657658 182.79878,25.8828829 184.384146,26 C184.542683,25.7657658 184.542683,24.9069069 184.384146,24.6726727 C183.908537,24.6726727 181.92683,24.4384384 181.768293,23.96997 C181.530488,23.2672673 181.530488,22.0960961 181.530488,20.6906907 L181.530488,13.6246246 C181.530488,13.6246246 181.490853,13.5465465 181.530488,13.5075075 C181.689024,13.4294294 182.125,13.3123123 187.079268,13.3123123 C188.902439,13.3123123 190.765244,13.3903904 192.429878,13.4294294 C192.429878,13.4294294 192.509146,13.5075075 192.509146,13.5855856 L192.509146,20.6906907 C192.509146,22.0960961 192.469512,23.2672673 192.231707,23.96997 C192.07317,24.4384384 190.091463,24.6726727 189.615854,24.6726727 C189.457317,24.9069069 189.457317,25.7657658 189.615854,26 C191.20122,25.8828829 193.143293,25.7657658 194.728659,25.7657658 C196.314024,25.7657658 198.295732,25.8828829 199.881097,26 C200.039634,25.7657658 200.039634,24.9069069 199.881097,24.6726727 C199.405488,24.6726727 197.42378,24.4384384 197.265244,23.96997 C197.027439,23.2672673 197.027439,22.0960961 197.027439,20.6906907 L197.027439,5.30930931 C197.027439,3.90390391 197.027439,2.73273273 197.265244,2.03003003 C197.42378,1.56156156 199.405488,1.32732732 199.881097,1.32732732 C200.039634,1.09309309 200.039634,0.234234234 199.881097,0 C198.295732,0.117117117 196.353658,0.234234234 194.768293,0.234234234 C193.182927,0.234234234 191.20122,0.117117117 189.615854,0 C189.457317,0.234234234 189.457317,1.09309309 189.615854,1.32732732 C190.091463,1.32732732 192.07317,1.56156156 192.231707,2.03003003 C192.469512,2.73273273 192.509146,3.90390391 192.509146,5.30930931 L192.509146,11.4384384 C192.509146,11.5165165 192.429878,11.5945946 192.429878,11.5945946 C190.844512,11.6336336 188.743902,11.7117117 187.079268,11.7117117 C185.097561,11.7117117 183.314025,11.6336336 181.570122,11.5945946 C181.570122,11.5945946 181.530488,11.5555555 181.530488,11.4774775 L181.530488,5.30930931 C181.530488,3.90390391 181.530488,2.73273273 181.768293,2.03003003 C181.92683,1.56156156 183.908537,1.32732732 184.384146,1.32732732 C184.542683,1.09309309 184.542683,0.234234234 184.384146,0 C182.79878,0.117117117 180.856707,0.234234234 179.271341,0.234234234 C177.685976,0.234234234 175.704268,0.117117117 174.118903,0 L174.118903,0 L174.118903,0 Z" id="MILUSH"></path>
                        </g>
                    </g>
                    <path d="M1.72851398,38.3759857 C1.05468649,38.3759857 0.615233788,38.3320405 -0.0585936941,38.3027436 C-0.0878905412,38.3320405 -0.0878905412,38.7275479 -0.0585936941,38.7275479 C0.117187388,38.7275479 0.585936941,38.8300869 0.791014871,39.0205164 C1.06933492,39.284188 1.14257704,39.6211017 1.31835812,40.2070387 C2.21191195,43.0927781 2.81249732,45.0849637 3.66210588,47.7949221 C3.67675431,47.8535158 3.74999642,48.0292968 3.80859012,48.0292968 C3.99901962,48.0292968 4.29198809,47.7949221 4.36523021,47.5312504 C5.14159666,44.9384795 5.74218202,43.2539108 6.56249374,40.5586008 C6.56249374,40.5439524 8.24706245,45.6709007 8.9648352,47.7949221 C8.97948362,47.8535158 9.05272574,48.0292968 9.11131944,48.0292968 C9.30174894,48.0292968 9.59471741,47.7949221 9.66795953,47.5312504 C10.444326,44.9091826 10.9570208,42.9902392 11.7626841,40.2216871 C11.9384652,39.6211017 12.0849494,39.284188 12.2900273,39.1084069 C12.5829958,38.8593837 13.0956906,38.7275479 13.212878,38.7275479 C13.2568233,38.7275479 13.2861201,38.3759857 13.2421749,38.3027436 C12.6562379,38.3320405 12.5390505,38.3759857 11.8652231,38.3759857 C11.3232314,38.3759857 10.825185,38.3320405 10.2831933,38.3027436 C10.2099512,38.3759857 10.2099512,38.6982511 10.2831933,38.7275479 C10.4589744,38.7275479 11.2792861,38.8300869 11.2792861,39.2988364 C11.2792861,39.562508 11.1913956,39.9726639 11.103505,40.3242261 C10.5615134,42.3896538 10.1953028,43.5468792 9.56542057,45.788088 C8.58397619,42.8730518 7.33886019,38.8593837 7.23632122,38.5371184 C7.16307911,38.3759857 7.11913384,38.3027436 7.06054014,38.3027436 C6.89940748,38.3027436 6.62108744,38.5078216 6.53319689,38.7861416 C6.09374419,40.2216871 5.00976085,43.5615277 4.32128494,45.8320333 C3.70605115,43.7519572 2.95898155,41.3789126 2.62206781,40.1630934 C2.47558358,39.6503986 2.40234146,39.3134848 2.40234146,39.2109459 C2.40234146,38.80079 3.16405948,38.7275479 3.28124687,38.7275479 C3.33984056,38.7128995 3.33984056,38.3906342 3.31054372,38.3027436 C2.72460678,38.3320405 2.37304461,38.3759857 1.72851398,38.3759857 L1.72851398,38.3759857 Z M16.5566385,38.3759857 C15.9853499,38.3759857 15.4287099,38.3320405 14.8281245,38.3027436 C14.7548824,38.3759857 14.7695308,38.6543058 14.8281245,38.7275479 C15.0039056,38.7275479 15.7949204,38.80079 15.8388657,38.9619227 C15.9121078,39.1962975 15.9121078,39.6064533 15.9121078,40.045906 L15.9121078,46.3007829 C15.9121078,46.7402356 15.9121078,47.1503914 15.8388657,47.3847662 C15.7949204,47.5458989 15.0039056,47.619141 14.8281245,47.619141 C14.7695308,47.6923831 14.7548824,47.9707032 14.8281245,48.0439453 C15.399413,48.0439453 15.882811,48 16.5712869,48 C18.5195272,48 19.9697211,48.0585937 21.5663993,48.0585937 C21.6689383,47.4140631 22.0790941,46.4179703 22.3574142,45.6269554 C22.3134689,45.5830101 22.1376878,45.5390648 21.9912036,45.5390648 C21.8886646,45.5390648 21.8007741,45.5683617 21.7861257,45.6269554 C21.5517509,46.2568376 21.3320245,46.8281261 20.863275,47.1064462 C20.4531191,47.3554694 19.7060495,47.5019536 19.0175736,47.5019536 L18.3144493,47.5019536 C17.6992155,47.5019536 17.4648407,47.5019536 17.2744112,47.3554694 C17.1865207,47.2822272 17.1865207,46.5644545 17.1865207,46.3447281 L17.1865207,43.5615277 C17.1865207,43.4296919 17.8310513,43.4296919 18.2412072,43.4296919 C18.7978473,43.4296919 19.6328074,43.4443403 19.7939401,43.5468792 C19.9257759,43.6347698 19.9843696,43.6787151 20.2040959,44.5136752 C20.2333928,44.5869173 20.3359317,44.6308626 20.4384707,44.6308626 C20.5410097,44.6308626 20.6435486,44.6015657 20.6728455,44.5722689 L20.6728455,41.8037168 C20.6289002,41.7597716 20.5263612,41.7304747 20.4238223,41.7304747 C20.3212833,41.7304747 20.2187443,41.7597716 20.2040959,41.8330137 C19.9550727,42.7998096 19.999018,42.8877002 18.5927693,42.8877002 L17.8164029,42.8877002 C17.4941376,42.8877002 17.1865207,42.8730518 17.1865207,42.7998096 L17.1865207,40.0605544 C17.1865207,39.665047 17.1865207,39.2548912 17.2597628,39.0205164 C17.3037081,38.8740321 18.0947229,38.8593837 18.270504,38.8593837 L19.5302684,38.8593837 C20.3066349,38.8593837 20.9072203,39.0644616 21.2294856,40.2363355 C21.244134,40.3095776 21.3320245,40.3388745 21.4345635,40.3388745 C21.5371025,40.3388745 21.6542899,40.3095776 21.6982351,40.2656324 C21.5663993,39.6064533 21.3759698,39.005868 21.2734308,38.2734468 C19.6767527,38.2734468 17.9335903,38.3759857 16.5566385,38.3759857 L16.5566385,38.3759857 Z M28.2206991,38.3466889 C27.3564421,38.3466889 26.7119115,38.3759857 26.140623,38.3759857 C25.5693344,38.3759857 25.0126943,38.3320405 24.412109,38.3027436 C24.3388669,38.3759857 24.3535153,38.6543058 24.412109,38.7275479 C24.5878901,38.7275479 25.3789049,38.80079 25.4228502,38.9619227 C25.4960923,39.1962975 25.4960923,39.6064533 25.4960923,40.045906 L25.4960923,46.3007829 C25.4960923,46.7402356 25.4960923,47.1503914 25.4228502,47.3847662 C25.3789049,47.5458989 24.5878901,47.619141 24.412109,47.619141 C24.3535153,47.6923831 24.3388669,47.9707032 24.412109,48.0439453 L27.7812464,48.0439453 C28.909175,48.0292968 30.154291,47.8388673 30.8574153,47.2529304 C31.5751881,46.652345 31.8388597,45.9199239 31.8388597,45.0849637 C31.8388597,43.6347698 30.4033142,42.7558644 29.6855415,42.7265675 C29.6415962,42.6972707 29.6562446,42.6679738 29.6855415,42.6533254 C30.1982363,42.4628959 31.1650322,41.6572326 31.1650322,40.529304 C31.1650322,38.8593837 29.5537056,38.3466889 28.2206991,38.3466889 L28.2206991,38.3466889 Z M26.7705052,43.1367234 L27.664059,43.1367234 C29.9199162,43.1367234 30.3886658,44.3232457 30.3886658,45.4218775 C30.3886658,47.2089851 29.1581982,47.5751957 28.0595664,47.5751957 C27.5175748,47.5751957 27.1220673,47.5458989 26.902341,47.3115241 C26.799802,47.2089851 26.7705052,46.5205092 26.7705052,46.3154313 L26.7705052,43.1367234 L26.7705052,43.1367234 Z M26.7705052,42.5800833 L26.7705052,40.0605544 C26.7705052,39.6211017 26.7705052,39.1377038 26.8437473,38.9619227 C26.902341,38.8300869 27.4003874,38.8154384 27.5761685,38.8154384 C28.9384719,38.8154384 29.8320257,39.562508 29.8320257,40.8662177 C29.8320257,41.7011779 29.3193309,42.5800833 28.0009727,42.5800833 L26.7705052,42.5800833 L26.7705052,42.5800833 Z M43.2871045,38.2295015 C40.401365,38.2295015 38.3359373,40.5439524 38.3359373,43.2832076 C38.3359373,45.8759786 40.3281229,48.0878905 43.2285108,48.0878905 C44.5761657,48.0878905 45.5722585,47.8828126 46.3779218,47.4287115 C46.5829998,47.2529304 46.8906166,45.612307 46.8906166,45.3193385 C46.7587808,45.231448 46.5683513,45.1875027 46.4218671,45.2021511 C46.3193281,45.6855491 46.0996018,46.3886734 45.5283133,46.9013682 C45.103509,47.2822272 44.4882752,47.6044926 43.5947214,47.6044926 C41.0458957,47.6044926 39.7861312,45.2607448 39.7861312,42.9755907 C39.7861312,40.9248114 41.1923799,38.7128995 43.3603466,38.7128995 C45.8066333,38.7128995 46.143547,40.3974682 46.2314376,40.8515693 C46.2753829,40.8808662 46.3193281,40.8955146 46.4072187,40.8955146 C46.5537029,40.8955146 46.7441324,40.7929756 46.729484,40.7050851 C46.729484,40.5586008 46.3925702,38.5371184 46.3925702,38.5371184 C45.3085869,38.3027436 44.2539004,38.2295015 43.2871045,38.2295015 L43.2871045,38.2295015 Z M53.9550735,38.2295015 C51.376951,38.2295015 49.2089843,40.4560619 49.2089843,43.1953171 C49.2089843,46.0957049 51.376951,48.1464842 53.9550735,48.1464842 C56.5331961,48.1464842 58.7304596,45.9345723 58.7304596,43.1953171 C58.7304596,40.2802808 56.5331961,38.2295015 53.9550735,38.2295015 L53.9550735,38.2295015 Z M53.7353472,38.7275479 C56.0058528,38.7275479 57.2802657,41.2031315 57.2802657,43.4736371 C57.2802657,45.4511743 56.3867118,47.6484378 54.1894483,47.6484378 C51.9189426,47.6484378 50.6591782,45.1435574 50.6591782,42.8730518 C50.6591782,40.910163 51.5380836,38.7275479 53.7353472,38.7275479 L53.7353472,38.7275479 Z M67.8896419,40.9834051 C67.8896419,39.284188 66.3222606,38.3466889 64.7695277,38.3466889 C63.9052707,38.3466889 63.2607401,38.3759857 62.6894516,38.3759857 C62.118163,38.3759857 61.561523,38.3320405 60.9609376,38.3027436 C60.8876955,38.3759857 60.9023439,38.6543058 60.9609376,38.7275479 C61.1367187,38.7275479 61.9277335,38.80079 61.9716788,38.9619227 C62.0449209,39.1962975 62.0449209,39.6064533 62.0449209,40.045906 L62.0449209,46.3007829 C62.0449209,46.7402356 62.0449209,47.1503914 61.9716788,47.3847662 C61.9277335,47.5458989 61.1367187,47.619141 60.9609376,47.619141 C60.9023439,47.6923831 60.8876955,47.9707032 60.9609376,48.0439453 C61.561523,48.0146484 62.118163,47.9707032 62.6894516,47.9707032 C63.2607401,47.9707032 63.8027318,48.0146484 64.4033171,48.0439453 C64.4765592,47.9707032 64.4619108,47.6923831 64.4033171,47.619141 C64.227536,47.619141 63.4365212,47.5458989 63.3925759,47.3847662 C63.3193338,47.1503914 63.3193338,46.7402356 63.3193338,46.3007829 L63.3193338,40.0605544 C63.3193338,39.6211017 63.3193338,39.1377038 63.3925759,38.9619227 C63.4511696,38.8300869 63.949216,38.8154384 64.1249971,38.8154384 C65.7509721,38.8154384 66.541987,39.7822344 66.541987,41.2324283 C66.541987,42.6972707 65.6337847,43.5175824 64.4619108,43.5175824 C64.2421845,43.5175824 64.0664034,43.4589887 63.9052707,43.4150434 C63.846677,43.400395 63.8320286,43.4589887 63.8320286,43.4882856 C63.8320286,43.6640666 63.9931613,43.781254 64.0371065,43.8105509 C64.1835908,43.883793 64.5058561,43.9277383 64.6669887,43.9277383 C66.5859322,43.9277383 67.8896419,42.7705128 67.8896419,40.9834051 L67.8896419,40.9834051 Z M73.0498019,46.3007829 C73.0498019,46.7402356 73.0498019,47.1503914 72.9765598,47.3847662 C72.9326145,47.5458989 72.1415996,47.619141 71.9658185,47.619141 C71.9072248,47.6923831 71.8925764,47.9707032 71.9658185,48.0439453 C72.5664039,48.0146484 73.123044,47.9707032 73.6943325,47.9707032 C74.265621,47.9707032 74.8076127,48.0146484 75.4081981,48.0439453 C75.4814402,47.9707032 75.4667918,47.6923831 75.4081981,47.619141 C75.232417,47.619141 74.4414021,47.5458989 74.3974568,47.3847662 C74.3242147,47.1503914 74.3242147,46.7402356 74.3242147,46.3007829 C74.3242147,46.3007829 74.3388631,44.9238311 74.3388631,44.0449256 C74.3388631,43.9130898 74.3242147,43.7519572 74.4121053,43.5908245 C75.0419875,42.4189506 76.1699161,40.3095776 76.7265562,39.3281333 C77.0634699,38.7421963 77.9130785,38.7421963 78.0302659,38.7421963 C78.0742111,38.7421963 78.0888596,38.4052826 78.0595627,38.317392 C77.4736258,38.3466889 77.2099542,38.3906342 76.4482361,38.3906342 C75.9062445,38.3906342 75.5253855,38.3466889 74.9833938,38.317392 C74.9540969,38.3613373 74.9687454,38.7421963 75.0126906,38.7421963 C75.8330023,38.7421963 76.0380803,38.9912195 76.0380803,39.1377038 C76.0380803,39.2255943 76.0087834,39.3134848 75.994135,39.3574301 C75.7744087,39.8847734 74.8076127,41.8623105 74.0898399,43.1513718 L72.0537091,39.6357502 C71.9365217,39.4453207 71.877928,39.3134848 71.877928,39.1962975 C71.877928,38.8154384 72.5517555,38.7275479 72.7568334,38.7275479 C72.8300755,38.7275479 72.8154271,38.3906342 72.7861303,38.3027436 C72.2001933,38.3320405 71.6289048,38.3759857 70.911132,38.3759857 C70.1933593,38.3759857 69.7978519,38.3320405 69.0800791,38.3027436 C69.006837,38.3759857 69.006837,38.7275479 69.0800791,38.7275479 C69.2558602,38.7275479 69.6513676,38.8154384 69.9003908,38.9619227 C70.3105467,39.1962975 70.5595699,39.4306722 70.8671868,39.9726639 C71.7314438,41.5253968 72.0976543,42.1406306 72.9472629,43.6787151 C73.020505,43.8251993 73.0498019,43.986332 73.0498019,44.0888709 L73.0498019,46.3007829 L73.0498019,46.3007829 Z M80.7001946,38.3759857 C80.0263671,38.3759857 79.5869144,38.3320405 78.9130869,38.3027436 C78.8837901,38.3320405 78.8837901,38.7275479 78.9130869,38.7275479 C79.088868,38.7275479 79.5576176,38.8300869 79.7626955,39.0205164 C80.0410156,39.284188 80.1142577,39.6211017 80.2900388,40.2070387 C81.1835926,43.0927781 81.784178,45.0849637 82.6337865,47.7949221 C82.6484349,47.8535158 82.7216771,48.0292968 82.7802708,48.0292968 C82.9707003,48.0292968 83.2636687,47.7949221 83.3369109,47.5312504 C84.1132773,44.9384795 84.7138627,43.2539108 85.5341744,40.5586008 C85.5341744,40.5439524 87.2187431,45.6709007 87.9365158,47.7949221 C87.9511643,47.8535158 88.0244064,48.0292968 88.0830001,48.0292968 C88.2734296,48.0292968 88.5663981,47.7949221 88.6396402,47.5312504 C89.4160066,44.9091826 89.9287014,42.9902392 90.7343647,40.2216871 C90.9101458,39.6211017 91.0566301,39.284188 91.261708,39.1084069 C91.5546765,38.8593837 92.0673713,38.7275479 92.1845587,38.7275479 C92.2285039,38.7275479 92.2578008,38.3759857 92.2138555,38.3027436 C91.6279186,38.3320405 91.5107312,38.3759857 90.8369037,38.3759857 C90.294912,38.3759857 89.7968656,38.3320405 89.254874,38.3027436 C89.1816318,38.3759857 89.1816318,38.6982511 89.254874,38.7275479 C89.430655,38.7275479 90.2509668,38.8300869 90.2509668,39.2988364 C90.2509668,39.562508 90.1630762,39.9726639 90.0751857,40.3242261 C89.533194,42.3896538 89.1669834,43.5468792 88.5371012,45.788088 C87.5556568,42.8730518 86.3105408,38.8593837 86.2080019,38.5371184 C86.1347597,38.3759857 86.0908145,38.3027436 86.0322208,38.3027436 C85.8710881,38.3027436 85.5927681,38.5078216 85.5048775,38.7861416 C85.0654248,40.2216871 83.9814415,43.5615277 83.2929656,45.8320333 C82.6777318,43.7519572 81.9306622,41.3789126 81.5937485,40.1630934 C81.4472642,39.6503986 81.3740221,39.3134848 81.3740221,39.2109459 C81.3740221,38.80079 82.1357401,38.7275479 82.2529275,38.7275479 C82.3115212,38.7128995 82.3115212,38.3906342 82.2822244,38.3027436 C81.6962874,38.3320405 81.3447253,38.3759857 80.7001946,38.3759857 L80.7001946,38.3759857 Z M97.6083952,38.3466889 C96.7441383,38.3466889 96.0996076,38.3759857 95.5283191,38.3759857 C94.9570306,38.3759857 94.4003905,38.3320405 93.7998051,38.3027436 C93.726563,38.3759857 93.7412114,38.6543058 93.7998051,38.7275479 C93.9755862,38.7275479 94.7666011,38.80079 94.8105464,38.9619227 C94.8837885,39.1962975 94.8837885,39.6064533 94.8837885,40.045906 L94.8837885,46.3007829 C94.8837885,46.7402356 94.8837885,47.1503914 94.8105464,47.3847662 C94.7666011,47.5458989 93.9755862,47.619141 93.7998051,47.619141 C93.7412114,47.6923831 93.726563,47.9707032 93.7998051,48.0439453 C94.4003905,48.0146484 94.9570306,47.9707032 95.5283191,47.9707032 C96.0996076,47.9707032 96.6415993,48.0146484 97.2421847,48.0439453 C97.3154268,47.9707032 97.3007784,47.6923831 97.2421847,47.619141 C97.0664036,47.619141 96.2753887,47.5458989 96.2314434,47.3847662 C96.1582013,47.1503914 96.1582013,46.7402356 96.1582013,46.3007829 L96.1582013,43.5761761 L96.9345678,43.5761761 C97.1396457,43.5761761 97.2861299,43.6201214 97.3740205,43.7519572 C98.2968712,45.1875027 99.4833935,46.9306651 99.7031198,47.2236336 C100.054682,47.6777347 100.450189,47.7949221 100.655267,47.8681642 C100.948236,47.9707032 101.607415,48.0439453 102.588859,48.0439453 C102.603508,48.0146484 102.67675,47.6923831 102.603508,47.619141 C101.797844,47.5605473 101.37304,47.2968757 100.948236,46.7402356 C99.9814399,45.4658227 99.3662061,44.5869173 98.5898396,43.297856 C99.571284,42.9609423 100.582025,41.9355527 100.582025,40.8808662 C100.582025,39.2109459 98.9414018,38.3466889 97.6083952,38.3466889 L97.6083952,38.3466889 Z M99.2197218,41.012702 C99.2197218,42.3017632 98.0917932,43.122075 96.9492162,43.122075 L96.1582013,43.122075 L96.1582013,40.0605544 C96.1582013,39.6211017 96.1582013,39.1377038 96.2314434,38.9619227 C96.2900371,38.8300869 96.7880835,38.8154384 96.9638646,38.8154384 C98.5898396,38.8154384 99.2197218,39.7382891 99.2197218,41.012702 L99.2197218,41.012702 Z M103.881837,38.3027436 C103.808594,38.3759857 103.823243,38.6543058 103.881837,38.7275479 C104.057618,38.7275479 104.848632,38.80079 104.892578,38.9619227 C104.96582,39.1962975 104.96582,39.6064533 104.96582,40.045906 L104.96582,46.3007829 C104.96582,46.7402356 104.96582,47.1503914 104.892578,47.3847662 C104.848632,47.5458989 104.057618,47.619141 103.881837,47.619141 C103.823243,47.6923831 103.808594,47.9707032 103.881837,48.0439453 C104.482422,48.0146484 105.039062,47.9707032 105.61035,47.9707032 C106.181639,47.9707032 106.723631,48.0146484 107.324216,48.0439453 C107.397458,47.9707032 107.38281,47.6923831 107.324216,47.619141 C107.148435,47.619141 106.35742,47.5458989 106.313475,47.3847662 C106.240233,47.1503914 106.240233,46.7402356 106.240233,46.3007829 L106.240233,40.045906 C106.240233,39.6064533 106.240233,39.1962975 106.313475,38.9619227 C106.35742,38.80079 107.148435,38.7275479 107.324216,38.7275479 C107.38281,38.6543058 107.397458,38.3759857 107.324216,38.3027436 C106.723631,38.3320405 106.181639,38.3759857 105.61035,38.3759857 C105.039062,38.3759857 104.482422,38.3320405 103.881837,38.3027436 L103.881837,38.3027436 L103.881837,38.3027436 Z M116.395502,38.317392 L110.667968,38.317392 C110.433594,38.317392 110.023438,38.2002047 109.847657,38.1123141 C109.759766,38.0683688 109.598634,38.0244236 109.510743,38.0683688 C109.408204,38.9619227 109.291017,39.8115312 109.129884,40.5878977 C109.173829,40.631843 109.276368,40.7050851 109.408204,40.6904367 C109.481446,40.6904367 109.583985,40.6611398 109.613282,40.6171945 C109.81836,39.5918049 110.287109,38.8300869 111.019531,38.8300869 L112.909177,38.8300869 L112.909177,46.3007829 C112.909177,46.7402356 112.909177,47.1503914 112.835935,47.3847662 C112.79199,47.5458989 112.000975,47.619141 111.825194,47.619141 C111.7666,47.6923831 111.751952,47.9707032 111.825194,48.0439453 C112.425779,48.0146484 112.982419,47.9707032 113.553708,47.9707032 C114.124996,47.9707032 114.666988,48.0146484 115.267573,48.0439453 C115.340816,47.9707032 115.326167,47.6923831 115.267573,47.619141 C115.091792,47.619141 114.300777,47.5458989 114.256832,47.3847662 C114.18359,47.1503914 114.18359,46.7402356 114.18359,46.3007829 L114.18359,38.8300869 L116.04394,38.8300869 C116.776361,38.8300869 117.245111,39.5918049 117.450189,40.6171945 C117.479485,40.6611398 117.582024,40.6904367 117.655266,40.6904367 C117.787102,40.7050851 117.889641,40.631843 117.933586,40.5878977 C117.772454,39.8115312 117.655266,38.9619227 117.552727,38.0683688 C117.464837,38.0244236 117.420892,38.0244236 117.274407,38.0976657 C117.098626,38.1855562 116.629877,38.317392 116.395502,38.317392 L116.395502,38.317392 L116.395502,38.317392 Z M119.768555,38.3027436 C119.695313,38.3759857 119.709962,38.6543058 119.768555,38.7275479 C119.944337,38.7275479 120.735351,38.80079 120.779297,38.9619227 C120.852539,39.1962975 120.852539,39.6064533 120.852539,40.045906 L120.852539,46.3007829 C120.852539,46.7402356 120.852539,47.1503914 120.779297,47.3847662 C120.735351,47.5458989 119.944337,47.619141 119.768555,47.619141 C119.709962,47.6923831 119.695313,47.9707032 119.768555,48.0439453 C120.369141,48.0146484 120.925781,47.9707032 121.497069,47.9707032 C122.068358,47.9707032 122.61035,48.0146484 123.210935,48.0439453 C123.284177,47.9707032 123.269529,47.6923831 123.210935,47.619141 C123.035154,47.619141 122.244139,47.5458989 122.200194,47.3847662 C122.126952,47.1503914 122.126952,46.7402356 122.126952,46.3007829 L122.126952,40.045906 C122.126952,39.6064533 122.126952,39.1962975 122.200194,38.9619227 C122.244139,38.80079 123.035154,38.7275479 123.210935,38.7275479 C123.269529,38.6543058 123.284177,38.3759857 123.210935,38.3027436 C122.61035,38.3320405 122.068358,38.3759857 121.497069,38.3759857 C120.925781,38.3759857 120.369141,38.3320405 119.768555,38.3027436 L119.768555,38.3027436 L119.768555,38.3027436 Z M126.935546,38.3320405 C126.452148,38.3320405 126.115235,38.2880952 125.441407,38.2587984 C125.397462,38.3320405 125.368165,38.52247 125.441407,38.6836026 C125.617188,38.6836026 126.481445,38.80079 126.583984,38.9765711 C126.71582,39.1962975 126.730468,39.4160238 126.730468,39.9726639 L126.730468,46.3300797 C126.730468,46.8867198 126.71582,47.1064462 126.583984,47.3261725 C126.481445,47.5019536 125.617188,47.619141 125.441407,47.619141 C125.368165,47.7802736 125.397462,47.9707032 125.441407,48.0439453 C126.115235,48.0146484 126.334961,47.9707032 127.008789,47.9707032 C127.653319,47.9707032 128.092772,48.0146484 128.678709,48.0439453 C128.708006,47.9560547 128.722654,47.72168 128.649412,47.619141 C128.415037,47.619141 127.638671,47.4726568 127.55078,47.3261725 C127.404296,47.0917977 127.404296,46.8427745 127.404296,46.3154313 L127.404296,39.665047 L133.791009,47.7363284 C133.996087,48 134.230461,48.0732421 134.303703,48.0732421 C134.347649,48.0732421 134.479485,48.0585937 134.494133,47.9853516 C134.464836,47.2236336 134.464836,46.8134777 134.464836,45.9638691 L134.464836,40.0019608 C134.464836,39.4453207 134.479485,39.2255943 134.61132,39.005868 C134.713859,38.8300869 135.578116,38.7128995 135.753897,38.7128995 C135.82714,38.5517668 135.797843,38.3613373 135.753897,38.2880952 C135.08007,38.317392 134.860344,38.3613373 134.186516,38.3613373 C133.541985,38.3613373 133.087884,38.317392 132.501947,38.2880952 C132.472651,38.3759857 132.458002,38.6103605 132.531244,38.7128995 C132.765619,38.7128995 133.556634,38.8593837 133.644524,39.005868 C133.791009,39.2402427 133.791009,39.4892659 133.791009,40.0166092 L133.791009,44.7187531 L133.791009,45.5683617 C132.165034,43.297856 128.795896,39.4746175 128.048827,38.3027436 C127.843749,38.317392 127.374999,38.3320405 126.935546,38.3320405 L126.935546,38.3320405 L126.935546,38.3320405 Z M144.883783,45.4365259 L144.883783,46.9160167 C144.883783,47.0185556 144.869135,47.0917977 144.781244,47.135743 C144.341792,47.3554694 143.770503,47.6044926 143.008785,47.6044926 C140.445311,47.6044926 139.200195,45.2607448 139.200195,42.9755907 C139.200195,40.9248114 140.606444,38.7128995 142.77441,38.7128995 C145.220697,38.7128995 145.557611,40.3974682 145.645501,40.8515693 C145.689447,40.8808662 145.733392,40.8955146 145.821282,40.8955146 C145.967767,40.8955146 146.158196,40.7929756 146.143548,40.7050851 C146.143548,40.5586008 145.806634,38.5371184 145.806634,38.5371184 C144.722651,38.3027436 143.667964,38.2295015 142.701168,38.2295015 C139.815429,38.2295015 137.750001,40.5439524 137.750001,43.2832076 C137.750001,45.8759786 139.742187,48.0878905 142.642574,48.0878905 C144.576166,48.0878905 145.367181,47.6630863 145.997063,47.3261725 C146.246087,47.1943367 146.290032,47.1503914 146.290032,47.0625009 C146.290032,46.9160167 146.143548,46.7841808 146.143548,46.476564 L146.143548,45.4365259 C146.143548,44.9970732 146.143548,44.5869173 146.21679,44.3525425 C146.260735,44.1914099 146.993156,44.1181678 147.168937,44.1181678 C147.227531,44.0449256 147.242179,43.7666056 147.168937,43.6933635 C146.568352,43.7226603 146.099602,43.7666056 145.528314,43.7666056 C144.957025,43.7666056 144.415034,43.7226603 143.814448,43.6933635 C143.741206,43.7666056 143.755855,44.0449256 143.814448,44.1181678 C143.990229,44.1181678 144.766596,44.1914099 144.810541,44.3525425 C144.883783,44.5869173 144.883783,44.9970732 144.883783,45.4365259 L144.883783,45.4365259 L144.883783,45.4365259 Z" id="WEB-COPYWRITING" fill="#DDDDDD"></path>
                </g>
            </g>
        </g>
    </g>
</svg>