<?xml version="1.0" encoding="UTF-8" standalone="no"?>
<svg width="150px" height="150px" viewBox="0 0 150 150" version="1.1" xmlns="http://www.w3.org/2000/svg" xmlns:xlink="http://www.w3.org/1999/xlink" xmlns:sketch="http://www.bohemiancoding.com/sketch/ns">
    <!-- Generator: Sketch 3.0 (7574) - http://www.bohemiancoding.com/sketch -->
    <title>Slice 1</title>
    <description>Created with Sketch.</description>
    <defs></defs>
    <g id="Page-1" stroke="none" stroke-width="1" fill="none" fill-rule="evenodd" sketch:type="MSPage">
        <g id="Oval-2-+-icon-mail" sketch:type="MSLayerGroup">
            <path d="M75,150 C116.421356,150 150,116.421356 150,75 C150,33.5786438 116.421356,0 75,0 C33.5786438,0 0,33.5786438 0,75 C0,116.421356 33.5786438,150 75,150 Z" id="Oval-2" stroke="#E4E4E4" stroke-width="2" stroke-linecap="square" sketch:type="MSShapeGroup"></path>
            <g id="icon-mail" transform="translate(28.454738, 44.599057)" fill="#FFFFFF" sketch:type="MSShapeGroup">
                <path d="M82.2376179,0 L11.7482311,0 C5.26027049,0 0,5.26893082 0,11.7610063 L0,49.9842767 C0,56.4792925 5.26027049,61.745283 11.7482311,61.745283 L82.2376179,61.745283 C88.7255786,61.745283 93.9858491,56.4792925 93.9858491,49.9842767 L93.9858491,11.7610063 C93.9858491,5.26893082 88.7255786,0 82.2376179,0 L82.2376179,0 Z M5.87411557,15.4363208 L26.430583,30.8726415 L5.87411557,46.3089623 L5.87411557,15.4363208 L5.87411557,15.4363208 Z M88.1117335,49.9842767 C88.1117335,53.2303145 85.4742556,55.8647799 82.2376179,55.8647799 L11.7482311,55.8647799 C8.5086564,55.8647799 5.87411557,53.2303145 5.87411557,49.9842767 L28.8771521,32.7102987 L41.7062205,42.3455031 C43.2716723,43.5157233 45.1308299,44.1096541 46.9929245,44.1096541 C48.8520821,44.1096541 50.7112397,43.5186635 52.2766915,42.3455031 L65.1086969,32.7102987 L88.1117335,49.9842767 L88.1117335,49.9842767 Z M88.1117335,46.3089623 L67.552329,30.8726415 L88.1117335,15.4363208 L88.1117335,46.3089623 L88.1117335,46.3089623 Z M50.5144568,39.9933019 C49.4894236,40.7636478 48.2734817,41.1694025 46.9929245,41.1694025 C45.7123673,41.1694025 44.4934884,40.7607075 43.4684552,39.9933019 L5.87411557,11.7610063 C5.87411557,8.51790881 8.5086564,5.88050314 11.7482311,5.88050314 L82.2376179,5.88050314 C85.4742556,5.88050314 88.1117335,8.51790881 88.1117335,11.7610063 L50.5144568,39.9933019 L50.5144568,39.9933019 Z" id="Shape"></path>
            </g>
        </g>
    </g>
</svg>