<?xml version="1.0" encoding="UTF-8" standalone="no"?>
<svg width="28px" height="27px" viewBox="0 0 28 27" version="1.1" xmlns="http://www.w3.org/2000/svg" xmlns:xlink="http://www.w3.org/1999/xlink" xmlns:sketch="http://www.bohemiancoding.com/sketch/ns">
    <!-- Generator: Sketch 3.0 (7574) - http://www.bohemiancoding.com/sketch -->
    <title>Slice 1</title>
    <description>Created with Sketch.</description>
    <defs></defs>
    <g id="Page-1" stroke="none" stroke-width="1" fill="none" fill-rule="evenodd" sketch:type="MSPage">
        <g id="Group" sketch:type="MSLayerGroup" transform="translate(0.000000, -3.000000)" fill="#Fff">
            <g id="icon-user-link" transform="translate(0.000000, 3.000000)" sketch:type="MSShapeGroup">
                <g id="icon-user">
                    <path d="M17.463,18.96 C16.772,18.85 16.756,16.95 16.756,16.95 C16.756,16.95 18.786,14.94 19.229,12.237 C20.419,12.237 21.155,9.364 19.964,8.353 C20.014,7.289 21.494,-0.001 14,-0.001 C6.506,-0.001 7.986,7.289 8.035,8.353 C6.845,9.364 7.58,12.237 8.77,12.237 C9.212,14.94 11.243,16.95 11.243,16.95 C11.243,16.95 11.227,18.85 10.536,18.96 C8.31,19.314 -0.001,22.98 -0.001,27 L27.999,27 C27.999,22.98 19.688,19.315 17.462,18.96 L17.463,18.96 Z" id="Shape"></path>
                </g>
            </g>
        </g>
    </g>
</svg>