<?xml version="1.0" encoding="UTF-8" standalone="no"?>
<svg width="560px" height="560px" viewBox="0 0 560 560" version="1.1" xmlns="http://www.w3.org/2000/svg" xmlns:xlink="http://www.w3.org/1999/xlink" xmlns:sketch="http://www.bohemiancoding.com/sketch/ns">
    <!-- Generator: Sketch 3.0 (7574) - http://www.bohemiancoding.com/sketch -->
    <title>Slice 1</title>
    <description>Created with Sketch.</description>
    <defs></defs>
    <g id="Page-1" stroke="none" stroke-width="1" fill="none" fill-rule="evenodd" sketch:type="MSPage">
        <g id="Oval-12-+-Oval-12" sketch:type="MSLayerGroup">
            <path d="M559.500891,280 C559.500891,125.63543 434.140621,0.498220641 279.500891,0.498220641 C433.58932,1.49466192 558.502674,126.18575 558.502674,280 C558.502674,433.81425 433.58932,558.505338 279.500891,558.505338 C434.140621,559.501779 559.500891,434.36457 559.500891,280 Z" id="Oval-12" fill="#FF3878" sketch:type="MSShapeGroup"></path>
            <path d="M278.499653,558.503583 L278.496146,559.500018 C278.830993,559.501192 279.165908,559.501779 279.500891,559.501779 L279.500891,558.505338 C279.167077,558.505338 278.833331,558.504753 278.499653,558.503583 Z M275.507425,558.477391 L275.493423,559.473734 C275.82526,559.478381 276.15717,559.482451 276.48915,559.485944 L276.49967,558.489558 C276.168851,558.486078 275.838102,558.482022 275.507425,558.477391 Z M272.536778,558.420275 L272.512331,559.416418 C272.841168,559.424459 273.170079,559.431933 273.499064,559.438839 L273.520051,558.442618 C273.19222,558.435736 272.864462,558.428288 272.536778,558.420275 Z M269.518453,558.330402 L269.483372,559.326228 C269.818345,559.337987 270.153399,559.349155 270.488533,559.359734 L270.520083,558.36379 C270.186126,558.353249 269.852249,558.342119 269.518453,558.330402 Z M266.563624,558.211238 L266.518112,559.206643 C266.849987,559.221763 267.181946,559.236304 267.513988,559.250264 L267.555995,558.254706 C267.225122,558.240794 266.894331,558.226305 266.563624,558.211238 Z M263.589012,558.060013 L263.532978,559.054883 C263.86172,559.073333 264.19055,559.091214 264.519464,559.108524 L264.572019,558.113465 C264.244265,558.096215 263.916595,558.078398 263.589012,558.060013 Z M260.568345,557.874235 L260.501606,558.868447 C260.836095,558.890821 261.170678,558.912603 261.505353,558.933795 L261.568545,557.939352 C261.235052,557.918235 260.901651,557.89653 260.568345,557.874235 Z M257.610803,557.660774 L257.533567,558.654228 C257.864826,558.67989 258.196183,558.704972 258.527634,558.729474 L258.601353,557.735753 C258.271074,557.711339 257.940891,557.686346 257.610803,557.660774 Z M254.634349,557.414288 L254.54653,558.406866 C254.874526,558.435783 255.202621,558.464129 255.530814,558.491905 L255.615144,557.499026 C255.288114,557.471349 254.961183,557.443103 254.634349,557.414288 Z M251.640946,557.134233 L251.542467,558.125813 C251.875847,558.158805 252.209333,558.191207 252.542926,558.223018 L252.637853,557.231092 C252.305445,557.199394 251.973142,557.167107 251.640946,557.134233 Z M248.655429,556.82264 L248.546304,557.813109 C248.876294,557.849336 249.206392,557.884984 249.536599,557.920052 L249.642203,556.929203 C249.31317,556.894259 248.984245,556.858738 248.655429,556.82264 Z M245.681248,556.480029 L245.561504,557.469274 C245.896605,557.509693 246.231825,557.549513 246.567161,557.588734 L246.683326,556.599063 C246.349184,556.559982 246.015157,556.520303 245.681248,556.480029 Z M242.714936,556.106151 L242.584586,557.09406 C242.916202,557.13766 243.247937,557.180672 243.579792,557.223095 L243.706595,556.234726 C243.375923,556.192454 243.045369,556.149595 242.714936,556.106151 Z M239.785466,555.705218 L239.644632,556.691692 C239.97279,556.738376 240.301071,556.784482 240.629473,556.830012 L240.766794,555.843044 C240.439563,555.797677 240.112454,555.751735 239.785466,555.705218 Z M236.787207,555.262071 L236.63563,556.246958 C236.968475,556.298001 237.301451,556.34845 237.634556,556.398304 L237.782566,555.412878 C237.45065,555.363202 237.118863,555.312933 236.787207,555.262071 Z M233.850953,554.795745 L233.688845,555.778959 C234.018108,555.833053 234.347503,555.886564 234.677031,555.939491 L234.835606,554.955703 C234.507256,554.902965 234.179038,554.849646 233.850953,554.795745 Z M230.924965,554.299018 L230.752355,555.280449 C231.078033,555.337524 231.403846,555.394027 231.729793,555.449958 L231.898906,554.46792 C231.574125,554.41219 231.249478,554.355889 230.924965,554.299018 Z M227.958946,553.762654 L227.775681,554.742158 C228.105684,554.803682 228.43583,554.864617 228.76612,554.924962 L228.945839,553.944803 C228.616732,553.884674 228.287767,553.823957 227.958946,553.762654 Z M225.027758,553.19989 L224.833956,554.177371 C225.160249,554.241834 225.486689,554.30572 225.813273,554.369028 L226.003566,553.39086 C225.678152,553.327779 225.352882,553.264122 225.027758,553.19989 Z M222.107541,552.606684 L221.903235,553.582032 C222.225818,553.649363 222.548549,553.716129 222.871427,553.782328 L223.072262,552.806263 C222.750542,552.740301 222.428968,552.673775 222.107541,552.606684 Z M219.149111,551.972351 L218.934156,552.945415 C219.260669,553.017287 219.58734,553.088578 219.914166,553.159286 L220.125605,552.185455 C219.799951,552.115 219.474453,552.043965 219.149111,551.972351 Z M216.251721,551.318312 L216.026334,552.289021 C216.349047,552.363685 216.67192,552.43778 216.994951,552.511304 L217.216863,551.539797 C216.894991,551.466537 216.573277,551.392708 216.251721,551.318312 Z M213.343394,550.628912 L213.107529,551.597137 C213.433939,551.67637 213.760517,551.755018 214.087263,551.833081 L214.31961,550.864008 C213.994038,550.786225 213.668632,550.70786 213.343394,550.628912 Z M210.443348,549.908397 L210.197032,550.874026 C210.51952,550.955995 210.842178,551.037391 211.165004,551.118214 L211.407843,550.151708 C211.086176,550.071175 210.764677,549.990071 210.443348,549.908397 Z M207.581315,549.164671 L207.324683,550.12762 C207.643286,550.212227 207.96206,550.296275 208.281004,550.379761 L208.534201,549.415907 C208.216402,549.332721 207.898773,549.248975 207.581315,549.164671 Z M204.683814,548.378396 L204.416736,549.33851 C204.738645,549.427738 205.060735,549.516392 205.383005,549.604472 L205.646612,548.643403 C205.3255,548.55564 205.004567,548.467304 204.683814,548.378396 Z M201.794868,547.560752 L201.517372,548.517917 C201.835239,548.609743 202.153288,548.701008 202.471519,548.791711 L202.745587,547.833562 C202.4285,547.743185 202.111593,547.652248 201.794868,547.560752 Z M198.923272,546.714366 L198.63542,547.668478 C198.956329,547.764951 199.277429,547.860849 199.59872,547.956172 L199.883111,547.001025 C199.562974,546.906045 199.243027,546.810491 198.923272,546.714366 Z M196.060278,545.836791 L195.762101,546.787739 C196.078884,546.886715 196.39586,546.98513 196.713028,547.082982 L197.007788,546.130973 C196.69176,546.033473 196.375923,545.935412 196.060278,545.836791 Z M193.2153,544.931047 L192.906862,545.878729 C193.226424,545.982365 193.546188,546.085427 193.866154,546.187915 L194.171145,545.239123 C193.852328,545.137003 193.533713,545.034311 193.2153,544.931047 Z M190.378978,543.994282 L190.060312,544.938585 C190.375666,545.044627 190.691225,545.150107 191.006986,545.255026 L191.322251,544.309586 C191.007624,544.205044 190.693199,544.099943 190.378978,543.994282 Z M187.536188,543.021177 L187.207271,543.961971 C187.525105,544.072696 187.843154,544.182849 188.161416,544.292429 L188.486905,543.350447 C188.169786,543.241261 187.85288,543.131504 187.536188,543.021177 Z M184.727379,542.0257 L184.388336,542.962905 C184.701885,543.075932 185.015649,543.188399 185.329627,543.300307 L185.66529,542.361889 C185.352439,542.250384 185.039802,542.138321 184.727379,542.0257 Z M181.932465,541.001218 L181.583347,541.93473 C181.892617,542.049981 182.202104,542.164686 182.511804,542.278844 L182.857588,541.344096 C182.549,541.230348 182.240625,541.116055 181.932465,541.001218 Z M179.132436,539.940524 L178.773227,540.870213 C179.084637,540.990107 179.396272,541.109444 179.708132,541.228224 L180.063985,540.297249 C179.753245,540.178895 179.442728,540.059987 179.132436,539.940524 Z M176.34149,538.848654 L175.972225,539.77441 C176.279243,539.896437 176.586486,540.017922 176.893955,540.138863 L177.259911,539.211799 C176.953546,539.091292 176.647405,538.970243 176.34149,538.848654 Z M173.571095,537.730218 L173.191852,538.651945 C173.500754,538.778591 173.809893,538.904684 174.119267,539.030225 L174.495183,538.10714 C174.186919,537.98205 173.878889,537.856409 173.571095,537.730218 Z M170.809872,536.580735 L170.420686,537.498323 C170.725124,537.626988 171.029799,537.755115 171.334709,537.882702 L171.720615,536.963735 C171.416799,536.836605 171.113218,536.708938 170.809872,536.580735 Z M168.045606,535.394776 L167.646471,536.308095 C167.952504,536.441361 168.258783,536.57408 168.565308,536.706251 L168.961148,535.791504 C168.655723,535.659807 168.350542,535.527564 168.045606,535.394776 Z M165.314979,534.188188 L164.906019,535.097166 C165.207518,535.232331 165.509264,535.366964 165.811254,535.501062 L166.21697,534.590636 C165.916062,534.457018 165.615398,534.322869 165.314979,534.188188 Z M162.582219,532.945279 L162.163431,533.849787 C162.466277,533.989507 162.76938,534.128686 163.072737,534.267323 L163.488268,533.361319 C163.185997,533.223178 162.883981,533.084498 162.582219,532.945279 Z M159.882933,531.682349 L159.45444,532.582316 C159.752687,532.723813 160.051189,532.864782 160.349946,533.005223 L160.775232,532.103741 C160.477545,531.963803 160.180111,531.823338 159.882933,531.682349 Z M157.18242,530.383273 L156.744223,531.278572 C157.043573,531.424566 157.343189,531.570026 157.64307,531.714951 L158.078049,530.81809 C157.779242,530.673683 157.480699,530.528744 157.18242,530.383273 Z M154.498441,529.056359 L154.050603,529.946892 C154.350893,530.097367 154.651458,530.247302 154.952298,530.396696 L155.396909,529.504553 C155.097146,529.355694 154.797656,529.206295 154.498441,529.056359 Z M151.847691,527.710304 L151.390337,528.596004 C151.68589,528.748078 151.981718,528.899626 152.277819,529.050647 L152.731999,528.16332 C152.436957,528.012839 152.142187,527.861833 151.847691,527.710304 Z M149.220307,526.340673 L148.753524,527.221458 C149.049822,527.377927 149.346405,527.533864 149.643271,527.689269 L150.106873,526.806811 C149.811069,526.651962 149.515546,526.496582 149.220307,526.340673 Z M146.602608,524.940428 L146.126436,525.816191 C146.41794,525.974125 146.709728,526.131541 147.001798,526.28844 L147.474842,525.410989 C147.183816,525.254651 146.893071,525.097797 146.602608,524.940428 Z M143.96299,523.491802 L143.477355,524.362372 C143.769288,524.524645 144.061515,524.686395 144.354033,524.847623 L144.836537,523.97532 C144.545064,523.814668 144.253881,523.653495 143.96299,523.491802 Z M141.37938,522.037652 L140.884486,522.903011 C141.171572,523.066611 141.45895,523.229702 141.746618,523.392285 L142.238434,522.525179 C141.951793,522.363177 141.665441,522.200668 141.37938,522.037652 Z M138.775055,520.534889 L138.270833,521.394865 C138.558121,521.562709 138.84571,521.730041 139.133598,521.896861 L139.634741,521.035093 C139.34788,520.868869 139.061317,520.702134 138.775055,520.534889 Z M136.211342,519.01866 L135.697943,519.873209 C135.985321,520.045247 136.273009,520.21677 136.561005,520.387778 L137.071326,519.531394 C136.784357,519.360996 136.497695,519.190085 136.211342,519.01866 Z M133.658,517.471493 L133.135465,518.320506 C133.417836,518.493677 133.700515,518.666347 133.9835,518.838517 L134.503013,517.987657 C134.221036,517.816102 133.939365,517.644047 133.658,517.471493 Z M131.108233,515.888865 L130.576578,516.732218 C130.858776,516.909485 131.141291,517.086248 131.424121,517.262508 L131.952756,516.417266 C131.670933,516.241634 131.389425,516.0655 131.108233,515.888865 Z M128.577168,514.279922 L128.036465,515.117523 C128.318339,515.298836 128.600539,515.479645 128.883062,515.659947 L129.42075,514.820414 C129.139232,514.640754 128.858038,514.46059 128.577168,514.279922 Z M126.078896,512.654024 L125.529267,513.485815 C125.806028,513.668042 126.083112,513.849779 126.360518,514.031025 L126.907188,513.197293 C126.63077,513.016692 126.354672,512.835602 126.078896,512.654024 Z M123.585543,510.993106 L123.027009,511.818965 C123.303235,512.005115 123.579793,512.190773 123.856682,512.375938 L124.412264,511.548097 C124.136361,511.36359 123.860787,511.178593 123.585543,510.993106 Z M121.111457,509.30648 L120.54409,510.126318 C120.819637,510.316332 121.095524,510.505852 121.371749,510.694879 L121.936172,509.873019 C121.660929,509.684664 121.386024,509.495818 121.111457,509.30648 Z M118.669966,507.60362 L118.093886,508.417382 C118.364225,508.60808 118.6349,508.7983 118.905912,508.988042 L119.479105,508.172252 C119.209057,507.983185 118.939343,507.79364 118.669966,507.60362 Z M116.234724,505.866221 L115.649958,506.673785 C115.919416,506.868208 116.189219,507.062154 116.459366,507.255621 L117.041256,506.445989 C116.772069,506.25321 116.503225,506.059954 116.234724,505.866221 Z M113.819314,504.10372 L113.225935,504.904999 C113.494373,505.103081 113.763163,505.300685 114.032305,505.497809 L114.622819,504.694424 C114.354634,504.498 114.086798,504.301098 113.819314,504.10372 Z M111.423922,502.316321 L110.822005,503.11123 C111.089285,503.312898 111.356924,503.514089 111.624923,503.714801 L112.223989,502.917749 C111.956942,502.71775 111.690252,502.517274 111.423922,502.316321 Z M109.060875,500.513592 L108.450538,501.302076 C108.712474,501.50411 108.974766,501.705682 109.237414,501.90679 L109.844957,501.116159 C109.583242,500.915764 109.321881,500.714908 109.060875,500.513592 Z M106.685371,498.660884 L106.066572,499.44277 C106.327116,499.648236 106.588024,499.853241 106.849294,500.057784 L107.465315,499.273716 C107.204972,499.069899 106.94499,498.865621 106.685371,498.660884 Z M104.35109,496.799808 L103.723979,497.575066 C103.983047,497.783882 104.242485,497.992239 104.502292,498.200134 L105.126642,497.422658 C104.867756,497.2155 104.609238,497.007883 104.35109,496.799808 Z M102.037578,494.914643 L101.402231,495.68319 C101.659693,495.895273 101.917532,496.106899 102.175747,496.318065 L102.80835,495.547266 C102.551051,495.336849 102.294127,495.125974 102.037578,494.914643 Z M99.7251037,492.988824 L99.0815264,493.750516 C99.337207,493.965781 99.5932712,494.180589 99.8497177,494.394941 L100.490571,493.630963 C100.235034,493.417371 99.9798776,493.203324 99.7251037,492.988824 Z M97.4538744,491.055883 L96.8022154,491.810698 C97.0560384,492.029053 97.3102511,492.246955 97.5648524,492.464404 L98.2138076,491.707271 C97.960109,491.490594 97.7067975,491.273464 97.4538744,491.055883 Z M95.2039754,489.099462 L94.5443122,489.847317 C94.7961555,490.068672 95.0483945,490.289577 95.301028,490.51003 L95.9580089,489.759826 C95.7062709,489.540154 95.454926,489.320032 95.2039754,489.099462 Z M92.9666726,487.111755 L92.2990513,487.852539 C92.5452649,488.073647 92.7918686,488.29432 93.0388613,488.514559 L93.7038605,487.771428 C93.4577433,487.55197 93.2120136,487.332079 92.9666726,487.111755 Z M90.7599463,485.108767 L90.0844769,485.842428 C90.3285527,486.066346 90.5730241,486.289833 90.8178897,486.512888 L91.4907602,485.776851 C91.2467623,485.554586 91.0031573,485.331891 90.7599463,485.108767 Z M88.5561316,483.065115 L87.8728252,483.791509 C88.1145989,484.018133 88.3567732,484.24433 88.5993467,484.4701 L89.2800788,483.741301 C89.0383648,483.516332 88.7970486,483.290936 88.5561316,483.065115 Z M86.3935673,481.016381 L85.7025714,481.73549 C85.9419797,481.964721 86.1817934,482.193529 86.4220111,482.421914 L87.110458,481.700373 C86.8710914,481.472798 86.6321274,481.2448 86.3935673,481.016381 Z M84.2532679,478.945177 L83.554662,479.656921 C83.7915954,479.888654 84.0289386,480.119969 84.2666902,480.350865 L84.9627735,479.636662 C84.7258641,479.406584 84.4893619,479.176089 84.2532679,478.945177 Z M82.1170227,476.833324 L81.4108214,477.53756 C81.6451227,477.77168 81.8798377,478.005386 82.1149654,478.238679 L82.818672,477.531959 C82.5843773,477.299493 82.3504938,477.066614 82.1170227,476.833324 Z M80.022007,474.717592 L79.308357,475.414305 C79.539972,475.650707 79.7720045,475.886701 80.0044535,476.122286 L80.7156373,475.423064 C80.4840118,475.188314 80.2528014,474.953156 80.022007,474.717592 Z M77.9229914,472.552027 L77.2018783,473.241041 C77.4335959,473.482691 77.6657454,473.723929 77.8983257,473.964753 L78.6169713,473.273175 C78.3852151,473.033204 78.1538881,472.792821 77.9229914,472.552027 Z M75.8742292,470.392617 L75.1458311,471.073953 C75.3745881,471.317642 75.6037801,471.560924 75.8334059,471.803798 L76.5593678,471.119876 C76.3305556,470.877863 76.1021757,470.635443 75.8742292,470.392617 Z M73.8310679,468.192607 L73.095404,468.866118 C73.321054,469.111715 73.5471414,469.356912 73.7736652,469.601706 L74.5069256,468.925588 C74.2812045,468.68166 74.0559182,468.437333 73.8310679,468.192607 Z M71.8290791,465.990299 L71.0862951,466.655978 C71.3087976,466.90337 71.5317399,467.150368 71.7551208,467.396971 L72.4955344,466.728666 C72.2729451,466.482936 72.050793,466.236814 71.8290791,465.990299 Z M69.8334735,463.747421 L69.0835911,464.405122 C69.3028053,464.654172 69.5224611,464.902835 69.7425573,465.15111 L70.4901039,464.490764 C70.2707878,464.243369 70.0519106,463.995588 69.8334735,463.747421 Z M67.871274,461.494052 L67.1144108,462.143737 C67.3328776,462.397339 67.5517982,462.650552 67.7711715,462.903376 L68.5257063,462.250998 C68.3071108,461.999071 68.0889663,461.746755 67.871274,461.494052 Z M65.924189,459.20918 L65.1603974,459.850734 C65.3753357,460.105715 65.5907287,460.360315 65.8065754,460.614533 L66.5680757,459.97027 C66.3529944,459.716954 66.1383652,459.463257 65.924189,459.20918 Z M64.0181907,456.923562 L63.2476152,457.556981 C63.458999,457.813222 63.6708381,458.06909 63.8831314,458.324582 L64.6514528,457.68844 C64.4399124,457.433854 64.2288247,457.178894 64.0181907,456.923562 Z M62.1293959,454.608905 L61.3520961,455.234084 C61.5622137,455.4944 61.7727973,455.754341 61.9838457,456.013907 L62.7589042,455.385961 C62.5486044,455.127316 62.338768,454.868297 62.1293959,454.608905 Z M60.2562691,452.262649 L59.4722991,452.879473 C59.6785922,453.140735 59.8853509,453.401631 60.0925741,453.662161 L60.8743429,453.04256 C60.6678551,452.782954 60.4618302,452.522984 60.2562691,452.262649 Z M58.4400495,449.937377 L57.6496098,450.545918 C57.8521173,450.808022 58.0550897,451.069768 58.2585259,451.331157 L59.046804,450.719829 C58.84409,450.459368 58.6418381,450.19855 58.4400495,449.937377 Z M56.6103851,447.542704 L55.8134258,448.142712 C56.0141357,448.408356 56.2153193,448.673645 56.4169755,448.938577 L57.2117916,448.335743 C57.0108514,448.071752 56.8103822,447.807405 56.6103851,447.542704 Z M54.8220576,445.149327 L54.0187237,445.740803 C54.2174954,446.009812 54.4167492,446.278466 54.6164841,446.546765 L55.4176945,445.952426 C55.2186692,445.68508 55.0201232,445.41738 54.8220576,445.149327 Z M53.0806757,442.766396 L52.2711323,443.349375 C52.4658043,443.618742 52.6609562,443.887764 52.8565868,444.156439 L53.6640497,443.570592 C53.4691143,443.302871 53.2746559,443.034805 53.0806757,442.766396 Z M51.3433227,440.335147 L50.5275818,440.909454 C50.7200106,441.181806 50.9129264,441.453817 51.106328,441.725483 L51.9200114,441.148276 C51.7272973,440.877575 51.5350674,440.606531 51.3433227,440.335147 Z M49.6467285,437.906653 L48.8249331,438.472293 C49.0149971,438.747447 49.2055545,439.022262 49.3966044,439.296737 L50.2163666,438.728165 C50.0259962,438.454666 49.8361165,438.180829 49.6467285,437.906653 Z M47.9813418,435.4682 L47.1536008,436.025134 C47.3392919,436.300135 47.5254724,436.574807 47.7121415,436.849149 L48.5378952,436.289282 C48.3518903,436.015917 48.1663721,435.742222 47.9813418,435.4682 Z M46.3217518,432.981792 L45.4880833,433.529846 C45.6710816,433.807223 45.8545746,434.084274 46.0385612,434.361 L46.8702702,433.809987 C46.6869385,433.534247 46.5040987,433.258181 46.3217518,432.981792 Z M44.6886461,430.477328 L43.8491421,431.016433 C44.0292886,431.295963 44.209934,431.575173 44.3910774,431.85406 L45.2286515,431.311973 C45.0481531,431.034078 44.868151,430.755863 44.6886461,430.477328 Z M43.0960871,427.977081 L42.2508899,428.507248 C42.4280878,428.788734 42.6057882,429.069904 42.7839904,429.350758 L43.6272884,428.817586 C43.449721,428.537733 43.2726536,428.257564 43.0960871,427.977081 Z M41.51624,425.437283 L40.6653924,425.958366 C40.8394395,426.241548 41.0139921,426.524419 41.1890491,426.806979 L42.0380302,426.282871 C41.8635971,426.001318 41.6896667,425.719455 41.51624,425.437283 Z M39.963398,422.880049 L39.1069939,423.391981 C39.2777506,423.676622 39.4490146,423.960958 39.6207853,424.244988 L40.4753572,423.730014 C40.3041991,423.446996 40.1335457,423.163674 39.963398,422.880049 Z M38.4332881,420.297986 L37.5714062,420.800675 C37.7402177,421.089081 37.909547,421.377183 38.0793931,421.66498 L38.9394626,421.159208 C38.7702224,420.872437 38.6014973,420.585363 38.4332881,420.297986 Z M36.9480941,417.729276 L36.0808927,418.222764 C36.2461547,418.512145 36.4119348,418.801228 36.5782322,419.090014 L37.4436584,418.59343 C37.2779546,418.305675 37.1127662,418.017623 36.9480941,417.729276 Z M35.4772359,415.121223 L34.6047636,415.605366 C34.7663005,415.895436 34.9283549,416.185217 35.0909261,416.474707 L35.9616621,415.98746 C35.7996715,415.699003 35.6381958,415.410257 35.4772359,415.121223 Z M34.0425934,412.512255 L33.1649776,412.987044 C33.3240466,413.280027 33.4836405,413.572723 33.6437585,413.865132 L34.5196636,413.387205 C34.3601176,413.095842 34.2010939,412.804191 34.0425934,412.512255 Z M32.6272134,409.87144 L31.7445207,410.336756 C31.8995945,410.629881 32.0551907,410.922727 32.2113087,411.215293 L33.0923327,410.746836 C32.9367728,410.455316 32.7817327,410.163517 32.6272134,409.87144 Z M31.2482235,407.230637 L30.3605821,407.686477 C30.5128265,407.981883 30.6655987,408.277015 30.8188979,408.571871 L31.7049001,408.112865 C31.5521492,407.819064 31.3999233,407.524987 31.2482235,407.230637 Z M29.8855218,404.550964 L28.9929879,404.997182 C29.142152,405.294482 29.2918478,405.591512 29.4420745,405.88827 L30.3330016,405.438863 C30.1833124,405.143167 30.0341522,404.8472 29.8855218,404.550964 Z M28.5629882,401.879271 L27.6657036,402.315893 C27.8116627,402.614782 27.9581565,402.913405 28.105184,403.211762 L29.0008953,402.771934 C28.8543941,402.474645 28.7084248,402.17709 28.5629882,401.879271 Z M27.2687978,399.192513 L26.3668624,399.61948 C26.5094442,399.919603 26.6525623,400.219466 26.7962159,400.519069 L27.6966137,400.088881 C27.5534745,399.790351 27.410869,399.491561 27.2687978,399.192513 Z M26.000085,396.48435 L25.0935884,396.90158 C25.2336345,397.20477 25.3742251,397.507703 25.5153596,397.810378 L26.4203451,397.389892 C26.2797163,397.088302 26.1396294,396.786454 26.000085,396.48435 Z M24.7631959,393.768205 L23.8522505,394.175666 C23.9885584,394.479321 24.1254099,394.782726 24.2628041,395.08588 L25.172278,394.675157 C25.0353762,394.37309 24.8990152,394.070772 24.7631959,393.768205 Z M23.552378,391.031327 L22.6370759,391.42894 C22.770415,391.734794 22.9043029,392.040402 23.0387388,392.345762 L23.9526006,391.944862 C23.8186467,391.640596 23.6852389,391.336084 23.552378,391.031327 Z M22.3734039,388.286622 L21.4538582,388.674355 C21.5831449,388.97988 21.7129766,389.285167 21.8433528,389.590214 L22.7615015,389.199195 C22.6315929,388.895243 22.5022269,388.591051 22.3734039,388.286622 Z M21.2285914,385.54016 L20.3049234,385.918004 C20.4317383,386.22691 20.5591078,386.535579 20.6870314,386.844011 L21.6093283,386.462844 C21.4818637,386.155519 21.3549512,385.847957 21.2285914,385.54016 Z M20.1056777,382.762102 L19.177965,383.12994 C19.3011932,383.439625 19.4249763,383.749079 19.5493138,384.058302 L20.4756935,383.687132 C20.3518023,383.379019 20.2284635,383.070675 20.1056777,382.762102 Z M19.0219067,379.995252 L18.0902893,380.353121 C18.2098132,380.663164 18.3298911,380.972982 18.4505222,381.282576 L19.3808462,380.92137 C19.2606482,380.612888 19.1410015,380.304181 19.0219067,379.995252 Z M17.9561434,377.185226 L17.020685,377.532967 C17.1369738,377.844683 17.25382,378.156179 17.3712232,378.467454 L18.3054226,378.116356 C18.1884411,377.806199 18.0720145,377.495822 17.9561434,377.185226 Z M16.9295312,374.387346 L15.9903722,374.725002 C16.1032574,375.037865 16.2167018,375.350514 16.330705,375.662946 L17.2686415,375.321921 C17.1550478,375.010611 17.0420108,374.699085 16.9295312,374.387346 Z M15.9327342,371.577263 L14.9899813,371.904788 C15.0992525,372.218198 15.2090826,372.531399 15.3194712,372.84439 L16.2610403,372.513489 C16.1510483,372.201623 16.0416127,371.889547 15.9327342,371.577263 Z M14.9641443,368.750024 L14.0178989,369.067354 C14.1239387,369.38243 14.2305413,369.697301 14.3377061,370.011967 L15.2828024,369.691243 C15.1760227,369.377708 15.0698032,369.063968 14.9641443,368.750024 Z M14.0258482,365.911296 L13.076219,366.218388 C13.1787801,366.534413 13.2819053,366.850238 13.3855938,367.165863 L14.3341113,366.855365 C14.2307954,366.540875 14.1280408,366.226184 14.0258482,365.911296 Z M13.1164442,363.056429 L12.1635353,363.353226 C12.2628948,363.6711 12.3628228,363.988779 12.4633187,364.306261 L13.4151504,364.00604 C13.3150156,363.689698 13.2154467,363.373161 13.1164442,363.056429 Z M12.2453969,360.216141 L11.2893465,360.502695 C11.3852935,360.821672 11.481811,361.140459 11.5788982,361.459055 L12.5339081,361.169065 C12.4371697,360.851614 12.3409991,360.533973 12.2453969,360.216141 Z M11.3973019,357.340074 L10.4381931,357.616256 C10.5304198,357.935397 10.6232155,358.254355 10.7165796,358.573127 L11.6746882,358.293507 C11.5816596,357.975881 11.4891973,357.658069 11.3973019,357.340074 Z M10.586016,354.47482 L9.62398167,354.74067 C9.71273189,355.06069 9.80205226,355.380531 9.89194223,355.700191 L10.8530138,355.430895 C10.7634468,355.112383 10.6744474,354.793691 10.586016,354.47482 Z M9.80429793,351.595721 L8.83944522,351.85119 C8.92483472,352.172541 9.01079721,352.493718 9.09733216,352.814718 L10.0612585,352.555788 C9.97503439,352.235941 9.8893807,351.915918 9.80429793,351.595721 Z M9.05250563,348.703467 L8.08494304,348.94851 C8.16702823,349.271474 8.24969031,349.594266 8.33292875,349.916887 L9.29960075,349.668365 C9.21666125,349.346903 9.13429603,349.02527 9.05250563,348.703467 Z M8.33192699,345.802679 L7.36176776,346.03727 C7.44023927,346.360638 7.5192873,346.68384 7.59891134,347.006877 L8.56821918,346.768805 C8.488881,346.446928 8.41011677,346.124886 8.33192699,345.802679 Z M7.64175942,342.889819 L6.66911402,343.113917 C6.74398625,343.437728 6.81943482,343.761378 6.89545925,344.084866 L7.86729233,343.857284 C7.79154075,343.534956 7.71636296,343.212468 7.64175942,342.889819 Z M6.98722813,339.987991 L6.0122259,340.20164 C6.08379509,340.52709 6.15594477,340.852383 6.22867445,341.177519 L7.20290021,340.960369 C7.13043144,340.6364 7.05854059,340.312273 6.98722813,339.987991 Z M6.35856387,337.053379 L5.38129907,337.256466 C5.44915814,337.581846 5.51759578,337.907075 5.58661153,338.232152 L6.56314019,338.025566 C6.4943719,337.701655 6.42617964,337.377592 6.35856387,337.053379 Z M5.76565781,334.131732 L4.78626035,334.32431 C4.85059938,334.650357 4.91551775,334.976257 4.98101502,335.30201 L5.95971461,335.105928 C5.89445205,334.781343 5.8297663,334.45661 5.76565781,334.131732 Z M5.20322949,331.198292 L4.22181028,331.380325 C4.28267153,331.707287 4.34411384,332.034108 4.40613675,332.360785 L5.3868959,332.175241 C5.3250951,331.849733 5.26387282,331.524083 5.20322949,331.198292 Z M4.6716672,328.254302 L3.68833856,328.425761 C3.74569384,328.753528 3.80363153,329.081159 3.8621512,329.408652 L4.84485788,329.233676 C4.78654763,328.907356 4.72881726,328.580897 4.6716672,328.254302 Z M4.17563065,325.327358 L3.19052161,325.488311 C3.24435017,325.816596 3.29876152,326.144748 3.35375526,326.472768 L4.33828067,326.308295 C4.28348357,325.981449 4.22926676,325.654469 4.17563065,325.327358 Z M3.70610441,322.363531 L2.71931161,322.513855 C2.76955641,322.84251 2.82038391,323.171038 2.8717937,323.499436 L3.85804181,323.345591 C3.80681567,323.018366 3.75616974,322.691012 3.70610441,322.363531 Z M3.27150485,319.414919 L2.28315506,319.554679 C2.32991923,319.884207 2.37726783,320.213611 2.42520049,320.54289 L3.41304338,320.399602 C3.36528179,320.071498 3.31810215,319.74327 3.27150485,319.414919 Z M2.86800056,316.457516 L1.87820669,316.586693 C1.92142743,316.916686 1.96523296,317.246561 2.0096229,317.576315 L2.9989483,317.44361 C2.95471661,317.115032 2.91106724,316.786333 2.86800056,316.457516 Z M2.49548852,313.48954 L1.50436302,313.608107 C1.54406628,313.938814 1.5843556,314.269406 1.62523062,314.599882 L2.61592576,314.477784 C2.57519629,314.148484 2.53505043,313.819069 2.49548852,313.48954 Z M2.15452098,310.514427 L1.16217812,310.622372 C1.1982656,310.952945 1.23493745,311.283408 1.27219333,311.613761 L2.26414497,311.50229 C2.22702158,311.173113 2.19048014,310.843824 2.15452098,310.514427 Z M1.84744145,307.555275 L0.854003687,307.652669 C0.886579676,307.983768 0.919740749,308.31476 0.953486568,308.645647 L1.94657105,308.544726 C1.91294508,308.215015 1.87990177,307.885197 1.84744145,307.555275 Z M1.57134679,304.58656 L0.576925998,304.673385 C0.605995703,305.005143 0.635651717,305.3368 0.665893714,305.668354 L1.65999902,305.578001 C1.62986428,305.247623 1.60031343,304.917142 1.57134679,304.58656 Z M1.32654178,301.610079 L0.331250692,301.686322 C0.356774366,302.018328 0.382884166,302.350236 0.409579776,302.682047 L1.40459354,302.602279 C1.37799246,302.271643 1.3519751,301.940909 1.32654178,301.610079 Z M1.11314142,298.625814 L0.117092907,298.691465 C0.139047206,299.023367 0.161586253,299.355176 0.184709746,299.686892 L1.18051925,299.617722 C1.15747751,299.287179 1.13501813,298.956543 1.11314142,298.625814 Z M0.931146166,295.631543 L-0.0655471875,295.686585 C-0.0471334879,296.01883 -0.0281347945,296.350987 -0.00855140122,296.683054 L0.987940844,296.624496 C0.96842656,296.2936 0.949494903,295.962616 0.931146166,295.631543 Z M0.782079762,292.656798 L-0.215140793,292.70132 C-0.200242057,293.033841 -0.184758264,293.366278 -0.168689697,293.698629 L0.828367262,293.650595 C0.812355296,293.319414 0.796926035,292.988148 0.782079762,292.656798 Z M0.664271784,289.674157 L-0.333364622,289.708151 C-0.32198762,290.04085 -0.310025799,290.373468 -0.297479434,290.706005 L0.700030835,290.668504 C0.687528578,290.337136 0.675608803,290.005686 0.664271784,289.674157 Z M0.577884071,286.684175 L-0.42005666,286.707636 C-0.412208242,287.040281 -0.403776012,287.37285 -0.394760233,287.705342 L0.603091764,287.678381 C0.594107615,287.347055 0.585704963,287.015653 0.577884071,286.684175 Z M0.523039099,283.685663 L-0.475094429,283.698585 C-0.470770405,284.031396 -0.465862755,284.364135 -0.460371733,284.696802 L0.537710264,284.680386 C0.532238465,284.348884 0.527347992,284.017309 0.523039099,283.685663 Z M0.499991337,280.708113 L-0.498223041,280.710592 C-0.497393363,281.043386 -0.495980839,281.376112 -0.493985712,281.708769 L0.504213867,281.702803 C0.50222571,281.371308 0.500818118,281.039744 0.499991337,280.708113 Z M0.508234514,277.723532 L-0.489950967,277.715555 C-0.492621379,278.048523 -0.494707958,278.381562 -0.496210458,278.714669 L0.501996892,278.719155 C0.503494144,278.387212 0.505573434,278.055337 0.508234514,277.723532 Z M0.547614793,274.753835 L-0.450432396,274.73543 C-0.456538955,275.065407 -0.462071395,275.395456 -0.467029465,275.725577 L0.531075839,275.740514 C0.536016552,275.411549 0.54152962,275.082656 0.547614793,274.753835 Z M0.619571276,271.736269 L-0.378222679,271.707246 C-0.388035315,272.0434 -0.397251314,272.379633 -0.405870402,272.715945 L0.592020574,272.741428 C0.600609422,272.406296 0.60979308,272.071243 0.619571276,271.736269 Z M0.722398195,268.754353 L-0.275033134,268.714815 C-0.288281834,269.047851 -0.300944068,269.380969 -0.31301956,269.714168 L0.684545343,269.750192 C0.696578381,269.418164 0.70919609,269.086218 0.722398195,268.754353 Z M0.855054992,265.808219 L-0.141907596,265.758271 C-0.158496716,266.088213 -0.174509352,266.418239 -0.189945223,266.748348 L0.807186609,266.794808 C0.822568106,266.465861 0.838524327,266.136998 0.855054992,265.808219 Z M1.02320632,262.788 L0.0268390125,262.727361 C0.00633338217,263.06309 -0.0135743888,263.398911 -0.0328839945,263.734823 L0.963694122,263.791907 C0.982935581,263.45718 1.00277308,263.122544 1.02320632,262.788 Z M1.21950183,259.830895 L0.223830659,259.759768 C0.199992893,260.092277 0.176742556,260.42488 0.154079956,260.757577 L1.14999775,260.825176 C1.17258023,260.493655 1.19574836,260.162227 1.21950183,259.830895 Z M1.44880797,256.854773 L0.453951371,256.773075 C0.426816339,257.102328 0.400258311,257.431678 0.374277598,257.761125 L1.36941637,257.839325 C1.39530508,257.511044 1.42176905,257.18286 1.44880797,256.854773 Z M1.7116936,253.861494 L0.717772327,253.769145 C0.686565342,254.103824 0.65595565,254.438609 0.62594359,254.773497 L1.62019058,254.862283 C1.6500962,254.528582 1.68059732,254.194985 1.7116936,253.861494 Z M2.00340464,250.903441 L1.01052278,250.800553 C0.976066199,251.131881 0.942196139,251.463316 0.908912942,251.794858 L1.90215573,251.894215 C1.93532072,251.56385 1.96907046,251.233592 2.00340464,250.903441 Z M2.32907149,247.927276 L1.33735163,247.813769 C1.29968322,248.14171 1.26259057,248.469762 1.22607403,248.797922 L2.21818969,248.907929 C2.25457636,248.580935 2.29153707,248.254051 2.32907149,247.927276 Z M2.68572105,244.962573 L1.69527539,244.838474 C1.65340223,245.17148 1.612124,245.504604 1.57144109,245.837845 L2.56232777,245.958385 C2.60286581,245.62633 2.64399703,245.294393 2.68572105,244.962573 Z M3.06993755,242.032804 L2.08086618,241.898225 C2.03586502,242.227781 1.9914478,242.557458 1.94761491,242.887255 L2.93716137,243.018307 C2.980838,242.689686 3.02509685,242.361185 3.06993755,242.032804 Z M3.48846248,239.085679 L2.50088977,238.940548 C2.45280006,239.26662 2.40528331,239.592815 2.35833991,239.919131 L3.34642142,240.06077 C3.39319728,239.735618 3.44054443,239.410587 3.48846248,239.085679 Z M3.94584616,236.097234 L2.95991291,235.941391 C2.90745203,236.272102 2.85558195,236.602945 2.80430307,236.933918 L3.79079229,237.086215 C3.84188797,236.756424 3.89357273,236.426764 3.94584616,236.097234 Z M4.4261563,233.170603 L3.44194628,233.00426 C3.38645954,233.331394 3.3315523,233.658662 3.27722497,233.986062 L4.26202403,234.148894 C4.3161571,233.822664 4.37086799,233.496567 4.4261563,233.170603 Z M4.94167441,230.227586 L3.95931548,230.050675 C3.90084528,230.374197 3.8429433,230.697855 3.78560996,231.021648 L4.76859055,231.195083 C4.82571872,230.87245 4.88341348,230.54995 4.94167441,230.227586 Z M5.49249342,227.271643 L4.51211385,227.08411 C4.44918668,227.41191 4.38684442,227.739854 4.3250875,228.067942 L5.3061369,228.251951 C5.36767265,227.925038 5.42979164,227.598269 5.49249342,227.271643 Z M6.06958893,224.350429 L5.09128454,224.152391 C5.02544394,224.476488 4.96017665,224.800731 4.89548313,225.12512 L5.87448922,225.319671 C5.93895091,224.996445 6.0039843,224.673363 6.06958893,224.350429 Z M6.68205164,221.417166 L5.70595094,221.208575 C5.63558534,221.53668 5.56580899,221.86494 5.49662237,222.193355 L6.47347369,222.398415 C6.54241223,222.071178 6.61193838,221.744094 6.68205164,221.417166 Z M7.32001399,218.518442 L6.34620991,218.299416 C6.27300599,218.623727 6.20037944,218.948197 6.12833075,219.272823 L7.10291648,219.488357 C7.17470671,219.164896 7.2470727,218.84159 7.32001399,218.518442 Z M7.99425656,215.604891 L7.02288083,215.375372 C6.94688545,215.695856 6.87145561,216.016501 6.79659176,216.337303 L7.76877968,216.56337 C7.84337483,216.243719 7.91853395,215.924226 7.99425656,215.604891 Z M8.69150861,212.733001 L7.72264504,212.493134 C7.64210178,212.817305 7.5621389,213.141645 7.48275693,213.466153 L8.45248179,213.702526 C8.53157876,213.379184 8.61125453,213.056008 8.69150861,212.733001 Z M9.42610013,209.843187 L8.45988409,209.592904 C8.37663095,209.913161 8.29394608,210.233588 8.21182998,210.554184 L9.17893689,210.801014 C9.26075808,210.481569 9.34314599,210.162293 9.42610013,209.843187 Z M10.1966793,206.943741 L9.23324122,206.683006 C9.1453512,207.006613 9.05804331,207.3304 8.97131811,207.654366 L9.93569711,207.911611 C10.0221108,207.588809 10.109105,207.266185 10.1966793,206.943741 Z M10.9914411,204.078579 L10.0308686,203.807513 C9.94035648,204.12712 9.85041409,204.446908 9.76104198,204.766876 L10.7225839,205.034495 C10.8116349,204.715676 10.9012541,204.397037 10.9914411,204.078579 Z M11.8297441,201.179035 L10.8721947,200.897514 C10.7769948,201.220169 10.6823776,201.543016 10.5883437,201.866052 L11.5469131,202.144093 C11.6406091,201.822218 11.7348863,201.500531 11.8297441,201.179035 Z M12.684213,198.339345 L11.7297452,198.047582 C11.6320164,198.366154 11.5348576,198.684918 11.4382695,199.003874 L12.3937847,199.2922 C12.4900257,198.974391 12.5868354,198.656772 12.684213,198.339345 Z M13.5761431,195.487058 L12.624892,195.185008 C12.5246871,195.499463 12.4250396,195.814112 12.3259502,196.128954 L13.2782756,196.427611 C13.3770088,196.113901 13.4762982,195.800383 13.5761431,195.487058 Z M14.4961677,192.652896 L13.5482346,192.340625 C13.4433715,192.657817 13.3390777,192.975213 13.2353539,193.29281 L14.1844113,193.60166 C14.2877624,193.285203 14.3916814,192.968948 14.4961677,192.652896 Z M15.4472363,189.827387 L14.5027329,189.504927 C14.3954929,189.817922 14.2888095,190.131122 14.1826833,190.444525 L15.1283367,190.763608 C15.2340816,190.451332 15.3403817,190.139258 15.4472363,189.827387 Z M16.4346946,186.995615 L15.4937516,186.662945 C15.3818317,186.97838 15.2704794,187.294029 15.1596952,187.609891 L16.1018383,187.939159 C16.2122245,187.624432 16.3231768,187.309917 16.4346946,186.995615 Z M17.4444209,184.197726 L16.507118,183.85497 C16.3929258,184.166129 16.279288,184.477504 16.1662054,184.789093 L17.1047328,185.128495 C17.2174092,184.818025 17.3306388,184.507769 17.4444209,184.197726 Z M18.4904509,181.394475 L17.5569183,181.041614 C17.4380572,181.354957 17.3197607,181.668524 17.2020296,181.982316 L18.1368367,182.331798 C18.254145,182.019134 18.3720166,181.706692 18.4904509,181.394475 Z M19.5677498,178.600267 L18.6380992,178.237337 C18.5170555,178.546291 18.3965631,178.85547 18.2766227,179.164873 L19.2075711,179.524472 C19.3270809,179.21618 19.4471407,178.908111 19.5677498,178.600267 Z M20.6718417,175.826389 L19.7461685,175.453467 C19.620478,175.764349 19.4953482,176.075466 19.3707798,176.386817 L20.2978003,176.756389 C20.4219216,176.446155 20.5466023,176.136155 20.6718417,175.826389 Z M21.8070693,173.061641 L20.8854845,172.678762 C20.7577261,172.985182 20.6305149,173.291837 20.5038516,173.598727 L21.4268057,173.978305 C21.5530145,173.672516 21.6797693,173.366961 21.8070693,173.061641 Z M22.9788782,170.293599 L22.061512,169.900755 C21.929122,170.208811 21.7972876,170.517114 21.6660096,170.825661 L22.5847943,171.215188 C22.7156015,170.907748 22.846963,170.600551 22.9788782,170.293599 Z M24.1608482,167.583314 L23.2477357,167.180716 C23.1134141,167.484281 22.9796347,167.788091 22.8463981,168.092146 L23.7609496,168.491477 C23.8937085,168.188512 24.0270082,167.88579 24.1608482,167.583314 Z M25.3896766,164.846373 L24.4809847,164.433929 C24.3420757,164.738883 24.2037164,165.044093 24.0659077,165.349558 L24.9760872,165.758721 C25.1134021,165.454351 25.2512654,165.150234 25.3896766,164.846373 Z M26.6387332,162.142892 L25.7345328,161.720727 C25.5937982,162.021082 25.4535995,162.321693 25.3139376,162.622559 L26.2196447,163.041494 C26.3588063,162.741706 26.4985027,162.442172 26.6387332,162.142892 Z M27.9354782,159.414214 L27.0359389,158.982241 C26.8906562,159.283701 26.7459162,159.585426 26.6017196,159.887416 L27.5028139,160.316148 C27.646494,160.01524 27.7907157,159.714595 27.9354782,159.414214 Z M29.2406743,156.742688 L28.3458243,156.301116 C28.198844,156.597914 28.0523925,156.894977 27.9064706,157.192304 L28.8028932,157.630686 C28.9482928,157.334423 29.0942201,157.038424 29.2406743,156.742688 Z M30.5819436,154.070584 L29.6919103,153.619416 C29.5404626,153.917119 29.3895497,154.215097 29.2391725,154.513349 L30.1308255,154.961318 C30.2806647,154.664134 30.4310377,154.367222 30.5819436,154.070584 Z M31.9301081,151.454898 L31.0449141,150.994341 C30.8919133,151.287364 30.7394335,151.580661 30.5874754,151.87423 L31.4743053,152.331641 C31.6257199,152.039121 31.7776544,151.746873 31.9301081,151.454898 Z M33.3260568,148.816103 L32.4458712,148.346078 C32.2884771,148.639772 32.1316092,148.93375 31.9752684,149.228009 L32.8571361,149.694882 C33.0129181,149.401674 33.1692253,149.108747 33.3260568,148.816103 Z M34.749214,146.194442 L33.8741319,145.715016 C33.7123721,146.009222 33.5511433,146.30372 33.3904464,146.598511 L34.2672565,147.07478 C34.4273792,146.781043 34.588032,146.487597 34.749214,146.194442 Z M36.2034681,143.58285 L35.3335986,143.094063 C35.1704507,143.383377 35.0078194,143.672982 34.8457055,143.962878 L35.7173172,144.448563 C35.8788522,144.159702 36.0409028,143.871131 36.2034681,143.58285 Z M37.6806074,140.995903 L36.8160299,140.497848 C36.648607,140.787446 36.4817048,141.077344 36.3153242,141.367542 L37.1816888,141.862493 C37.3474756,141.573331 37.5137821,141.284467 37.6806074,140.995903 Z M39.1887816,138.419179 L38.3296047,137.911897 C38.1609369,138.196552 37.9927752,138.481506 37.8251206,138.766759 L38.6860972,139.270991 C38.8531537,138.986756 39.0207155,138.702819 39.1887816,138.419179 Z M40.7191151,135.86769 L39.8654155,135.351276 C39.6925727,135.635991 39.5202394,135.921016 39.3484165,136.206347 L40.2039596,136.719712 C40.3751698,136.435398 40.5468886,136.15139 40.7191151,135.86769 Z M42.2894751,133.312047 L41.4413933,132.78649 C41.2644096,133.07107 41.0879382,133.355968 40.91198,133.641182 L41.7619487,134.163692 C41.9372797,133.879495 42.1131222,133.595613 42.2894751,133.312047 Z M43.8772146,130.789248 L43.0348102,130.25467 C42.856794,130.534196 42.6792754,130.814038 42.5022551,131.094194 L43.3465568,131.62578 C43.5229464,131.346623 43.6998326,131.067778 43.8772146,130.789248 Z M45.5002723,128.270658 L44.6636688,127.727078 C44.4816285,128.006254 44.3000878,128.285754 44.1190475,128.565576 L44.9575903,129.10617 C45.1379859,128.827344 45.3188802,128.548839 45.5002723,128.270658 Z M47.1494014,125.771005 L46.3186893,125.218496 C46.1326791,125.497173 45.9471699,125.776183 45.762163,126.055524 L46.5948559,126.605054 C46.7792043,126.326707 46.9640531,126.04869 47.1494014,125.771005 Z M48.8151671,123.303992 L47.9904033,122.742673 C47.8035848,123.016196 47.6172526,123.290048 47.4314074,123.56423 L48.25816,124.122625 C48.4433439,123.849419 48.6290133,123.576541 48.8151671,123.303992 Z M50.51579,120.842523 L49.6970963,120.272419 C49.5064389,120.545237 49.3162686,120.818394 49.1265865,121.091888 L49.947309,121.659078 C50.1363166,121.386557 50.3258106,121.114372 50.51579,120.842523 Z M52.2418763,118.400556 L51.429341,117.821739 C51.2349081,118.093711 51.0409627,118.366029 50.8475061,118.638692 L51.6621096,119.214605 C51.8548785,118.942911 52.0481344,118.671561 52.2418763,118.400556 Z M53.9838953,115.991033 L53.1775729,115.403623 C52.9825665,115.670351 52.7880325,115.937422 52.593972,116.204835 L53.4023681,116.789399 C53.595739,116.522936 53.7895817,116.256814 53.9838953,115.991033 Z M55.7602731,113.58838 L54.9602838,112.992403 C54.7616465,113.25809 54.5634816,113.524127 54.3657901,113.790513 L55.1678911,114.383654 C55.3648803,114.118214 55.5623413,113.853122 55.7602731,113.58838 Z M57.5615074,111.20579 L56.7679375,110.601322 C56.5657415,110.86583 56.3640174,111.130695 56.1627662,111.395917 L56.958485,111.997563 C57.1590215,111.733283 57.3600293,111.469358 57.5615074,111.20579 Z M59.4034375,108.822923 L58.6164298,108.209966 C58.410748,108.473113 58.205537,108.736625 58.0007979,109.000501 L58.7899909,109.610652 C58.9940032,109.347713 59.1984858,109.085136 59.4034375,108.822923 Z M61.2539881,106.481199 L60.4735712,105.859901 C60.2644856,106.121602 60.0558695,106.383675 59.8477239,106.646118 L60.6303616,107.264626 C60.8377686,107.003113 61.0456445,106.74197 61.2539881,106.481199 Z M63.1193775,104.171619 L62.3456024,103.542098 C62.1363552,103.79838 61.9275619,104.055029 61.7192237,104.312046 L62.4952209,104.938835 C62.70282,104.68273 62.9108726,104.426991 63.1193775,104.171619 Z M65.0348905,101.851099 L64.2679339,101.213319 C64.0554507,101.46793 63.8434193,101.722915 63.631841,101.978274 L64.4010536,102.613342 C64.6118816,102.358889 64.8231609,102.104807 65.0348905,101.851099 Z M66.9577751,99.5717508 L66.1976615,98.9258586 C65.9820301,99.1787205 65.7668484,99.4319632 65.5521173,99.6855854 L66.3145199,100.328784 C66.5284896,100.076061 66.7429083,99.8237161 66.9577751,99.5717508 Z M68.904298,97.3135892 L68.15111,96.6596624 C67.9324205,96.9106518 67.7141779,97.162028 67.4963834,97.4137898 L68.2518924,98.0650431 C68.4689148,97.8141738 68.6863837,97.5636888 68.904298,97.3135892 Z M70.8915575,95.0573673 L70.1454389,94.3954144 C69.9237863,94.6443613 69.7025774,94.8937008 69.4818134,95.1434317 L70.2302842,95.8027332 C70.4502658,95.5538875 70.6706906,95.3054318 70.8915575,95.0573673 Z M72.8849523,92.8423252 L72.1459237,92.172494 C71.9214027,92.4193286 71.697322,92.6665612 71.4736827,92.9141908 L72.2150937,93.5813934 C72.4379404,93.3346415 72.661227,93.088285 72.8849523,92.8423252 Z M74.9013762,90.6490293 L74.1695186,89.9713981 C73.9422281,90.2160044 73.715374,90.461014 73.4889577,90.7064257 L74.2232269,91.3814523 C74.4488409,91.1369102 74.6748911,90.8927688 74.9013762,90.6490293 Z M76.9585335,88.4588019 L76.2339909,87.7733824 C76.0040373,88.0155973 75.7745158,88.2582204 75.5454278,88.5012505 L76.27241,89.184091 C76.5006864,88.941922 76.7293946,88.7001585 76.9585335,88.4588019 Z M79.0206067,86.3097473 L78.3033962,85.6166865 C78.0708803,85.8564489 77.8387921,86.0966242 77.6071328,86.337211 L78.3268102,87.027719 C78.5576486,86.7879846 78.7889146,86.5486603 79.0206067,86.3097473 Z M81.123403,84.1645225 L80.413669,83.4638344 C80.1787046,83.700986 79.9441629,83.9385547 79.7100453,84.1765392 L80.4222721,84.8747023 C80.6555603,84.637561 80.889271,84.400834 81.123403,84.1645225 Z M83.2303109,82.060457 L82.5280679,81.3522879 C82.2907595,81.5867737 82.0538689,81.8216805 81.8173972,82.0570071 L82.522158,82.7626794 C82.7577919,82.5281866 82.9938433,82.294112 83.2303109,82.060457 Z M85.3779251,79.9609885 L84.6833179,79.2453547 C84.4437867,79.4770215 84.2046676,79.7091127 83.9659618,79.9416274 L84.6631105,80.6547942 C84.9009706,80.4231034 85.1392425,80.1918344 85.3779251,79.9609885 Z M87.5288538,77.9026583 L86.8418946,77.1797059 C86.6002487,77.4085046 86.3590093,77.6377312 86.1181774,77.8673844 L86.8077009,78.5879002 C87.0476794,78.3590608 87.2880641,78.1306464 87.5288538,77.9026583 Z M89.7204657,75.8496985 L89.0412997,75.1194459 C88.7976672,75.3452288 88.554435,75.5714424 88.3116043,75.7980853 L88.993356,76.5259332 C89.2353262,76.3000933 89.4776965,76.0746813 89.7204657,75.8496985 Z M91.9146028,73.8378489 L91.2432397,73.1004417 C90.9977322,73.3231661 90.7526187,73.5463237 90.5079005,73.7699133 L91.1818695,74.504948 C91.4257205,74.2821508 91.6699654,74.0597841 91.9146028,73.8378489 Z M94.1584627,71.8240971 L93.4950804,71.0795275 C93.2447895,71.301734 92.9948955,71.5243864 92.7453996,71.7474836 L93.411439,72.4896858 C93.6600506,72.2673793 93.9090589,72.045516 94.1584627,71.8240971 Z M96.3949457,69.8596871 L95.7395193,69.1081295 C95.4876203,69.3270272 95.2361112,69.5463725 94.9849931,69.7661643 L95.6430943,70.5153892 C95.8933222,70.2963766 96.1439398,70.0778088 96.3949457,69.8596871 Z M98.6522289,67.9190623 L98.0048338,67.1606 C97.7514559,67.376105 97.4984605,67.5920589 97.2458489,67.8084606 L97.8959351,68.5646258 C98.147651,68.3489913 98.3997494,68.1338031 98.6522289,67.9190623 Z M100.950105,65.9857653 L100.310888,65.220423 C100.056177,65.432402 99.8018418,65.6448308 99.5478823,65.8577081 L100.189806,66.6207903 C100.442865,66.4086679 100.696298,66.1969925 100.950105,65.9857653 Z M103.257411,64.0862699 L102.626406,63.3141662 C102.367515,63.5249933 102.109,63.736281 101.850863,63.9480283 L102.484618,64.7178834 C102.741841,64.5068873 102.999438,64.296349 103.257411,64.0862699 Z M105.596354,62.2023076 L104.973677,61.4234961 C104.713748,61.6305757 104.454187,61.8381158 104.194995,62.0461153 L104.820435,62.8227176 C105.078708,62.6154561 105.337348,62.4086524 105.596354,62.2023076 Z M107.943828,60.3525019 L107.329512,59.5671023 C107.065746,59.7726786 106.802347,59.9787253 106.539316,60.1852413 L107.156437,60.968447 C107.418534,60.762664 107.680998,60.5573486 107.943828,60.3525019 Z M110.30231,58.5343928 L109.696397,57.742516 C109.431881,57.9441934 109.167724,58.1463402 108.903926,58.3489552 L109.512654,59.138679 C109.775515,58.9367833 110.038734,58.7353542 110.30231,58.5343928 Z M112.668081,56.7503425 L112.070598,55.9521076 C111.802583,56.1520049 111.534925,56.3523804 111.267625,56.5532329 L111.86796,57.3493328 C112.13431,57.1491936 112.401018,56.9495298 112.668081,56.7503425 Z M115.086333,54.9668196 L114.497472,54.1622263 C114.229045,54.3579826 113.960966,54.5542148 113.693235,54.7509218 L114.284954,55.5534236 C114.551733,55.3574154 114.81886,55.1618804 115.086333,54.9668196 Z M117.490108,53.2332328 L116.909819,52.4224569 C116.638265,52.6161224 116.367057,52.8102713 116.096195,53.0049028 L116.679375,53.8136086 C116.949275,53.6196689 117.219519,53.42621 117.490108,53.2332328 Z M119.933744,51.5101152 L119.362174,50.6931915 C119.087722,50.8845321 118.813613,51.0763629 118.539848,51.268683 L119.114342,52.0835605 C119.387134,51.8919242 119.660268,51.7007754 119.933744,51.5101152 Z M122.344682,49.8479593 L121.781717,49.0251029 C121.507293,49.2121851 121.233202,49.3997541 120.959445,49.5878089 L121.525334,50.4086637 C121.798118,50.2212778 122.071234,50.034376 122.344682,49.8479593 Z M124.825104,48.1763527 L124.270996,47.3475274 C123.994071,47.5320064 123.717475,47.7169776 123.441209,47.9024401 L123.998269,48.7292907 C124.273552,48.5444882 124.549164,48.3601752 124.825104,48.1763527 Z M127.323731,46.5310837 L126.778549,45.6963809 C126.499344,45.8780942 126.220463,46.0603045 125.941908,46.2430109 L126.490068,47.0757676 C126.767631,46.8937117 127.04552,46.71215 127.323731,46.5310837 Z M129.840356,44.9123264 L129.304168,44.0718382 C129.022908,44.2506298 128.741967,44.4299224 128.461347,44.6097151 L129.000537,45.4482874 C129.280157,45.2691351 129.560097,45.0904811 129.840356,44.9123264 Z M132.352601,43.334018 L131.825396,42.4878864 C131.542279,42.6636628 131.259477,42.8399436 130.976991,43.0167278 L131.507219,43.8609748 C131.788698,43.6848206 132.070493,43.509168 132.352601,43.334018 Z M134.904446,41.7685724 L134.38637,40.9168408 C134.10166,41.089403 133.81726,41.262472 133.53317,41.4360469 L134.054288,42.2859275 C134.337365,42.1129714 134.620751,41.9405194 134.904446,41.7685724 Z M137.473669,40.230158 L136.964788,39.3729204 C136.678725,39.5421319 136.392965,39.7118518 136.107509,39.8820794 L136.619447,40.7375009 C136.903885,40.5678805 137.188626,40.3987659 137.473669,40.230158 Z M140.067629,38.7145826 L139.568037,37.8519181 C139.278327,38.0191004 138.988919,38.186801 138.699814,38.355019 L139.202505,39.2158882 C139.490578,39.0482704 139.778953,38.8811683 140.067629,38.7145826 Z M142.648106,37.2437399 L142.157758,36.3758061 C141.867183,36.5393857 141.576903,36.7034836 141.286919,36.8680989 L141.780376,37.734275 C142.069325,37.5702474 142.358569,37.4067354 142.648106,37.2437399 Z M145.267971,35.787383 L144.787013,34.9142293 C144.495861,35.0740339 144.204996,35.2343559 143.91442,35.3951943 L144.398495,36.26663 C144.688033,36.106366 144.977859,35.9466167 145.267971,35.787383 Z M147.888552,34.367217 L147.416992,33.4889706 C147.123053,33.646235 146.829399,33.8040238 146.536031,33.962336 L147.01074,34.8388907 C147.30306,34.6811442 147.595664,34.5239193 147.888552,34.367217 Z M150.548177,32.9626757 L150.086158,32.0793903 C149.789811,32.2338492 149.493744,32.3888381 149.197959,32.5443561 L149.663153,33.425979 C149.957881,33.271017 150.252889,33.1165823 150.548177,32.9626757 Z M153.193356,31.6019134 L152.740832,30.7137437 C152.44472,30.864077 152.148879,31.0149365 151.853312,31.1663216 L152.309011,32.0528724 C152.603521,31.9020288 152.898303,31.7517089 153.193356,31.6019134 Z M155.861069,30.2654875 L155.418125,29.3725186 C155.120208,29.5197702 154.822559,29.6675518 154.525179,29.8158624 L154.971318,30.7072447 C155.267634,30.5594648 155.564218,30.4122122 155.861069,30.2654875 Z M158.567624,28.9459002 L158.134404,28.0481904 C157.835084,28.1921239 157.536025,28.3365896 157.23723,28.4815866 L157.673662,29.3777447 C157.971387,29.2332669 158.269375,29.0893184 158.567624,28.9459002 Z M161.272318,27.6631858 L160.848819,26.7608654 C160.546184,26.9024003 160.243809,27.0444764 159.941695,27.1870928 L160.368443,28.0878864 C160.669475,27.9457808 160.970767,27.8042136 161.272318,27.6631858 Z M163.985054,26.4122346 L163.57131,25.505416 C163.267988,25.6433175 162.964919,25.78176 162.662104,25.9207426 L163.079106,26.8260729 C163.380836,26.6875883 163.682819,26.5496419 163.985054,26.4122346 Z M166.718752,25.1871419 L166.314842,24.2759163 C166.009067,24.4109723 165.703542,24.5465754 165.398268,24.6827249 L165.805463,25.5924921 C166.109643,25.4568308 166.414073,25.3217138 166.718752,25.1871419 Z M169.436175,24.0041921 L169.042045,23.0887093 C168.736312,23.2198642 168.430823,23.3515634 168.125577,23.4838063 L168.522994,24.3978722 C168.827145,24.2661035 169.131539,24.1348766 169.436175,24.0041921 Z M172.197913,22.8370661 L171.813725,21.9173816 C171.506427,22.0452956 171.199367,22.1737571 170.892545,22.3027652 L171.280038,23.2210671 C171.585759,23.0925217 171.891718,22.9645212 172.197913,22.8370661 Z M174.973356,21.6993392 L174.599163,20.7755575 C174.290777,20.9000302 173.982623,21.0250518 173.674702,21.1506215 L174.052213,22.0730572 C174.359028,21.9479382 174.666076,21.8233653 174.973356,21.6993392 Z M177.743589,20.5984725 L177.379376,19.6707251 C177.068367,19.7923861 176.757588,19.9146028 176.447039,20.0373746 L176.8146,20.9638059 C177.124034,20.8414748 177.433697,20.7196968 177.743589,20.5984725 Z M180.545548,19.5198464 L180.191431,18.5882122 C179.880356,18.7060323 179.569503,18.824406 179.258874,18.9433326 L179.61634,19.8736916 C179.925854,19.755192 180.23559,19.6372434 180.545548,19.5198464 Z M183.341356,18.4780947 L182.997316,17.5427058 C182.684745,17.6572622 182.37239,17.7723753 182.060255,17.8880442 L182.407661,18.8221929 C182.718675,18.7069393 183.029907,18.5922397 183.341356,18.4780947 Z M186.149509,17.4660317 L185.815592,16.5269942 C185.502121,16.6380665 185.188862,16.7496964 184.875816,16.8618831 L185.213109,17.7997175 C185.52503,17.6879338 185.837164,17.576705 186.149509,17.4660317 Z M188.975052,16.481988 L188.651323,15.5394025 C188.335798,15.6473836 188.02048,15.7559274 187.705373,15.8650331 L188.0325,16.8064487 C188.346476,16.697735 188.66066,16.5895812 188.975052,16.481988 Z M191.812226,15.5281152 L191.498728,14.5820899 C191.181862,14.686721 190.865199,14.7919173 190.548741,14.8976781 L190.865652,15.8425695 C191.180973,15.7371886 191.496498,15.6323703 191.812226,15.5281152 Z M194.660817,14.6045313 L194.357593,13.6551752 C194.040109,13.7562191 193.722823,13.8578283 193.405736,13.9600021 L193.712381,14.9082628 C194.028328,14.8064561 194.344474,14.7052121 194.660817,14.6045313 Z M197.525419,13.7098817 L197.232526,12.757299 C196.913548,12.8550274 196.594763,12.9533242 196.276173,13.052189 L196.572503,14.003712 C196.889948,13.9052025 197.207587,13.8072588 197.525419,13.7098817 Z M200.375279,12.8534508 L200.092663,11.8977795 C199.772941,11.9919928 199.453408,12.0867753 199.134064,12.1821264 L199.420124,13.1367759 C199.738321,13.0417675 200.056706,12.9473256 200.375279,12.8534508 Z M203.265429,12.0188194 L202.993236,11.0601383 C202.672212,11.1509606 202.351373,11.2423547 202.030717,11.33432 L202.306369,12.292016 C202.625872,12.2003811 202.945559,12.1093154 203.265429,12.0188194 Z M206.139892,11.222267 L205.878064,10.2607137 C205.556607,10.3479345 205.235327,10.4357266 204.914227,10.5240896 L205.179519,11.4846967 C205.499465,11.3966512 205.81959,11.3091744 206.139892,11.222267 Z M209.028064,10.4553059 L208.776647,9.49098764 C208.454331,9.5747229 208.132188,9.65903073 207.81022,9.74391059 L208.065108,10.7073204 C208.38592,10.6227454 208.706905,10.5387404 209.028064,10.4553059 Z M211.929249,9.71828834 L211.688289,8.75131379 C211.364862,8.83162198 211.041603,8.91250484 210.718515,8.99396188 L210.962957,9.96006511 C211.284886,9.87890058 211.606984,9.79830816 211.929249,9.71828834 Z M214.842747,9.01154497 L214.612284,8.04202401 C214.287669,8.11891322 213.963218,8.19637955 213.638933,8.2744225 L213.872889,9.24310923 C214.196011,9.16534644 214.519297,9.08815819 214.842747,9.01154497 Z M217.738163,8.34207842 L217.518128,7.37014626 C217.193534,7.4433694 216.869099,7.51716785 216.544823,7.59154115 L216.76835,8.56267889 C217.091463,8.48857247 217.414734,8.41503882 217.738163,8.34207842 Z M220.674226,7.69643148 L220.464761,6.72217496 C220.139301,6.79189991 219.813995,6.86220156 219.488843,6.93307945 L219.701808,7.90657955 C220.025793,7.83595587 220.349933,7.76590636 220.674226,7.69643148 Z M223.597667,7.0865422 L223.398721,6.1100912 C223.071587,6.17650563 222.744603,6.24350108 222.41777,6.31107709 L222.620232,7.28680764 C222.945894,7.21947388 223.271705,7.15271858 223.597667,7.0865422 Z M226.526847,6.50822278 L226.338435,5.52969212 C226.011445,5.59242882 225.6846,5.65574444 225.357901,5.71963855 L225.549826,6.69748875 C225.875355,6.63382355 226.201029,6.57073475 226.526847,6.50822278 Z M229.470629,5.95983421 L229.292796,4.97933285 C228.964743,5.03862022 228.63683,5.09848875 228.309059,5.15893802 L228.490414,6.13879641 C228.817012,6.07856356 229.143751,6.01890935 229.470629,5.95983421 Z M232.424393,5.44242685 L232.257166,4.46006753 C231.928332,4.51584593 231.599633,4.57220677 231.27107,4.62914963 L231.441825,5.61090413 C231.769212,5.55416497 232.096735,5.49800573 232.424393,5.44242685 Z M235.386868,4.95632208 L235.23027,3.97221866 C234.901302,4.02438028 234.572465,4.07712338 234.24376,4.13044756 L234.403884,5.11398546 C234.731414,5.06085188 235.059076,5.00829728 235.386868,4.95632208 Z M238.335353,4.50495581 L238.189325,3.51923442 C237.859352,3.56794411 237.529506,3.61723745 237.199787,3.66711406 L237.349349,4.65230743 C237.67789,4.60260892 238.006559,4.55349158 238.335353,4.50495581 Z M241.291533,4.08471354 L241.156091,3.09748726 C240.825924,3.14262349 240.495878,3.18834275 240.165956,3.23464464 L240.30493,4.22138169 C240.633676,4.17524497 240.962544,4.12968879 241.291533,4.08471354 Z M244.257929,3.69534834 L244.133097,2.70672925 C243.802647,2.74830645 243.472313,2.79046638 243.142098,2.83320868 L243.27046,3.82137713 C243.599499,3.77878712 243.928656,3.73677741 244.257929,3.69534834 Z M247.235642,3.33689384 L247.12145,2.34699405 C246.790201,2.38507036 246.459065,2.42373099 246.128042,2.46297559 L246.24577,3.45246265 C246.575614,3.41335772 246.905572,3.37483467 247.235642,3.33689384 Z M250.220684,3.00996869 L250.117143,2.01890234 C249.78586,2.05338999 249.454685,2.0884609 249.123619,2.12411473 L249.230691,3.11480716 C249.56058,3.07928006 249.890578,3.04433379 250.220684,3.00996869 Z M253.189069,2.71689238 L253.096105,1.72478168 C252.764314,1.75576099 252.432628,1.78732422 252.101046,1.81947104 L252.197541,2.81124568 C252.527946,2.77921297 252.858456,2.74776176 253.189069,2.71689238 Z M256.167049,2.4548115 L256.084681,1.46176827 C255.752219,1.48924628 255.419857,1.51730949 255.087596,1.54595757 L255.173497,2.53870246 C255.504581,2.51015591 255.835765,2.48219215 256.167049,2.4548115 Z M259.152704,2.22403442 L259.080942,1.23017133 C258.748234,1.25410898 258.415621,1.27863165 258.083104,1.30373904 L258.158395,2.29734185 C258.489736,2.2723233 258.821172,2.24788739 259.152704,2.22403442 Z M262.147098,2.02461139 L262.085956,1.03004101 C261.753014,1.05043596 261.420163,1.07141577 261.087403,1.09298014 L261.152072,2.08732821 C261.483655,2.06584002 261.815331,2.04493431 262.147098,2.02461139 Z M265.121835,1.85813657 L265.071225,0.862976806 C264.738194,0.879853275 264.405249,0.897313982 264.072393,0.915358638 L264.126525,1.91033372 C264.458207,1.8923527 264.789978,1.87495355 265.121835,1.85813657 Z M268.104522,1.72276432 L268.064452,0.727126174 C267.731448,0.740480499 267.398526,0.754418079 267.065689,0.768938636 L267.109273,1.76442964 C267.44094,1.74996019 267.77269,1.73607166 268.104522,1.72276432 Z M271.096342,1.61860568 L271.066824,0.622600174 C270.733513,0.632443465 270.400281,0.642870244 270.067129,0.65388024 L270.100159,1.64977589 C270.432141,1.63880456 270.764202,1.6284144 271.096342,1.61860568 Z M274.095268,1.5458893 L274.076303,0.549627863 C273.742978,0.555950433 273.409728,0.562855743 273.076553,0.570343537 L273.099021,1.56653237 C273.431029,1.55907082 273.763111,1.55218971 274.095268,1.5458893 Z M277.102187,1.50474038 L277.093781,0.508334432 C276.760383,0.511136989 276.427056,0.514521792 276.0938,0.518488593 L276.105702,1.51485904 C276.437793,1.51090611 276.769954,1.50753314 277.102187,1.50474038 Z M279.500891,1.49466192 L279.500891,0.498220641 C279.295624,0.498269645 279.295624,0.498269645 279.090403,0.498514601 L279.091835,1.49495486 C279.29634,1.49471076 279.29634,1.49471076 279.500891,1.49466192 Z" id="Oval-12" fill="#B1B1B1" sketch:type="MSShapeGroup"></path>
        </g>
    </g>
</svg>