<?xml version="1.0" encoding="utf-8"?>
<!-- Generator: Adobe Illustrator 16.0.0, SVG Export Plug-In . SVG Version: 6.00 Build 0)  -->
<!DOCTYPE svg PUBLIC "-//W3C//DTD SVG 1.1//EN" "http://www.w3.org/Graphics/SVG/1.1/DTD/svg11.dtd">
<svg version="1.1" id="Layer_1" xmlns="http://www.w3.org/2000/svg" xmlns:xlink="http://www.w3.org/1999/xlink" x="0px" y="0px"
	 width="1000px" height="1000px" viewBox="0 0 1000 1000" enable-background="new 0 0 1000 1000" xml:space="preserve">
<g>
	<path fill="#979797" d="M499.499,767v-2c73.055,0,141.735-28.449,193.393-80.106c51.657-51.656,80.106-120.338,80.106-193.393
		c0-73.054-28.449-141.736-80.106-193.393s-120.338-80.106-193.393-80.106v-2c73.589,0,142.772,28.657,194.808,80.692
		c52.034,52.035,80.691,121.219,80.691,194.807c0,73.589-28.657,142.772-80.691,194.808C642.271,738.343,573.088,767,499.499,767z"
		/>
</g>
<g>
	<defs>
		<circle id="SVGID_1_" cx="494.5" cy="217.5" r="10.5"/>
	</defs>
	<clipPath id="SVGID_2_">
		<use xlink:href="#SVGID_1_"  overflow="visible"/>
	</clipPath>
	<g clip-path="url(#SVGID_2_)">
		<rect x="479" y="202" fill-rule="evenodd" clip-rule="evenodd" fill="#EE3F79" width="31" height="31"/>
	</g>
</g>
<g>
	<defs>
		<circle id="SVGID_3_" cx="494.5" cy="765.5" r="10.5"/>
	</defs>
	<clipPath id="SVGID_4_">
		<use xlink:href="#SVGID_3_"  overflow="visible"/>
	</clipPath>
	<g clip-path="url(#SVGID_4_)">
		<rect x="479" y="750" fill-rule="evenodd" clip-rule="evenodd" fill="#B6B7B7" width="31" height="31"/>
	</g>
</g>
<g>
	<defs>
		<circle id="SVGID_5_" cx="687.5" cy="291.5" r="10.5"/>
	</defs>
	<clipPath id="SVGID_6_">
		<use xlink:href="#SVGID_5_"  overflow="visible"/>
	</clipPath>
	<g clip-path="url(#SVGID_6_)">
		<rect x="672" y="276" fill-rule="evenodd" clip-rule="evenodd" fill="#B6B7B7" width="31" height="31"/>
	</g>
</g>
<g>
	<defs>
		<circle id="SVGID_7_" cx="774.5" cy="481.5" r="10.5"/>
	</defs>
	<clipPath id="SVGID_8_">
		<use xlink:href="#SVGID_7_"  overflow="visible"/>
	</clipPath>
	<g clip-path="url(#SVGID_8_)">
		<rect x="759" y="466" fill-rule="evenodd" clip-rule="evenodd" fill="#B6B7B7" width="31" height="31"/>
	</g>
</g>
<g>
	<defs>
		<circle id="SVGID_9_" cx="687.5" cy="692.5" r="10.5"/>
	</defs>
	<clipPath id="SVGID_10_">
		<use xlink:href="#SVGID_9_"  overflow="visible"/>
	</clipPath>
	<g clip-path="url(#SVGID_10_)">
		<rect x="672" y="677" fill-rule="evenodd" clip-rule="evenodd" fill="#B6B7B7" width="31" height="31"/>
	</g>
</g>
</svg>
