<?xml version="1.0" encoding="utf-8"?>
<!-- Generator: Adobe Illustrator 16.0.0, SVG Export Plug-In . SVG Version: 6.00 Build 0)  -->
<!DOCTYPE svg PUBLIC "-//W3C//DTD SVG 1.1//EN" "http://www.w3.org/Graphics/SVG/1.1/DTD/svg11.dtd">
<svg version="1.1" id="Layer_1" xmlns:sketch="http://www.bohemiancoding.com/sketch/ns"
	 xmlns="http://www.w3.org/2000/svg" xmlns:xlink="http://www.w3.org/1999/xlink" x="0px" y="0px" width="109.25px" height="94.5px"
	 viewBox="0 0 109.25 94.5" enable-background="new 0 0 109.25 94.5" xml:space="preserve">
<title>Slice 1</title>
<description>Created with Sketch.</description>
<g id="Page-1" sketch:type="MSPage">
	<g id="Oval-1-_x2B_-Shape-_x2B_-Shape-4" sketch:type="MSLayerGroup">
		<g id="Oval-1">
			<path sketch:type="MSShapeGroup" fill="#F72C8C" d="M47.251,92.251c24.854,0,45-20.146,45-44.999c0-24.853-20.146-45-45-45
				c-24.853,0-45,20.147-45,45C2.251,72.104,22.398,92.251,47.251,92.251z"/>
			<path fill="#E3E3E3" d="M47.251,94.251c-25.916,0-47-21.084-47-46.999c0-25.916,21.084-47,47-47c25.917,0,47,21.084,47,47
				C94.252,73.167,73.168,94.251,47.251,94.251z M47.251,4.252c-23.71,0-43,19.29-43,43c0,23.71,19.29,42.999,43,42.999
				s43-19.289,43-42.999C90.252,23.542,70.962,4.252,47.251,4.252z"/>
		</g>
		<g id="Shape">
			<path sketch:type="MSShapeGroup" fill="#ECECEC" d="M27.876,30.252c-3.659,0-6.625,2.987-6.625,6.667v21.666
				c0,3.682,2.966,6.666,6.625,6.666h39.75c3.658,0,6.625-2.984,6.625-6.666V36.919c0-3.68-2.967-6.667-6.625-6.667H27.876z
				 M24.251,39.252l12,8.999l-12,9V39.252L24.251,39.252z M70.252,58.95c0,1.822-1.475,3.301-3.285,3.301H27.538
				c-1.812,0-3.286-1.479-3.286-3.301l12.867-9.699l7.176,5.41c0.875,0.656,1.916,0.99,2.957,0.99c1.04,0,2.08-0.332,2.956-0.99
				l7.177-5.41L70.252,58.95L70.252,58.95z M71.252,57.251l-12-9l12-8.999V57.251L71.252,57.251z M49.222,52.585
				c-0.574,0.436-1.254,0.666-1.97,0.666s-1.398-0.23-1.971-0.666l-21.029-16c0-1.838,1.474-3.333,3.286-3.333h39.429
				c1.811,0,3.285,1.495,3.285,3.333L49.222,52.585L49.222,52.585z"/>
		</g>
		<g id="Shape_1_">
			<path sketch:type="MSShapeGroup" fill="#73103F" d="M66.264,58.899c10.244-1.615,14.484,1.291,20.992-10.299
				c-5.281,1.613-11.648-2.992-11.305-4.988c0.34-1.998,14.814,1.438,24.285-11.981c-11.939,2.623-15.764-3.156-14.223-4.028
				c3.555-2.016,14.107-0.837,19.734-6.301c2.902-2.812,4.256-9.652,3.078-12.094c-1.418-2.946-10.059-7.34-14.82-6.93
				c-4.762,0.413-12.232,18.088-14.447,17.949s-2.656-7.914,1.207-15.145c-4.076,1.799-11.547,7.396-13.891,12.18
				c-4.365,8.903,0.41,29.315-1.121,30.043c-1.533,0.726-6.686-9.372-8.223-13.949c-2.102,7.016-2.15,14.046,3.99,23.384
				c-2.316,6.127-3.582,13.178-3.773,16.764c-0.09,2.873,2.736,3.486,3.248,1.865C62.156,71.665,63.91,66.448,66.264,58.899z"/>
		</g>
	</g>
</g>
</svg>
