<?xml version="1.0" encoding="utf-8"?>
<!-- Generator: Adobe Illustrator 16.0.0, SVG Export Plug-In . SVG Version: 6.00 Build 0)  -->
<!DOCTYPE svg PUBLIC "-//W3C//DTD SVG 1.1//EN" "http://www.w3.org/Graphics/SVG/1.1/DTD/svg11.dtd">
<svg version="1.1" id="Layer_1" xmlns:sketch="http://www.bohemiancoding.com/sketch/ns"
	 xmlns="http://www.w3.org/2000/svg" xmlns:xlink="http://www.w3.org/1999/xlink" x="0px" y="0px" width="109.5px"
	 height="94.167px" viewBox="-2.5 -2 109.5 94.167" enable-background="new -2.5 -2 109.5 94.167" xml:space="preserve">
<title>Slice 1</title>
<description>Created with Sketch.</description>
<g id="Page-1" sketch:type="MSPage">
	<g id="Oval-1-_x2B_-Shape-_x2B_-Shape" transform="translate(0.000000, -111.000000)" sketch:type="MSLayerGroup">
		<g id="Oval-1">
			<path sketch:type="MSShapeGroup" fill="#F72C8C" d="M45,201c24.854,0,45-20.147,45-45s-20.146-45-45-45
				c-24.853,0-45,20.147-45,45S20.147,201,45,201z"/>
			<path fill="#E3E3E3" d="M45,203c-25.916,0-47-21.084-47-47s21.084-47,47-47s47,21.084,47,47S70.916,203,45,203z M45,113
				c-23.71,0-43,19.29-43,43c0,23.71,19.29,43,43,43c23.71,0,43-19.29,43-43C88,132.29,68.71,113,45,113z"/>
		</g>
		<g id="Shape">
			<path sketch:type="MSShapeGroup" fill="#ECECEC" d="M48.741,173H43.37v2.551L38,176.367V178h16v-1.531l-5.259-0.918V173
				L48.741,173z M65.519,137H25.481c-1.923,0-3.481,1.542-3.481,3.444v24.111c0,1.901,1.558,3.444,3.481,3.444h40.037
				c1.923,0,3.481-1.543,3.481-3.444v-24.111C69,138.542,67.441,137,65.519,137L65.519,137z M45.5,165c-0.828,0-1.5-0.672-1.5-1.5
				c0-0.83,0.672-1.5,1.5-1.5c0.83,0,1.5,0.67,1.5,1.5C47,164.328,46.328,165,45.5,165L45.5,165z M65,159H25v-19h40V159L65,159z"/>
		</g>
		<g id="Shape_1_">
			<path sketch:type="MSShapeGroup" fill="#73103F" d="M64.012,167.649c10.245-1.616,14.485,1.29,20.992-10.3
				c-5.281,1.614-11.648-2.992-11.305-4.988c0.34-1.998,14.814,1.438,24.285-11.981c-11.939,2.623-15.763-3.156-14.223-4.028
				c3.555-2.016,14.109-0.837,19.736-6.301c2.901-2.812,4.255-9.652,3.078-12.094c-1.419-2.946-10.059-7.34-14.821-6.93
				c-4.763,0.414-12.233,18.088-14.448,17.949s-2.656-7.914,1.207-15.145c-4.076,1.799-11.547,7.396-13.89,12.18
				c-4.365,8.903,0.409,29.315-1.122,30.043c-1.533,0.727-6.686-9.372-8.222-13.949c-2.101,7.016-2.151,14.046,3.989,23.384
				c-2.316,6.127-3.582,13.178-3.773,16.765c-0.09,2.872,2.737,3.485,3.248,1.864C59.904,180.414,61.659,175.197,64.012,167.649z"/>
		</g>
	</g>
</g>
</svg>
