<?xml version="1.0" encoding="UTF-8" standalone="no"?>
<svg width="34px" height="34px" viewBox="0 0 34 34" version="1.1" xmlns="http://www.w3.org/2000/svg" xmlns:xlink="http://www.w3.org/1999/xlink" xmlns:sketch="http://www.bohemiancoding.com/sketch/ns">
    <!-- Generator: Sketch 3.0 (7574) - http://www.bohemiancoding.com/sketch -->
    <title>ikony-sketch</title>
    <description>Created with Sketch.</description>
    <defs></defs>
    <g id="Page-1" stroke="none" stroke-width="1" fill="none" fill-rule="evenodd" sketch:type="MSPage">
        <g id="Line-+-Line" sketch:type="MSLayerGroup" transform="translate(-506.000000, -327.000000)"></g>
        <g id="icons" sketch:type="MSLayerGroup" transform="translate(-441.000000, -294.000000)" fill="#FF3878">
            <g id="Oval-19-+-icon-comments" transform="translate(441.000000, 294.000000)" sketch:type="MSShapeGroup">
                <path d="M17,34 C26.3888407,34 34,26.3888407 34,17 C34,7.61115925 26.3888407,0 17,0 C7.61115925,0 0,7.61115925 0,17 C0,26.3888407 7.61115925,34 17,34 Z M23.0904538,15.2346667 C23.0904538,11.7913333 19.4494538,9 14.9595126,9 C10.4689244,9 6.82857143,11.7913333 6.82857143,15.2346667 C6.82857143,17.304 8.14339496,19.1373333 10.167395,20.2713333 C10.1615714,20.2893333 8.55492437,23.3013333 8.55492437,23.3013333 C8.55492437,23.3013333 13.4609244,21.3733333 13.4745126,21.3653333 C13.9559244,21.434 14.4522185,21.4686667 14.9595126,21.4686667 C19.4494538,21.4686667 23.0904538,18.6773333 23.0904538,15.2346667 L23.0904538,15.2346667 Z M29.0776891,17.1826667 C29.0776891,13.74 25.6502185,10.9733333 21.9399832,10.9486667 C27.2588067,16.4073333 20.9946303,22.2233333 15.8893361,22.2233333 C15.8893361,22.2233333 16.4568067,23.4166667 20.9467479,23.4166667 C21.453395,23.4166667 21.9503361,23.3806667 22.4317479,23.3126667 C22.4453361,23.322 27.3519832,25.2486667 27.3519832,25.2486667 C27.3519832,25.2486667 25.7446891,22.2373333 25.7395126,22.2193333 C27.7628655,21.0853333 29.0776891,19.2513333 29.0776891,17.1826667 L29.0776891,17.1826667 Z" id="Oval-19"></path>
            </g>
        </g>
    </g>
</svg>