<?xml version="1.0" encoding="utf-8"?>
<!-- Generator: Adobe Illustrator 16.0.0, SVG Export Plug-In . SVG Version: 6.00 Build 0)  -->
<!DOCTYPE svg PUBLIC "-//W3C//DTD SVG 1.1//EN" "http://www.w3.org/Graphics/SVG/1.1/DTD/svg11.dtd">
<svg version="1.1" id="Layer_1" xmlns:sketch="http://www.bohemiancoding.com/sketch/ns"
	 xmlns="http://www.w3.org/2000/svg" xmlns:xlink="http://www.w3.org/1999/xlink" x="0px" y="0px" width="224.855px"
	 height="220.948px" viewBox="-123.5 -62.448 224.855 220.948" enable-background="new -123.5 -62.448 224.855 220.948"
	 xml:space="preserve">
<title>ikony-sketch</title>
<description>Created with Sketch.</description>
<g id="Page-1" sketch:type="MSPage">
	<g id="Oval-7-_x2B_-Shape-3-_x2B_-Fill-489" transform="translate(0.000000, 1.000000)" sketch:type="MSLayerGroup">
		<g id="Oval-7">
			<path sketch:type="MSShapeGroup" fill="#F72C8C" d="M-24.448,155c53.324,0,96.552-43.264,96.552-96.633
				S28.876-38.266-24.448-38.266S-121,4.998-121,58.367S-77.772,155-24.448,155z"/>
			<path fill="#491332" d="M-24.448,157.5c-54.617,0-99.052-44.471-99.052-99.133s44.435-99.133,99.052-99.133
				S74.604,3.705,74.604,58.367S30.169,157.5-24.448,157.5z M-24.448-35.766c-51.86,0-94.052,42.228-94.052,94.133
				S-76.309,152.5-24.448,152.5s94.052-42.228,94.052-94.133S27.412-35.766-24.448-35.766z"/>
		</g>
		<g id="Shape-3-_x2B_-Fill-486" transform="translate(37.931034, 0.000000)">
			<g id="Shape-3">
				<path sketch:type="MSShapeGroup" fill="#FFFFFF" d="M-52.996,106.684h-13.657v6.338l-13.657,2.029v4.057h40.69v-3.806
					l-13.375-2.28V106.684L-52.996,106.684z M-10.528,15.572h-101.634c-4.883,0-8.838,3.878-8.838,8.667v60.664
					c0,4.784,3.955,8.666,8.838,8.666h101.634c4.884,0,8.838-3.882,8.838-8.666V24.239C-1.69,19.451-5.644,15.572-10.528,15.572
					L-10.528,15.572z M-61.345,85.977c-2.094,0-3.793-1.701-3.793-3.797c0-2.099,1.699-3.796,3.793-3.796
					c2.097,0,3.793,1.697,3.793,3.796C-57.552,84.275-59.251,85.977-61.345,85.977L-61.345,85.977z M-12.035,71.481h-101.379V23.165
					h101.379V71.481L-12.035,71.481z"/>
			</g>
			<g>
				<g>
					<path fill="#491332" d="M41.827-40.362c-1.393-21.089-18.159-9.724-18.159-9.724C39.598-48.388,41.827-40.362,41.827-40.362z"
						/>
				</g>
				<g>
					<path fill="#491332" d="M47.851-49.142c-2.32,3.739-4.779,7.127-6.03,8.809c1.258,10.193-6.238,38.518-6.238,38.518
						S11.388,1.113-1.181,22.437c0,0-1.562,0.264-3.556-0.029l18.237-33.831c1.607,0.088,3.312-0.205,4.941-0.967
						c4.541-2.109,6.758-6.854,4.953-10.603c-1.807-3.779-6.955-5.126-11.493-3.046c-4.542,2.109-6.755,6.854-4.95,10.633
						c0.492,1.025,1.236,1.845,2.148,2.489L-9.532,20.328c-1.494-1.23-2.091-2.49-2.091-2.49s10.525-19.332,4.582-41.3
						c0,0,22.588-26.625,30.396-26.625h0.312c1.031-2.308,2.989-6.57,5.174-10.662c-5.135-1.742-10.63-2.7-16.353-2.7
						c-28.132,0-50.938,22.824-50.938,50.979s22.806,50.979,50.938,50.979c28.131,0,50.936-22.824,50.936-50.979
						C63.424-26.872,57.447-39.871,47.851-49.142z"/>
				</g>
				<g>
					<path fill="#FFFFFF" d="M41.827-40.362c0,0-2.229-8.025-18.159-9.724h-0.312c-7.809,0-30.396,26.625-30.396,26.625
						c5.943,21.968-4.582,41.3-4.582,41.3s0.597,1.259,2.091,2.49L9.1-12.917c-0.912-0.644-1.656-1.464-2.148-2.489
						c-1.805-3.779,0.408-8.524,4.95-10.633c4.538-2.08,9.687-0.732,11.493,3.046c1.805,3.749-0.412,8.494-4.953,10.603
						c-1.629,0.762-3.334,1.055-4.941,0.967L-4.737,22.408c1.993,0.293,3.556,0.029,3.556,0.029
						C11.388,1.113,35.583-1.815,35.583-1.815s7.496-28.324,6.238-38.518c1.251-1.682,3.709-5.07,6.03-8.809
						c3.254-5.244,6.237-11.177,5.23-14.067c-0.122-0.351-0.433-0.761-0.863-1.201c0.006,0-3.357-6.385-12.375-6.444
						c-1.113-0.264-2.133-0.381-2.939-0.322c-2.073,0.198-5.254,5.173-8.061,10.428c-2.186,4.092-4.144,8.354-5.174,10.662
						C23.668-50.086,40.434-61.451,41.827-40.362z"/>
				</g>
			</g>
		</g>
	</g>
</g>
</svg>
