<?xml version="1.0" encoding="UTF-8" standalone="no"?>
<svg width="32px" height="27px" viewBox="0 0 32 27" version="1.1" xmlns="http://www.w3.org/2000/svg" xmlns:xlink="http://www.w3.org/1999/xlink" xmlns:sketch="http://www.bohemiancoding.com/sketch/ns">
    <!-- Generator: Sketch 3.0 (7574) - http://www.bohemiancoding.com/sketch -->
    <title>Slice 1</title>
    <description>Created with Sketch.</description>
    <defs></defs>
    <g id="Page-1" stroke="none" stroke-width="1" fill="none" fill-rule="evenodd" sketch:type="MSPage">
        <g id="Group" sketch:type="MSLayerGroup" transform="translate(-163.000000, -329.000000)" fill="#Fff">
            <g id="icon-signal-link" transform="translate(163.000000, 329.000000)" sketch:type="MSShapeGroup">
                <g id="icon-signal">
                    <path d="M4.571,23.714 L4.571,27.143 C4.571,27.3096667 4.51733333,27.4466667 4.41,27.554 C4.30266667,27.6613333 4.16566667,27.715 3.999,27.715 L0.57,27.715 C0.403333333,27.715 0.266333333,27.6613333 0.159,27.554 C0.0516666667,27.4466667 -0.002,27.3096667 -0.002,27.143 L-0.002,23.714 C-0.002,23.5473333 0.0516666667,23.4103333 0.159,23.303 C0.266333333,23.1956667 0.403333333,23.142 0.57,23.142 L3.999,23.142 C4.16566667,23.142 4.30266667,23.1956667 4.41,23.303 C4.51733333,23.4103333 4.571,23.5473333 4.571,23.714 L4.571,23.714 Z M11.429,21.429 L11.429,27.143 C11.429,27.3096667 11.3753333,27.4466667 11.268,27.554 C11.1606667,27.6613333 11.0236667,27.715 10.857,27.715 L7.428,27.715 C7.26133333,27.715 7.12433333,27.6613333 7.017,27.554 C6.90966667,27.4466667 6.856,27.3096667 6.856,27.143 L6.856,21.429 C6.856,21.2623333 6.90966667,21.1253333 7.017,21.018 C7.12433333,20.9106667 7.26133333,20.857 7.428,20.857 L10.857,20.857 C11.0236667,20.857 11.1606667,20.9106667 11.268,21.018 C11.3753333,21.1253333 11.429,21.2623333 11.429,21.429 L11.429,21.429 Z M18.286,16.857 L18.286,27.143 C18.286,27.3096667 18.2323333,27.4466667 18.125,27.554 C18.0176667,27.6613333 17.8806667,27.715 17.714,27.715 L14.285,27.715 C14.1183333,27.715 13.9813333,27.6613333 13.874,27.554 C13.7666667,27.4466667 13.713,27.3096667 13.713,27.143 L13.713,16.857 C13.713,16.6903333 13.7666667,16.5533333 13.874,16.446 C13.9813333,16.3386667 14.1183333,16.285 14.285,16.285 L17.714,16.285 C17.8806667,16.285 18.0176667,16.3386667 18.125,16.446 C18.2323333,16.5533333 18.286,16.6903333 18.286,16.857 L18.286,16.857 Z M25.143,10 L25.143,27.143 C25.143,27.3096667 25.0893333,27.4466667 24.982,27.554 C24.8746667,27.6613333 24.7376667,27.715 24.571,27.715 L21.142,27.715 C20.9753333,27.715 20.8383333,27.6613333 20.731,27.554 C20.6236667,27.4466667 20.57,27.3096667 20.57,27.143 L20.57,10 C20.57,9.83333333 20.6236667,9.69633333 20.731,9.589 C20.8383333,9.48166667 20.9753333,9.428 21.142,9.428 L24.571,9.428 C24.7376667,9.428 24.8746667,9.48166667 24.982,9.589 C25.0893333,9.69633333 25.143,9.83333333 25.143,10 L25.143,10 Z M32,0.857 L32,27.143 C32,27.3096667 31.9463333,27.4466667 31.839,27.554 C31.7316667,27.6613333 31.5946667,27.715 31.428,27.715 L27.999,27.715 C27.8323333,27.715 27.6953333,27.6613333 27.588,27.554 C27.4806667,27.4466667 27.427,27.3096667 27.427,27.143 L27.427,0.857 C27.427,0.690333333 27.4806667,0.553333333 27.588,0.446 C27.6953333,0.338666667 27.8323333,0.285 27.999,0.285 L31.428,0.285 C31.5946667,0.285 31.7316667,0.338666667 31.839,0.446 C31.9463333,0.553333333 32,0.690333333 32,0.857 L32,0.857 Z" id="Shape"></path>
                </g>
            </g>
        </g>
    </g>
</svg>