<?xml version="1.0" encoding="UTF-8" standalone="no"?>
<svg width="204px" height="50px" viewBox="0 0 204 50" version="1.1" xmlns="http://www.w3.org/2000/svg" xmlns:xlink="http://www.w3.org/1999/xlink" xmlns:sketch="http://www.bohemiancoding.com/sketch/ns">
    <title>milena_singlepage 1</title>
    <description>Created with Sketch (http://www.bohemiancoding.com/sketch)</description>
    <defs></defs>
    <g id="Page-1" stroke="none" stroke-width="1" fill="none" fill-rule="evenodd" sketch:type="MSPage">
        <g id="milush-logo2-copy-+-COPYWRITING-+-WEB" sketch:type="MSLayerGroup">
            <g id="Group" fill="#F72C8C" sketch:type="MSShapeGroup">
                <path d="M24.8032129,8.20951313 C23.7163511,10.1279534 22.9942245,11.4601006 22.636833,12.2059546 L20.930656,15.8931697 L18.9760184,19.9465087 C18.8744311,20.179047 18.3371199,21.3887405 17.3665328,23.5768262 C16.9699751,24.4785302 16.626047,25.2181997 16.3323006,25.7970714 C16.1658443,26.1446419 16.0507937,26.3895491 15.9871486,26.5317933 C15.7350163,27.13664 15.4633008,27.4384449 15.1732262,27.4384449 C14.8696883,27.4384449 14.5796137,27.1230341 14.3030025,26.4922123 C14.2528208,26.3759432 14.0741251,26.0221882 13.7669153,25.4309474 L13.383821,24.6195375 L6.19560145,8.94299805 L5.75620578,18.5092246 C5.71826353,19.2958965 5.69868044,20.8667664 5.69868044,23.2243081 C5.69868044,25.4927927 6.48934787,26.7494886 8.07068273,26.993159 C8.84788679,27.1205602 9.23710078,27.3098068 9.23710078,27.5621355 C9.23710078,27.8528083 9.05228533,27.9987631 8.68387837,27.9987631 C8.44276152,27.9987631 8.20654045,27.9851571 7.97766303,27.960419 C6.55299292,27.8317809 5.45266781,27.7674618 4.6766877,27.7674618 C3.74771467,27.7674618 2.85790782,27.8255963 2.00481928,27.9418654 C1.75023905,27.9802095 1.55318417,28 1.41365462,28 C1.03178428,28 0.840849111,27.8614666 0.840849111,27.5843998 C0.840849111,27.3704151 0.993842035,27.2318817 1.29982788,27.1687996 C2.23002486,26.9486304 2.88116275,26.5120028 3.25079365,25.8539691 C3.62042456,25.1971723 3.84318225,24.0752991 3.92029069,22.4883494 L4.18833429,16.8802202 C4.37926946,12.8182228 4.47473704,10.251644 4.47473704,9.18048389 C4.47473704,6.88602432 4.17487091,5.18651626 3.57636259,4.08443352 C2.97663033,2.98235078 1.97544464,2.3032897 0.574029451,2.04477647 C0.192159113,1.98169429 0,1.8246073 0,1.57104169 C0,1.29397487 0.159112641,1.15544146 0.478561867,1.15544146 C0.593612545,1.15544146 0.802906866,1.16904742 1.10889271,1.19378553 C1.28758845,1.21976055 1.72086441,1.2321296 2.4087206,1.2321296 C3.45396825,1.2321296 4.11612163,1.21976055 4.39640467,1.19378553 C4.68892714,1.15544146 4.92514821,1.13565098 5.10384395,1.13565098 C5.65217059,1.13565098 6.10992542,1.54135596 6.48078026,2.35276592 L6.69129853,2.79681497 L14.6616179,20.1716255 L15.6371008,22.1618064 C15.7766303,22.4970077 15.8782176,22.66399 15.9430866,22.66399 C16.0189711,22.66399 16.1144387,22.5415363 16.2294894,22.2966291 L16.4595907,21.7734181 L16.6321668,21.3875036 L25.6122394,1.92727045 C25.8031746,1.51538094 25.946376,1.26057843 26.0418436,1.1640998 C26.1373111,1.06762118 26.3062153,1.01938187 26.5485561,1.01938187 C26.6501434,1.01938187 26.9304265,1.04535688 27.3906292,1.09607 C27.5558615,1.10967596 27.7663798,1.11586049 28.022184,1.11586049 C28.8250908,1.11586049 29.4688851,1.08988548 29.9523427,1.03917235 C30.1824441,1.0268033 30.3672595,1.01319734 30.5067891,1.00082828 C30.7613693,0.988459231 30.8886594,1.11462358 30.8886594,1.37932135 C30.8886594,1.61804409 30.7613693,1.76894656 30.5067891,1.83202873 L29.6842991,2.04477647 C29.0343852,2.19938965 28.5778543,2.60262082 28.3171543,3.25570688 C28.0552304,3.90631914 27.9254924,4.97500543 27.9254924,6.45929195 L28.0405431,11.1236623 L28.4040543,21.6336478 L28.4995219,24.0728253 C28.4995219,25.0536913 28.6782176,25.7562536 29.0356091,26.1829859 C29.3930006,26.6097183 30.0429145,26.8917327 30.9865749,27.0339769 C31.6621916,27.1354031 32,27.3048591 32,27.5448188 C32,27.7971475 31.7650029,27.9233119 31.2937847,27.9233119 C31.1542551,27.9233119 30.9951425,27.9158904 30.8164467,27.9035214 L29.3281316,27.7489082 C28.8312106,27.6969582 28.2975712,27.6722201 27.7247657,27.6722201 C27.330656,27.6722201 26.7064448,27.7006689 25.8545802,27.7575665 C24.5314974,27.8293071 23.7677567,27.8651773 23.5645821,27.8651773 C23.1949512,27.8651773 23.0113597,27.751382 23.0113597,27.5262652 C23.0113597,27.3246496 23.1704724,27.1811686 23.4899216,27.0921114 C24.2414228,26.8855482 24.7456875,26.5503468 25.0002677,26.0865073 C25.254848,25.6226678 25.3821381,24.8100209 25.3821381,23.6485667 L25.3062536,20.4944579 L24.8032129,8.20951313 L24.8032129,8.20951313 Z" id="Shape"></path>
                <path d="M52.1590752,6.91642877 L52.1590752,21.4793719 C52.1590752,23.2969426 52.2625978,24.4978819 52.4719958,25.0809467 C52.7166857,25.7435768 53.0201952,26.2097799 53.381348,26.4832858 C53.7425008,26.7567916 54.3095225,26.9507321 55.0812367,27.0675937 C55.6941377,27.1558615 56,27.3149922 56,27.5437425 C56,27.8470854 55.8094242,28 55.4306255,28 C55.2471081,28 55.0141822,27.9776222 54.7318478,27.9353532 C54.3518727,27.8769224 53.7025035,27.8495718 52.7837401,27.8495718 L50.1180324,27.8060595 L47.9487628,27.9415692 C47.5934919,27.9801087 47.2993935,28 47.0664676,28 C46.735901,28 46.5700296,27.8669767 46.5700296,27.6021733 C46.5700296,27.373423 46.7594289,27.2279676 47.139404,27.164564 C48.0711077,26.9954876 48.6710684,26.6560917 48.9404625,26.1438899 C49.2098566,25.631688 49.3451419,24.5525831 49.3451419,22.9040888 L49.3451419,6.25131228 C49.3451419,4.64260061 49.1710356,3.55976609 48.8216467,3.00280873 C48.4722579,2.44460816 47.7276008,2.06791601 46.5888519,1.8739755 C46.2088767,1.79813979 46.012419,1.64522516 46.0006551,1.41771802 C45.9877148,1.13923934 46.1665266,1 46.5335614,1 C46.631202,1 46.741783,1.00745925 46.8641279,1.02237775 C47.758187,1.13799613 48.9475209,1.19518372 50.4297767,1.19518372 C51.3367761,1.19518372 52.1143722,1.17280597 52.7637414,1.13053688 L53.9954254,1.02237775 C54.2283514,1.00745925 54.3812825,1 54.4553953,1 C54.7859619,1 54.9518334,1.12059121 54.9518334,1.36177364 C54.9518334,1.59052399 54.7918439,1.75960033 54.4742176,1.8739755 L53.5189861,2.26309973 C52.6119867,2.62487338 52.1590752,4.17639746 52.1590752,6.91642877 L52.1590752,6.91642877 L52.1590752,6.91642877 Z" id="Shape"></path>
                <path d="M76.283611,22.4816616 L76.3031709,23.1643309 C76.3031709,24.7240062 76.44987,25.645859 76.7432682,25.9336265 C77.0366664,26.2189026 77.9926554,26.3621635 79.6124579,26.3621635 C81.9975406,26.3621635 84.0672203,26.074396 85.8202744,25.4963693 C87.5733285,24.9195885 88.6931316,24.1571913 89.1772386,23.2091778 C89.3557225,22.8591229 89.5342064,22.6834726 89.7126902,22.6834726 C89.9168465,22.6834726 90.0122009,22.8130303 89.9987535,23.0721456 C89.9474088,23.9254823 89.5329839,24.8635299 88.7554787,25.8837967 C87.658903,27.2939823 85.8801765,27.9978293 83.4205218,27.9978293 C83.0134318,27.9978293 82.5415497,27.9778974 82.006098,27.9392792 L79.9413083,27.7835609 C78.7298184,27.6938671 77.4486463,27.6477744 76.0977922,27.6477744 C74.5293344,27.6477744 73.2163776,27.7250107 72.1589216,27.8819749 C71.7127119,27.9467537 71.3557441,27.9853719 71.0892407,27.9990751 C70.7701702,28.0115326 70.6112462,27.8981696 70.6112462,27.6577404 C70.6112462,27.4546836 70.7848401,27.3039483 71.1308055,27.201797 C72.01589,26.9289784 72.6087988,26.5290936 72.909532,26.0021426 C73.2114876,25.4764374 73.3618542,24.5894655 73.3618542,23.341227 L73.381414,22.4442891 L73.381414,5.01628838 C73.381414,3.28719152 72.6943733,2.28062793 71.3178468,1.99410612 L70.4584347,1.81845579 C70.1528116,1.75492269 70,1.62910224 70,1.43850295 C70,1.14699815 70.2163812,1 70.647921,1 C70.9400967,1 71.3398517,1.02616069 71.8484085,1.07723632 C72.7127107,1.15447263 73.6845921,1.19433653 74.7652754,1.19433653 C75.9339782,1.19433653 76.9951016,1.16319286 77.9486457,1.09716827 C78.4327527,1.07100758 78.7053685,1.05855011 78.7689381,1.05855011 C79.0733387,1.05855011 79.2261503,1.15322688 79.2261503,1.34382618 C79.2261503,1.62411926 79.0415539,1.80724407 78.6723612,1.8956921 L78.0036579,2.05141048 C76.85696,2.33668655 76.2848335,3.50146001 76.2848335,5.54199362 L76.2848335,22.4816616 L76.283611,22.4816616 L76.283611,22.4816616 Z" id="Shape"></path>
                <path d="M127.372565,16.4457436 L127.372565,6.5201784 C127.372565,4.92339833 127.140527,3.76478159 126.678921,3.04187348 C126.21608,2.32019271 125.431103,1.90903105 124.326457,1.8059338 C123.952482,1.76911335 123.767345,1.630423 123.767345,1.39354479 C123.767345,1.11861878 123.895707,0.988519865 124.152429,1.00079335 C124.43507,1.01429418 124.846072,1.0658428 125.382967,1.15421188 C125.870493,1.23030747 126.453055,1.26958261 127.133122,1.26958261 C128.569779,1.26958261 129.45473,1.24994504 129.787975,1.21189725 C130.236005,1.17384945 130.518646,1.15421188 130.634665,1.15421188 C130.87781,1.15421188 131,1.26712792 131,1.4905053 C131,1.67828958 130.865468,1.82679872 130.595169,1.93971475 C129.810191,2.26005265 129.302918,2.70680741 129.072115,3.28243373 C128.841312,3.85806006 128.725293,4.94426325 128.725293,6.54227067 L128.725293,16.034582 C128.725293,19.5251604 128.024244,22.209371 126.62338,24.0884411 C125.735961,25.2777416 124.465926,26.2264818 122.814511,26.9358891 C121.161862,27.6452964 119.396897,28 117.52085,28 C115.335008,28 113.367628,27.5777922 111.619942,26.734604 C109.871022,25.8901884 108.592348,24.7475272 107.782685,23.3017109 C106.869347,21.6398814 106.413912,19.4736118 106.413912,16.8004473 L106.413912,7.05775693 L106.37565,5.96418964 C106.37565,4.5969237 106.185577,3.6530929 105.806665,3.13515194 C105.426519,2.61721098 104.664992,2.27600817 103.52085,2.10908881 C103.174028,2.05876753 103,1.92866862 103,1.71633737 C103,1.41563705 103.24438,1.26590057 103.733139,1.26590057 C104.054042,1.26590057 104.498369,1.2794014 105.063652,1.30394836 C105.654853,1.34199616 106.085603,1.36163373 106.355902,1.36163373 L107.840695,1.34199616 L109.306973,1.34199616 C109.461254,1.34199616 109.821652,1.31622185 110.386935,1.26590057 C110.862118,1.22785277 111.190426,1.2082152 111.370625,1.2082152 C111.665609,1.2082152 111.813718,1.30763041 111.813718,1.50768817 C111.813718,1.74456638 111.607599,1.90043961 111.196597,1.97530785 C110.451115,2.14099987 109.952482,2.46379245 109.701931,2.94368562 C109.45138,3.42235143 109.325487,4.2814952 109.325487,5.52111693 L109.363749,6.78528562 L109.363749,16.4420616 C109.363749,19.738719 109.878427,22.0903182 110.907785,23.4944046 C112.362955,25.4876181 114.800582,26.4842249 118.225602,26.4842249 C121.287755,26.4842249 123.579741,25.6508555 125.097858,23.9841165 C126.615975,22.3173776 127.372565,19.8074505 127.372565,16.4457436 L127.372565,16.4457436 L127.372565,16.4457436 Z" id="Shape"></path>
                <path d="M153.875834,0 C155.24855,0 156.410554,0.197445041 157.360612,0.589897531 L158.688968,1.14201237 C158.804798,1.19320182 158.920629,1.21757775 159.035228,1.21757775 C159.189258,1.21757775 159.343288,1.15420033 159.497318,1.02744549 L159.767179,0.798311741 C159.805378,0.748341082 159.875616,0.722746355 159.979124,0.722746355 C160.299507,0.710558389 160.460931,1.02135151 160.460931,1.65634451 C160.460931,1.8732903 160.543491,2.51315849 160.711076,3.57960547 L161.019136,5.54064912 C161.083213,5.95991514 161.115251,6.2207376 161.115251,6.32189771 C161.115251,6.715569 160.978472,6.91179524 160.703682,6.91179524 C160.494201,6.91179524 160.28472,6.60587731 160.075239,5.99526024 C159.614381,4.61923893 158.676645,3.48453934 157.263265,2.59359906 C155.849884,1.70265878 154.272615,1.25536045 152.532691,1.25536045 C151.150116,1.25536045 149.994274,1.65878211 149.067628,2.46562542 C148.140983,3.27246874 147.676428,4.28041349 147.676428,5.48702207 C147.676428,6.55468785 147.977095,7.47609805 148.579661,8.25125265 C149.105828,8.91305918 149.67882,9.39570261 150.29987,9.70040175 C150.920919,10.0051009 152.45013,10.5584345 154.886271,11.3579651 C159.629168,12.8936487 162,15.4116824 162,18.9132849 C162,21.285063 161.126341,23.2266059 159.381487,24.7366948 C157.635402,26.2455649 155.396419,27 152.662076,27 C151.672586,27 150.584517,26.8598384 149.399101,26.580734 C148.211221,26.3016296 147.341258,25.9786485 146.790447,25.6093531 C146.558785,25.4570036 146.405987,25.2949036 146.328356,25.1242721 C146.250725,24.9536406 146.136126,24.5124362 145.982096,23.8006591 C145.956219,23.6994989 145.796028,23.1217894 145.50029,22.0675304 C145.166353,20.9242992 145,20.1125807 145,19.6299373 C145,19.2496727 145.130618,19.0656345 145.391853,19.0778224 C145.627211,19.0912292 145.836692,19.4032411 146.020296,20.0138582 C146.481154,21.5934185 147.453392,22.9182503 148.938243,23.9871349 C150.423094,25.0572383 152.03733,25.5910712 153.777254,25.5910712 C155.544288,25.5910712 157.037765,25.076739 158.26138,24.046856 C159.484996,23.0169729 160.094955,21.7652688 160.094955,20.2917438 C160.094955,18.8815962 159.530589,17.6920507 158.403088,16.7267639 C157.825167,16.2307137 156.160409,15.5262493 153.403885,14.6109331 C150.556176,13.6602717 148.541461,12.6060127 147.356045,11.4518124 C146.169397,10.2976121 145.577921,8.8009299 145.577921,6.9605471 C145.577921,4.90443732 146.350536,3.22981086 147.898231,1.93666772 C149.443462,0.647180969 151.435996,0 153.875834,0 L153.875834,0 L153.875834,0 Z" id="Shape"></path>
                <path d="M185.02172,13.3246292 L196.351922,13.3246292 C196.914807,13.3246292 197.273676,13.2727232 197.427302,13.1701473 C197.580928,13.0663354 197.658355,12.8352305 197.658355,12.473125 L197.658355,5.86500793 C197.658355,4.53522787 197.487523,3.59227045 197.149547,3.03613567 C196.810341,2.48123674 196.186006,2.09935752 195.277771,1.89296972 C194.894321,1.81758256 194.707513,1.66680824 194.721032,1.44064677 C194.733322,1.22684384 194.894321,1.1205603 195.201573,1.1205603 C195.470725,1.1205603 195.904564,1.15269253 196.506777,1.216957 C197.352333,1.30717442 198.247049,1.3516652 199.195841,1.3516652 C200.564953,1.3516652 201.526036,1.31335369 202.07663,1.23549482 C202.421981,1.18482477 202.659179,1.15887181 202.786995,1.15887181 C203.094247,1.15887181 203.247872,1.28492903 203.247872,1.53580761 C203.247872,1.73354442 203.094247,1.86701677 202.786995,1.93128123 L201.999203,2.1055368 C201.602234,2.18215981 201.269173,2.47011404 201.00125,2.96445607 C200.732098,3.46003396 200.598136,4.02976315 200.598136,4.67364364 L200.598136,23.346178 C200.598136,24.7241564 200.789861,25.6770006 201.17454,26.2034749 C201.55799,26.7324209 202.294164,27.0537432 203.383063,27.1686777 C203.778803,27.2193478 203.984047,27.345405 203.997566,27.5468494 C204.023375,27.848398 203.84394,27.9991723 203.459261,27.9991723 C203.202399,27.9991723 202.870568,27.9670401 202.461309,27.9027756 C202.154058,27.8508697 201.513746,27.8261526 200.541602,27.8261526 L199.120872,27.8063789 L197.680477,27.8446904 C197.449424,27.8446904 197.142173,27.8644641 196.758723,27.9027756 C195.964785,27.9670401 195.522343,27.9991723 195.433855,27.9991723 C195.113084,28.0115309 194.959459,27.8854736 194.972978,27.6222365 C194.985268,27.3948392 195.204031,27.2502441 195.62558,27.1872155 C196.970112,26.9548748 197.642378,25.852492 197.642378,23.8800673 L197.662042,23.1261958 L197.662042,16.0286801 C197.662042,15.4231111 197.604279,15.0684207 197.488752,14.9646088 C197.373226,14.8620329 196.989776,14.810127 196.335945,14.810127 L185.025407,14.810127 C184.295377,14.810127 183.840645,14.8855141 183.662439,15.0325809 C183.483005,15.1808835 183.393287,15.5578193 183.393287,16.1621524 L183.393287,23.2485454 C183.393287,24.5882123 183.604676,25.5274622 184.027454,26.0675308 C184.450232,26.6075995 185.236795,26.9437521 186.389603,27.0710451 C186.86277,27.1217152 187.106113,27.2860839 187.119632,27.5616796 C187.131922,27.8261526 186.946342,27.9583891 186.562893,27.9583891 C186.395748,27.9583891 186.082351,27.9299644 185.621474,27.8706434 C185.276124,27.8125582 184.507995,27.7828977 183.317089,27.7828977 L181.704633,27.7655957 L180.437529,27.8088506 C180.116758,27.8088506 179.713644,27.8298602 179.228187,27.8731151 C178.562066,27.9299644 178.158952,27.9583891 178.018846,27.9583891 C177.698075,27.9583891 177.538304,27.8385111 177.538304,27.5999911 C177.538304,27.3738296 177.70422,27.2218195 178.037281,27.1476682 L178.997134,26.9153274 C179.560019,26.7867985 179.944697,26.3604285 180.149941,25.6374533 C180.353956,24.914478 180.457193,23.6514342 180.457193,21.844614 L180.457193,5.23719355 C180.457193,4.11503715 180.245804,3.30308036 179.823026,2.79885149 C179.400248,2.29462262 178.644409,1.9597059 177.55674,1.79286546 C177.184351,1.7421954 177,1.60501549 177,1.37761816 C177,1.11438103 177.165916,0.989559664 177.498976,1.00068236 C177.74109,1.01427677 178.125769,1.05258827 178.651784,1.11685274 C179.649736,1.23302311 180.822207,1.2911083 182.165511,1.2911083 C183.073746,1.2911083 183.925447,1.24043824 184.719384,1.13662642 C185.064735,1.08595636 185.333887,1.0600034 185.525612,1.0600034 C185.896772,1.0600034 186.082351,1.1922399 186.082351,1.45547703 C186.082351,1.6569214 185.909062,1.80151645 185.563711,1.89049801 C184.705865,2.11048022 184.129461,2.42438741 183.835729,2.83098372 C183.540768,3.23758004 183.394516,3.91853619 183.394516,4.87385216 L183.394516,11.7921689 C183.394516,12.5287385 183.468256,12.967467 183.615737,13.1095904 C183.757073,13.2529496 184.227782,13.3246292 185.02172,13.3246292 L185.02172,13.3246292 L185.02172,13.3246292 Z" id="Shape"></path>
            </g>
            <path d="M63.6396484,49.2529297 C62.067375,49.2529297 60.8528689,48.7915085 59.9960938,47.8686523 C59.1393186,46.9457962 58.7109375,45.6390058 58.7109375,43.9482422 C58.7109375,42.2620358 59.1472938,40.9541062 60.0200195,40.0244141 C60.8927452,39.0947219 62.1220624,38.6298828 63.7080078,38.6298828 C64.6149134,38.6298828 65.6767517,38.7779933 66.8935547,39.0742188 L66.8935547,40.4208984 C65.5081311,39.9423804 64.4394569,39.703125 63.6875,39.703125 C62.5891872,39.703125 61.7392608,40.0745406 61.1376953,40.8173828 C60.5361298,41.5602251 60.2353516,42.6083917 60.2353516,43.9619141 C60.2353516,45.2516341 60.5566374,46.2690392 61.1992188,47.0141602 C61.8418001,47.7592811 62.71907,48.1318359 63.8310547,48.1318359 C64.7880907,48.1318359 65.8134711,47.8378936 66.9072266,47.25 L66.9072266,48.4804688 C65.9091747,48.9954453 64.8199929,49.2529297 63.6396484,49.2529297 Z M77.8955078,49.2529297 C76.491855,49.2529297 75.3627972,48.7664437 74.5083008,47.793457 C73.6538043,46.8204704 73.2265625,45.5341877 73.2265625,43.9345703 C73.2265625,42.3258383 73.6560829,41.0395556 74.5151367,40.0756836 C75.3741905,39.1118116 76.5214772,38.6298828 77.9570312,38.6298828 C79.388028,38.6298828 80.5341754,39.1106723 81.3955078,40.0722656 C82.2568402,41.033859 82.6875,42.3167238 82.6875,43.9208984 C82.6875,45.5569743 82.2568402,46.8546502 81.3955078,47.8139648 C80.5341754,48.7732795 79.3675204,49.2529297 77.8955078,49.2529297 Z M77.9160156,48.1796875 C78.950526,48.1796875 79.7503227,47.8071326 80.3154297,47.0620117 C80.8805367,46.3168908 81.1630859,45.2653063 81.1630859,43.9072266 C81.1630859,42.5901627 80.8793974,41.5602251 80.3120117,40.8173828 C79.7446261,40.0745406 78.9596404,39.703125 77.9570312,39.703125 C76.9498648,39.703125 76.1637398,40.0756799 75.5986328,40.8208008 C75.0335258,41.5659217 74.7509766,42.6015559 74.7509766,43.9277344 C74.7509766,45.2493556 75.0312472,46.2884077 75.5917969,47.0449219 C76.1523466,47.8014361 76.9270784,48.1796875 77.9160156,48.1796875 Z M89.6972656,49 L89.6972656,38.8828125 L92.4521484,38.8828125 C93.6735087,38.8828125 94.5507786,39.0890279 95.0839844,39.5014648 C95.6171902,39.9139018 95.8837891,40.5917922 95.8837891,41.5351562 C95.8837891,42.6106825 95.5192094,43.453773 94.7900391,44.0644531 C94.0608687,44.6751333 93.0491601,44.9804688 91.7548828,44.9804688 L91.1191406,44.9804688 L91.1191406,49 L89.6972656,49 Z M91.1191406,43.8935547 L91.7001953,43.8935547 C92.5524131,43.8935547 93.2109352,43.6975931 93.6757812,43.3056641 C94.1406273,42.913735 94.3730469,42.3600296 94.3730469,41.6445312 C94.3730469,41.0384084 94.190757,40.60547 93.8261719,40.3457031 C93.4615867,40.0859362 92.8531944,39.9560547 92.0009766,39.9560547 L91.1191406,39.9560547 L91.1191406,43.8935547 Z M104.623047,49 L104.623047,44.7753906 L101.246094,38.8828125 L102.886719,38.8828125 L105.511719,43.4492188 L108.341797,38.8828125 L109.674805,38.8828125 L106.058594,44.7480469 L106.058594,49 L104.623047,49 Z M117.511719,49 L114.907227,38.8828125 L116.288086,38.8828125 L118.359375,47.0175781 L120.266602,38.8828125 L121.647461,38.8828125 L123.452148,46.9492188 L125.680664,38.8828125 L126.849609,38.8828125 L124.012695,49 L122.583984,49 L120.799805,41.2001953 L118.933594,49 L117.511719,49 Z M133.189453,49 L133.189453,38.8828125 L136.251953,38.8828125 C137.222661,38.8828125 137.966632,39.0970031 138.483887,39.5253906 C139.001142,39.9537782 139.259766,40.5758423 139.259766,41.3916016 C139.259766,42.7405666 138.578457,43.6975883 137.21582,44.2626953 L140.592773,49 L138.829102,49 L135.951172,44.7207031 L134.611328,44.7207031 L134.611328,49 L133.189453,49 Z M134.611328,43.6474609 L135.076172,43.6474609 C136.880868,43.6474609 137.783203,42.9388092 137.783203,41.5214844 C137.783203,40.4778594 137.0267,39.9560547 135.513672,39.9560547 L134.611328,39.9560547 L134.611328,43.6474609 Z M147.035156,49 L147.035156,38.8828125 L148.470703,38.8828125 L148.470703,49 L147.035156,49 Z M158.255859,49 L158.255859,39.9560547 L154.87207,39.9560547 L154.87207,38.8828125 L163.075195,38.8828125 L163.075195,39.9560547 L159.691406,39.9560547 L159.691406,49 L158.255859,49 Z M169.476562,49 L169.476562,38.8828125 L170.912109,38.8828125 L170.912109,49 L169.476562,49 Z M178.516602,49 L178.516602,38.8828125 L179.924805,38.8828125 L185.017578,46.6962891 L185.017578,38.8828125 L186.248047,38.8828125 L186.248047,49 L184.84668,49 L179.74707,41.1865234 L179.74707,49 L178.516602,49 Z M201.460938,48.7265625 C200.23502,49.0774757 199.166346,49.2529297 198.254883,49.2529297 C196.646151,49.2529297 195.412276,48.7949265 194.553223,47.8789062 C193.694169,46.962886 193.264648,45.6503992 193.264648,43.9414062 C193.264648,42.2643145 193.699865,40.9598028 194.570312,40.027832 C195.44076,39.0958612 196.662102,38.6298828 198.234375,38.6298828 C199.264328,38.6298828 200.335281,38.7825506 201.447266,39.0878906 L201.447266,40.4140625 C200.052727,39.9401018 198.984053,39.703125 198.241211,39.703125 C197.147455,39.703125 196.298668,40.0745406 195.694824,40.8173828 C195.09098,41.5602251 194.789062,42.606113 194.789062,43.9550781 C194.789062,45.2903713 195.112627,46.3282841 195.759766,47.0688477 C196.406904,47.8094113 197.313796,48.1796875 198.480469,48.1796875 C198.958987,48.1796875 199.476234,48.0953784 200.032227,47.9267578 L200.032227,44.6318359 L201.460938,44.6318359 L201.460938,48.7265625 Z" id="COPYWRITING" fill="#000000" sketch:type="MSShapeGroup"></path>
            <path d="M5.65917969,49 L3.0546875,38.8828125 L4.43554688,38.8828125 L6.50683594,47.0175781 L8.4140625,38.8828125 L9.79492188,38.8828125 L11.5996094,46.9492188 L13.828125,38.8828125 L14.9970703,38.8828125 L12.1601562,49 L10.7314453,49 L8.94726562,41.2001953 L7.08105469,49 L5.65917969,49 Z M21.3369141,49 L21.3369141,38.8828125 L26.9902344,38.8828125 L26.9902344,39.9560547 L22.7724609,39.9560547 L22.7724609,43.203125 L26.3066406,43.203125 L26.3066406,44.2626953 L22.7724609,44.2626953 L22.7724609,47.9267578 L27.2841797,47.9267578 L27.2841797,49 L21.3369141,49 Z M33.9248047,49 L33.9248047,38.8828125 L36.5498047,38.8828125 C37.5615285,38.8828125 38.3373996,39.0742168 38.8774414,39.4570312 C39.4174832,39.8398457 39.6875,40.3912724 39.6875,41.1113281 C39.6875,42.3372457 38.9947986,43.2099583 37.609375,43.7294922 C39.2636801,44.2353541 40.0908203,45.1490819 40.0908203,46.4707031 C40.0908203,47.2910197 39.8173855,47.9176411 39.2705078,48.3505859 C38.7236301,48.7835308 37.9352265,49 36.9052734,49 L33.9248047,49 Z M35.3466797,47.9267578 L35.640625,47.9267578 C36.6933646,47.9267578 37.3746729,47.8606777 37.6845703,47.7285156 C38.2770212,47.4778633 38.5732422,47.0130242 38.5732422,46.3339844 C38.5732422,45.7324189 38.3043647,45.2322611 37.7666016,44.8334961 C37.2288385,44.4347311 36.5566447,44.2353516 35.75,44.2353516 L35.3466797,44.2353516 L35.3466797,47.9267578 Z M35.3466797,43.3261719 L35.8046875,43.3261719 C36.5703163,43.3261719 37.1638976,43.162111 37.5854492,42.8339844 C38.0070008,42.5058577 38.2177734,42.0432973 38.2177734,41.4462891 C38.2177734,40.4527945 37.4475988,39.9560547 35.9072266,39.9560547 L35.3466797,39.9560547 L35.3466797,43.3261719 Z" id="WEB" fill="#000000" sketch:type="MSShapeGroup"></path>
        </g>
    </g>
</svg>