<?xml version="1.0" encoding="UTF-8" standalone="no"?>
<svg width="49px" height="78px" viewBox="0 0 49 78" version="1.1" xmlns="http://www.w3.org/2000/svg" xmlns:xlink="http://www.w3.org/1999/xlink" xmlns:sketch="http://www.bohemiancoding.com/sketch/ns">
    <!-- Generator: Sketch 3.0 (7574) - http://www.bohemiancoding.com/sketch -->
    <title>Slice 1</title>
    <description>Created with Sketch.</description>
    <defs></defs>
    <g id="Page-1" stroke="none" stroke-width="1" fill="none" fill-rule="evenodd" sketch:type="MSPage">
        <g id="Group" sketch:type="MSLayerGroup" transform="translate(-682.000000, -58.000000)" fill="#F72C8C">
            <g id="icon-chevron-right2-link" transform="translate(682.000000, 58.000000)" sketch:type="MSShapeGroup">
                <g id="icon-chevron-right2">
                    <path d="M48.9583333,38.6016429 C48.9583333,40.3269286 48.3462963,41.8358571 47.1222222,43.1284286 L14.7805556,75.5123571 C13.5564815,76.7399286 12.0685185,77.3537143 10.3166667,77.3537143 C8.56481481,77.3537143 7.07685185,76.7399286 5.85277778,75.5123571 L2.08333333,71.7822857 C0.859259259,70.4897143 0.247222222,68.9807857 0.247222222,67.2555 C0.247222222,65.4986429 0.859259259,64.0064286 2.08333333,62.7788571 L26.1916667,38.6016429 L2.08333333,14.4745714 C0.859259259,13.182 0.247222222,11.6730714 0.247222222,9.94778571 C0.247222222,8.19092857 0.859259259,6.69871429 2.08333333,5.47114286 L5.85277778,1.74107143 C7.04351852,0.480071429 8.53148148,-0.150428571 10.3166667,-0.150428571 C12.1018519,-0.150428571 13.5898148,0.480071429 14.7805556,1.74107143 L47.1222222,34.125 C48.3462963,35.3525714 48.9583333,36.8447857 48.9583333,38.6016429 L48.9583333,38.6016429 Z" id="Shape"></path>
                </g>
            </g>
        </g>
    </g>
</svg>