<?xml version="1.0" encoding="UTF-8" standalone="no"?>
<svg width="36px" height="32px" viewBox="0 0 36 32" version="1.1" xmlns="http://www.w3.org/2000/svg" xmlns:xlink="http://www.w3.org/1999/xlink" xmlns:sketch="http://www.bohemiancoding.com/sketch/ns">
    <!-- Generator: Sketch 3.0 (7574) - http://www.bohemiancoding.com/sketch -->
    <title>Slice 1</title>
    <description>Created with Sketch.</description>
    <defs></defs>
    <g id="Page-1" stroke="none" stroke-width="1" fill="none" fill-rule="evenodd" sketch:type="MSPage">
        <g id="Group" sketch:type="MSLayerGroup" transform="translate(-74.000000, -73.000000)" fill="#Fff">
            <g id="icon-bubbles-link" transform="translate(74.000000, 73.000000)" sketch:type="MSShapeGroup">
                <g id="icon-bubbles">
                    <path d="M15,0 L15,0 C23.284,0 30,5.435 30,12.139 C30,18.843 23.284,24.278 15,24.278 C14.204,24.278 13.424,24.227 12.661,24.131 C9.439,27.34 5.718,27.916 2,28 L2,27.215 C4.008,26.235 5.625,24.45 5.625,22.411 C5.625,22.126 5.603,21.847 5.562,21.574 C2.17,19.349 0,15.949 0,12.14 C0,5.436 6.716,0.001 15,0.001 L15,0 Z M31.125,27.209 C31.125,28.957 32.26,30.487 34,31.327 L34,32 C30.777,31.928 27.819,31.434 25.027,28.684 C24.366,28.767 23.69,28.81 23,28.81 C20.017,28.81 17.268,28.005 15.075,26.653 C19.596,26.637 23.864,25.189 27.101,22.569 C28.732,21.249 30.02,19.699 30.926,17.964 C31.887,16.124 32.375,14.165 32.375,12.139 C32.375,11.813 32.361,11.488 32.336,11.165 C34.604,13.038 36,15.591 36,18.405 C36,21.67 34.12,24.584 31.18,26.491 C31.144,26.725 31.125,26.965 31.125,27.209 L31.125,27.209 Z" id="Shape"></path>
                </g>
            </g>
        </g>
    </g>
</svg>