<?xml version="1.0" encoding="UTF-8" standalone="no"?>
<svg width="27px" height="27px" viewBox="0 0 27 27" version="1.1" xmlns="http://www.w3.org/2000/svg" xmlns:xlink="http://www.w3.org/1999/xlink" xmlns:sketch="http://www.bohemiancoding.com/sketch/ns">
    <!-- Generator: Sketch 3.0 (7574) - http://www.bohemiancoding.com/sketch -->
    <title>Slice 1</title>
    <description>Created with Sketch.</description>
    <defs></defs>
    <g id="Page-1" stroke="none" stroke-width="1" fill="none" fill-rule="evenodd" sketch:type="MSPage">
        <g id="Group" sketch:type="MSLayerGroup" transform="translate(0.000000, -148.000000)" fill="#fff">
            <g id="icon-bullseye-link" transform="translate(0.000000, 148.000000)" sketch:type="MSShapeGroup">
                <g id="icon-bullseye">
                    <path d="M18.286,14 C18.286,15.262 17.8396667,16.3393333 16.947,17.232 C16.0543333,18.1246667 14.977,18.571 13.715,18.571 C12.453,18.571 11.3756667,18.1246667 10.483,17.232 C9.59033333,16.3393333 9.144,15.262 9.144,14 C9.144,12.738 9.59033333,11.6606667 10.483,10.768 C11.3756667,9.87533333 12.453,9.429 13.715,9.429 C14.977,9.429 16.0543333,9.87533333 16.947,10.768 C17.8396667,11.6606667 18.286,12.738 18.286,14 L18.286,14 Z M20.571,14 C20.571,12.1073333 19.9013333,10.4913333 18.562,9.152 C17.2226667,7.81266667 15.6066667,7.143 13.714,7.143 C11.8213333,7.143 10.2053333,7.81266667 8.866,9.152 C7.52666667,10.4913333 6.857,12.1073333 6.857,14 C6.857,15.8926667 7.52666667,17.5086667 8.866,18.848 C10.2053333,20.1873333 11.8213333,20.857 13.714,20.857 C15.6066667,20.857 17.2226667,20.1873333 18.562,18.848 C19.9013333,17.5086667 20.571,15.8926667 20.571,14 L20.571,14 Z M22.857,14 C22.857,16.524 21.964,18.6786667 20.178,20.464 C18.392,22.2493333 16.2373333,23.1423333 13.714,23.143 C11.1906667,23.1436667 9.036,22.2506667 7.25,20.464 C5.464,18.6773333 4.571,16.5226667 4.571,14 C4.571,11.4773333 5.464,9.32266667 7.25,7.536 C9.036,5.74933333 11.1906667,4.85633333 13.714,4.857 C16.2373333,4.85766667 18.392,5.75066667 20.178,7.536 C21.964,9.32133333 22.857,11.476 22.857,14 L22.857,14 Z M25.143,14 C25.143,12.4526667 24.8393333,10.9733333 24.232,9.562 C23.6246667,8.15066667 22.812,6.93633333 21.794,5.919 C20.776,4.90166667 19.5616667,4.089 18.151,3.481 C16.7403333,2.873 15.261,2.56933333 13.713,2.57 C12.165,2.57066667 10.6856667,2.87433333 9.275,3.481 C7.86433333,4.08766667 6.65,4.90033333 5.632,5.919 C4.614,6.93766667 3.80133333,8.152 3.194,9.562 C2.58666667,10.972 2.283,12.4513333 2.283,14 C2.283,15.5486667 2.58666667,17.028 3.194,18.438 C3.80133333,19.848 4.614,21.0623333 5.632,22.081 C6.65,23.0996667 7.86433333,23.9123333 9.275,24.519 C10.6856667,25.1256667 12.165,25.4293333 13.713,25.43 C15.261,25.4306667 16.7403333,25.127 18.151,24.519 C19.5616667,23.911 20.776,23.0983333 21.794,22.081 C22.812,21.0636667 23.6246667,19.8493333 24.232,18.438 C24.8393333,17.0266667 25.143,15.5473333 25.143,14 L25.143,14 Z M27.429,14 C27.429,16.488 26.816,18.7826667 25.59,20.884 C24.364,22.9853333 22.7003333,24.649 20.599,25.875 C18.4976667,27.101 16.203,27.714 13.715,27.714 C11.227,27.714 8.93233333,27.101 6.831,25.875 C4.72966667,24.649 3.066,22.9853333 1.84,20.884 C0.614,18.7826667 0.001,16.488 0.001,14 C0.001,11.512 0.614,9.21733333 1.84,7.116 C3.066,5.01466667 4.72966667,3.351 6.831,2.125 C8.93233333,0.899 11.227,0.286 13.715,0.286 C16.203,0.286 18.4976667,0.899 20.599,2.125 C22.7003333,3.351 24.364,5.01466667 25.59,7.116 C26.816,9.21733333 27.429,11.512 27.429,14 L27.429,14 Z" id="Shape"></path>
                </g>
            </g>
        </g>
    </g>
</svg>