<?xml version="1.0" encoding="UTF-8" standalone="no"?>
<svg width="35px" height="34px" viewBox="0 0 35 34" version="1.1" xmlns="http://www.w3.org/2000/svg" xmlns:xlink="http://www.w3.org/1999/xlink" xmlns:sketch="http://www.bohemiancoding.com/sketch/ns">
    <!-- Generator: Sketch 3.0 (7574) - http://www.bohemiancoding.com/sketch -->
    <title>ikony-sketch</title>
    <description>Created with Sketch.</description>
    <defs></defs>
    <g id="Page-1" stroke="none" stroke-width="1" fill="none" fill-rule="evenodd" sketch:type="MSPage">
        <g id="Oval-20-+-icon_35149" sketch:type="MSLayerGroup">
            <path d="M17.5,34 C27.1649831,34 35,26.3888407 35,17 C35,7.61115925 27.1649831,0 17.5,0 C7.83501688,0 0,7.61115925 0,17 C0,26.3888407 7.83501688,34 17.5,34 Z M14.1024573,14.4763243 C11.4339316,14.4763243 9.2708547,13.9357838 9.2708547,13.268973 L9.2708547,14.8006486 C9.2708547,15.4674595 11.4339316,16.008 14.1024573,16.008 C16.7709829,16.008 18.9340598,15.4674595 18.9340598,14.8006486 L18.9340598,13.268973 C18.9340598,13.9357838 16.7705769,14.4763243 14.1024573,14.4763243 Z M14.1024573,17.5396757 C11.4339316,17.5396757 9.2708547,16.9991351 9.2708547,16.3323243 L9.2708547,17.864 C9.2708547,18.5308108 11.4339316,19.0713514 14.1024573,19.0713514 C16.7709829,19.0713514 18.9340598,18.5308108 18.9340598,17.864 L18.9340598,16.3323243 C18.9340598,16.9991351 16.7705769,17.5396757 14.1024573,17.5396757 Z M14.1024573,20.6025946 C11.4339316,20.6025946 9.2708547,20.0620541 9.2708547,19.3952432 L9.2708547,20.9269189 C9.2708547,21.5937297 11.4339316,22.1342703 14.1024573,22.1342703 C16.7709829,22.1342703 18.9340598,21.5937297 18.9340598,20.9269189 L18.9340598,19.3952432 C18.9340598,20.0620541 16.7705769,20.6025946 14.1024573,20.6025946 Z M14.1024573,23.6659459 C11.4339316,23.6659459 9.2708547,23.1254054 9.2708547,22.4585946 L9.2708547,23.9902703 C9.2708547,24.6570811 11.4339316,25.1976216 14.1024573,25.1976216 C16.7709829,25.1976216 18.9340598,24.6570811 18.9340598,23.9902703 L18.9340598,22.4585946 C18.9340598,23.1254054 16.7705769,23.6659459 14.1024573,23.6659459 Z M14.1024573,8.9987027 C11.4339316,8.9987027 9.2708547,9.53924324 9.2708547,10.2060541 L9.2708547,11.7377297 C9.2708547,12.4045405 11.4339316,12.9450811 14.1024573,12.9450811 C16.7709829,12.9450811 18.9340598,12.4045405 18.9340598,11.7377297 L18.9340598,10.2060541 C18.9340598,9.53924324 16.7705769,8.9987027 14.1024573,8.9987027 Z M24.796453,18.2397838 C22.5233547,18.2397838 20.6805983,17.7792432 20.6805983,17.2114595 L20.6805983,18.5161081 C20.6805983,19.0838919 22.5233547,19.5444324 24.796453,19.5444324 C27.0695513,19.5444324 28.9123077,19.0838919 28.9123077,18.5161081 L28.9123077,17.2114595 C28.9123077,17.7796757 27.0695513,18.2397838 24.796453,18.2397838 Z M24.796453,20.8490811 C22.5233547,20.8490811 20.6805983,20.3885405 20.6805983,19.8207568 L20.6805983,21.1254054 C20.6805983,21.6931892 22.5233547,22.1537297 24.796453,22.1537297 C27.0695513,22.1537297 28.9123077,21.6931892 28.9123077,21.1254054 L28.9123077,19.8207568 C28.9123077,20.3885405 27.0695513,20.8490811 24.796453,20.8490811 Z M24.796453,13.5738378 C22.5233547,13.5738378 20.6805983,14.0343784 20.6805983,14.6021622 L20.6805983,15.9068108 C20.6805983,16.4745946 22.5233547,16.9351351 24.796453,16.9351351 C27.0695513,16.9351351 28.9123077,16.4745946 28.9123077,15.9068108 L28.9123077,14.6021622 C28.9123077,14.0343784 27.0695513,13.5738378 24.796453,13.5738378 Z" id="Oval-20" fill="#F72C8C" sketch:type="MSShapeGroup"></path>
            <g id="icon_35149" transform="translate(9.000000, 9.000000)"></g>
        </g>
    </g>
</svg>